<svg xmlns="http://www.w3.org/2000/svg" xmlns:xlink="http://www.w3.org/1999/xlink" contentStyleType="text/css" data-diagram-type="CLASS" height="808px" preserveAspectRatio="none" style="width:2344px;height:808px;background:#FFFFFF;" version="1.1" viewBox="0 0 2344 808" width="2344px" zoomAndPan="magnify"><defs/><g><!--cluster dao--><g id="cluster_dao"><path d="M8.5,6.602 L34.4339,6.602 A3.75,3.75 0 0 1 36.9339,9.102 L43.9339,31.6699 L1081.5,31.6699 A2.5,2.5 0 0 1 1084,34.1699 L1084,538.262 A2.5,2.5 0 0 1 1081.5,540.762 L8.5,540.762 A2.5,2.5 0 0 1 6,538.262 L6,9.102 A2.5,2.5 0 0 1 8.5,6.602 " fill="transparent" style="stroke:#000000;stroke-width:1.5;"/><line style="stroke:#000000;stroke-width:1.5;" x1="6" x2="43.9339" y1="31.6699" y2="31.6699"/><text fill="#000000" font-family="sans-serif" font-size="14" font-weight="bold" lengthAdjust="spacing" textLength="24.9339" x="10" y="23.5679">dao</text></g><!--cluster service--><g id="cluster_service"><path d="M1110.5,257.612 L1157.2238,257.612 A3.75,3.75 0 0 1 1159.7238,260.112 L1166.7238,282.6799 L2334.5,282.6799 A2.5,2.5 0 0 1 2337,285.1799 L2337,798.802 A2.5,2.5 0 0 1 2334.5,801.302 L1110.5,801.302 A2.5,2.5 0 0 1 1108,798.802 L1108,260.112 A2.5,2.5 0 0 1 1110.5,257.612 " fill="transparent" style="stroke:#000000;stroke-width:1.5;"/><line style="stroke:#000000;stroke-width:1.5;" x1="1108" x2="1166.7238" y1="282.6799" y2="282.6799"/><text fill="#000000" font-family="sans-serif" font-size="14" font-weight="bold" lengthAdjust="spacing" textLength="45.7238" x="1112" y="274.5779">service</text></g><!--class BoltConnectionParams--><g id="elem_BoltConnectionParams"><rect codeLine="2" fill="#F1F1F1" height="124.2717" id="BoltConnectionParams" rx="2.5" ry="2.5" style="stroke:#181818;stroke-width:0.5;" width="183.0174" x="418.49" y="343.282"/><ellipse cx="433.49" cy="359.282" fill="#7FFFD4" rx="11" ry="11" style="stroke:#181818;stroke-width:1;"/><path d="M432.615,365.9539 Q431.615,365.9539 430.6619,365.7664 Q429.7088,365.5789 428.9275,365.2039 L428.9275,363.032 Q430.0213,363.5164 430.8806,363.7351 Q431.7556,363.9539 432.6463,363.9539 Q433.4431,363.9539 433.9431,363.7507 Q434.4431,363.5476 434.6775,363.1726 Q434.9119,362.782 434.9119,362.1726 Q434.9119,361.7039 434.7244,361.4539 Q434.5525,361.1882 433.99,360.8914 Q433.4275,360.5945 432.3494,360.1257 Q431.615,359.7976 430.8963,359.3757 Q430.1775,358.9539 429.6931,358.2351 Q429.2088,357.5164 429.2088,356.3601 Q429.2088,355.2039 429.7244,354.407 Q430.2556,353.5945 431.1931,353.1882 Q432.1463,352.782 433.4275,352.782 Q434.3963,352.782 435.24,352.9851 Q436.0838,353.1882 437.0213,353.6414 L436.2869,355.5476 Q435.4119,355.1414 434.7244,354.9851 Q434.0525,354.8289 433.3963,354.8289 Q432.7869,354.8289 432.3494,354.9851 Q431.9119,355.1414 431.6775,355.4851 Q431.4588,355.8132 431.4588,356.3914 Q431.4588,356.8757 431.6463,357.1726 Q431.8494,357.4695 432.3338,357.7351 Q432.8338,357.9851 433.6931,358.3601 Q434.6775,358.7664 435.4431,359.2039 Q436.2244,359.6414 436.6931,360.3445 Q437.1775,361.032 437.1775,362.1882 Q437.1775,363.0632 436.8806,363.782 Q436.5838,364.4851 435.99,364.9851 Q435.3963,365.4695 434.5525,365.7195 Q433.7088,365.9539 432.615,365.9539 Z " fill="#000000"/><text fill="#000000" font-family="sans-serif" font-size="14" lengthAdjust="spacing" textLength="151.0174" x="447.49" y="364.714">BoltConnectionParams</text><line style="stroke:#181818;stroke-width:0.5;" x1="419.49" x2="600.5074" y1="375.282" y2="375.282"/><ellipse cx="429.49" cy="390.3159" fill="transparent" rx="3" ry="3" style="stroke:#038048;stroke-width:1;"/><text fill="#000000" font-family="sans-serif" font-size="14" lengthAdjust="spacing" textLength="72.0857" x="438.49" y="394.2479">Path string</text><ellipse cx="429.49" cy="409.3839" fill="transparent" rx="3" ry="3" style="stroke:#038048;stroke-width:1;"/><text fill="#000000" font-family="sans-serif" font-size="14" lengthAdjust="spacing" textLength="116.6476" x="438.49" y="413.3158">Mode fs.FileMode</text><ellipse cx="429.49" cy="428.4518" fill="transparent" rx="3" ry="3" style="stroke:#038048;stroke-width:1;"/><text fill="#000000" font-family="sans-serif" font-size="14" lengthAdjust="spacing" textLength="124.1936" x="438.49" y="432.3838">Opts *bolt.Options</text><line style="stroke:#181818;stroke-width:0.5;" x1="419.49" x2="600.5074" y1="440.4857" y2="440.4857"/><rect fill="#F24D5C" height="6" style="stroke:#C82930;stroke-width:1;" width="6" x="426.49" y="452.5197"/><text fill="#000000" font-family="sans-serif" font-size="14" lengthAdjust="spacing" textLength="107.0016" x="438.49" y="459.4517">getParams() any</text></g><!--class BoltDao--><g id="elem_BoltDao"><rect codeLine="10" fill="#F1F1F1" height="200.5433" id="BoltDao" rx="2.5" ry="2.5" style="stroke:#181818;stroke-width:0.5;" width="431.3264" x="636.34" y="305.152"/><ellipse cx="821.3633" cy="321.152" fill="#7FFFD4" rx="11" ry="11" style="stroke:#181818;stroke-width:1;"/><path d="M820.4883,327.8239 Q819.4883,327.8239 818.5352,327.6364 Q817.5821,327.4489 816.8008,327.0739 L816.8008,324.902 Q817.8946,325.3864 818.7539,325.6051 Q819.6289,325.8239 820.5196,325.8239 Q821.3164,325.8239 821.8164,325.6207 Q822.3164,325.4176 822.5508,325.0426 Q822.7852,324.652 822.7852,324.0426 Q822.7852,323.5739 822.5977,323.3239 Q822.4258,323.0582 821.8633,322.7614 Q821.3008,322.4645 820.2227,321.9957 Q819.4883,321.6676 818.7696,321.2457 Q818.0508,320.8239 817.5664,320.1051 Q817.0821,319.3864 817.0821,318.2301 Q817.0821,317.0739 817.5977,316.277 Q818.1289,315.4645 819.0664,315.0582 Q820.0196,314.652 821.3008,314.652 Q822.2696,314.652 823.1133,314.8551 Q823.9571,315.0582 824.8946,315.5114 L824.1602,317.4176 Q823.2852,317.0114 822.5977,316.8551 Q821.9258,316.6989 821.2696,316.6989 Q820.6602,316.6989 820.2227,316.8551 Q819.7852,317.0114 819.5508,317.3551 Q819.3321,317.6832 819.3321,318.2614 Q819.3321,318.7457 819.5196,319.0426 Q819.7227,319.3395 820.2071,319.6051 Q820.7071,319.8551 821.5664,320.2301 Q822.5508,320.6364 823.3164,321.0739 Q824.0977,321.5114 824.5664,322.2145 Q825.0508,322.902 825.0508,324.0582 Q825.0508,324.9332 824.7539,325.652 Q824.4571,326.3551 823.8633,326.8551 Q823.2696,327.3395 822.4258,327.5895 Q821.5821,327.8239 820.4883,327.8239 Z " fill="#000000"/><text fill="#000000" font-family="sans-serif" font-size="14" lengthAdjust="spacing" textLength="52.7798" x="841.8633" y="326.584">BoltDao</text><line style="stroke:#181818;stroke-width:0.5;" x1="637.34" x2="1066.6664" y1="337.152" y2="337.152"/><rect fill="transparent" height="6" style="stroke:#C82930;stroke-width:1;" width="6" x="644.34" y="349.1859"/><text fill="#000000" font-family="sans-serif" font-size="14" lengthAdjust="spacing" textLength="77.3917" x="656.34" y="356.1179">db *bolt.DB</text><line style="stroke:#181818;stroke-width:0.5;" x1="637.34" x2="1066.6664" y1="364.2199" y2="364.2199"/><ellipse cx="647.34" cy="379.2539" fill="#84BE84" rx="3" ry="3" style="stroke:#038048;stroke-width:1;"/><text fill="#000000" font-family="sans-serif" font-size="14" lengthAdjust="spacing" textLength="223.0611" x="656.34" y="383.1858">Connect(cp ConnectParams) error</text><ellipse cx="647.34" cy="398.3218" fill="#84BE84" rx="3" ry="3" style="stroke:#038048;stroke-width:1;"/><text fill="#000000" font-family="sans-serif" font-size="14" lengthAdjust="spacing" textLength="118.4535" x="656.34" y="402.2538">Disconnect() error</text><ellipse cx="647.34" cy="417.3897" fill="#84BE84" rx="3" ry="3" style="stroke:#038048;stroke-width:1;"/><text fill="#000000" font-family="sans-serif" font-size="14" lengthAdjust="spacing" textLength="185.2753" x="656.34" y="421.3217">Create(doc Document) error</text><ellipse cx="647.34" cy="436.4576" fill="#84BE84" rx="3" ry="3" style="stroke:#038048;stroke-width:1;"/><text fill="#000000" font-family="sans-serif" font-size="14" lengthAdjust="spacing" textLength="359.2386" x="656.34" y="440.3896">Read(doc *Document, id uuid.UUID) (Document, error)</text><ellipse cx="647.34" cy="455.5255" fill="#84BE84" rx="3" ry="3" style="stroke:#038048;stroke-width:1;"/><text fill="#000000" font-family="sans-serif" font-size="14" lengthAdjust="spacing" textLength="190.2033" x="656.34" y="459.4575">Update(doc Document) error</text><ellipse cx="647.34" cy="474.5934" fill="#84BE84" rx="3" ry="3" style="stroke:#038048;stroke-width:1;"/><text fill="#000000" font-family="sans-serif" font-size="14" lengthAdjust="spacing" textLength="172.8993" x="656.34" y="478.5254">Delete(id uuid.UUID) error</text><ellipse cx="647.34" cy="493.6614" fill="#84BE84" rx="3" ry="3" style="stroke:#038048;stroke-width:1;"/><text fill="#000000" font-family="sans-serif" font-size="14" lengthAdjust="spacing" textLength="405.3264" x="656.34" y="497.5933">SearchByKeyValue(key string, value string) ([]MetaData, error)</text></g><!--class ConnectParams--><g id="elem_ConnectParams"><rect codeLine="22" fill="#F1F1F1" height="67.0679" id="ConnectParams" rx="2.5" ry="2.5" style="stroke:#181818;stroke-width:0.5;" width="133.0016" x="468.5" y="101.812"/><ellipse cx="484.8509" cy="117.812" fill="#B4A7E5" rx="11" ry="11" style="stroke:#181818;stroke-width:1;"/><path d="M481.2259,124.312 L481.2259,122.6089 L483.6634,122.3745 L483.6634,113.4214 L481.2259,113.2026 L481.2259,111.4839 L488.3665,111.4839 L488.3665,113.2026 L485.8821,113.4214 L485.8821,122.3745 L488.3665,122.6089 L488.3665,124.312 L481.2259,124.312 Z " fill="#000000"/><text fill="#000000" font-family="sans-serif" font-size="14" font-style="italic" lengthAdjust="spacing" textLength="97.9996" x="499.1511" y="123.244">ConnectParams</text><line style="stroke:#181818;stroke-width:0.5;" x1="469.5" x2="600.5016" y1="133.812" y2="133.812"/><line style="stroke:#181818;stroke-width:0.5;" x1="469.5" x2="600.5016" y1="141.812" y2="141.812"/><rect fill="#F24D5C" height="6" style="stroke:#C82930;stroke-width:1;" width="6" x="476.5" y="153.8459"/><text fill="#000000" font-family="sans-serif" font-size="14" lengthAdjust="spacing" textLength="107.0016" x="488.5" y="160.7779">getParams() any</text></g><!--class DAO--><g id="elem_DAO"><rect codeLine="26" fill="#F1F1F1" height="181.4754" id="DAO" rx="2.5" ry="2.5" style="stroke:#181818;stroke-width:0.5;" width="431.3264" x="636.34" y="44.602"/><ellipse cx="834.1033" cy="60.602" fill="#B4A7E5" rx="11" ry="11" style="stroke:#181818;stroke-width:1;"/><path d="M830.4783,67.102 L830.4783,65.3989 L832.9158,65.1645 L832.9158,56.2114 L830.4783,55.9926 L830.4783,54.2739 L837.6189,54.2739 L837.6189,55.9926 L835.1345,56.2114 L835.1345,65.1645 L837.6189,65.3989 L837.6189,67.102 L830.4783,67.102 Z " fill="#000000"/><text fill="#000000" font-family="sans-serif" font-size="14" font-style="italic" lengthAdjust="spacing" textLength="27.2999" x="854.6033" y="66.034">DAO</text><line style="stroke:#181818;stroke-width:0.5;" x1="637.34" x2="1066.6664" y1="76.602" y2="76.602"/><line style="stroke:#181818;stroke-width:0.5;" x1="637.34" x2="1066.6664" y1="84.602" y2="84.602"/><ellipse cx="647.34" cy="99.6359" fill="#84BE84" rx="3" ry="3" style="stroke:#038048;stroke-width:1;"/><text fill="#000000" font-family="sans-serif" font-size="14" lengthAdjust="spacing" textLength="161.4754" x="656.34" y="103.5679">Create( Document) error</text><ellipse cx="647.34" cy="118.7039" fill="#84BE84" rx="3" ry="3" style="stroke:#038048;stroke-width:1;"/><text fill="#000000" font-family="sans-serif" font-size="14" lengthAdjust="spacing" textLength="323.2167" x="656.34" y="122.6358">Read( *Document,  uuid.UUID) (Document, error)</text><ellipse cx="647.34" cy="137.7718" fill="#84BE84" rx="3" ry="3" style="stroke:#038048;stroke-width:1;"/><text fill="#000000" font-family="sans-serif" font-size="14" lengthAdjust="spacing" textLength="405.3264" x="656.34" y="141.7038">SearchByKeyValue(key string, value string) ([]MetaData, error)</text><ellipse cx="647.34" cy="156.8397" fill="#84BE84" rx="3" ry="3" style="stroke:#038048;stroke-width:1;"/><text fill="#000000" font-family="sans-serif" font-size="14" lengthAdjust="spacing" textLength="166.4034" x="656.34" y="160.7717">Update( Document) error</text><ellipse cx="647.34" cy="175.9076" fill="#84BE84" rx="3" ry="3" style="stroke:#038048;stroke-width:1;"/><text fill="#000000" font-family="sans-serif" font-size="14" lengthAdjust="spacing" textLength="160.6774" x="656.34" y="179.8396">Delete( uuid.UUID) error</text><ellipse cx="647.34" cy="194.9755" fill="#84BE84" rx="3" ry="3" style="stroke:#038048;stroke-width:1;"/><text fill="#000000" font-family="sans-serif" font-size="14" lengthAdjust="spacing" textLength="207.7312" x="656.34" y="198.9075">Connect( ConnectParams) error</text><ellipse cx="647.34" cy="214.0434" fill="#84BE84" rx="3" ry="3" style="stroke:#038048;stroke-width:1;"/><text fill="#000000" font-family="sans-serif" font-size="14" lengthAdjust="spacing" textLength="118.4535" x="656.34" y="217.9754">Disconnect() error</text></g><!--class Document--><g id="elem_Document"><rect codeLine="36" fill="#F1F1F1" height="181.4754" id="Document" rx="2.5" ry="2.5" style="stroke:#181818;stroke-width:0.5;" width="224.9953" x="208.5" y="44.602"/><ellipse cx="284.9187" cy="60.602" fill="#B4A7E5" rx="11" ry="11" style="stroke:#181818;stroke-width:1;"/><path d="M281.2937,67.102 L281.2937,65.3989 L283.7312,65.1645 L283.7312,56.2114 L281.2937,55.9926 L281.2937,54.2739 L288.4344,54.2739 L288.4344,55.9926 L285.95,56.2114 L285.95,65.1645 L288.4344,65.3989 L288.4344,67.102 L281.2937,67.102 Z " fill="#000000"/><text fill="#000000" font-family="sans-serif" font-size="14" font-style="italic" lengthAdjust="spacing" textLength="63.6578" x="305.4187" y="66.034">Document</text><line style="stroke:#181818;stroke-width:0.5;" x1="209.5" x2="432.4953" y1="76.602" y2="76.602"/><line style="stroke:#181818;stroke-width:0.5;" x1="209.5" x2="432.4953" y1="84.602" y2="84.602"/><ellipse cx="219.5" cy="99.6359" fill="#84BE84" rx="3" ry="3" style="stroke:#038048;stroke-width:1;"/><text fill="#000000" font-family="sans-serif" font-size="14" lengthAdjust="spacing" textLength="101.5556" x="228.5" y="103.5679">GetTitle() string</text><ellipse cx="219.5" cy="118.7039" fill="#84BE84" rx="3" ry="3" style="stroke:#038048;stroke-width:1;"/><text fill="#000000" font-family="sans-serif" font-size="14" lengthAdjust="spacing" textLength="136.4015" x="228.5" y="122.6358">SetTitle( string) error</text><ellipse cx="219.5" cy="137.7718" fill="#84BE84" rx="3" ry="3" style="stroke:#038048;stroke-width:1;"/><text fill="#000000" font-family="sans-serif" font-size="14" lengthAdjust="spacing" textLength="164.1494" x="228.5" y="141.7038">GetMetaData() MetaData</text><ellipse cx="219.5" cy="156.8397" fill="#84BE84" rx="3" ry="3" style="stroke:#038048;stroke-width:1;"/><text fill="#000000" font-family="sans-serif" font-size="14" lengthAdjust="spacing" textLength="198.9953" x="228.5" y="160.7717">SetMetaData( MetaData) error</text><ellipse cx="219.5" cy="175.9076" fill="#84BE84" rx="3" ry="3" style="stroke:#038048;stroke-width:1;"/><text fill="#000000" font-family="sans-serif" font-size="14" lengthAdjust="spacing" textLength="111.4536" x="228.5" y="179.8396">GetContent() any</text><ellipse cx="219.5" cy="194.9755" fill="#84BE84" rx="3" ry="3" style="stroke:#038048;stroke-width:1;"/><text fill="#000000" font-family="sans-serif" font-size="14" lengthAdjust="spacing" textLength="146.2994" x="228.5" y="198.9075">SetContent( any) error</text><ellipse cx="219.5" cy="214.0434" fill="#84BE84" rx="3" ry="3" style="stroke:#038048;stroke-width:1;"/><text fill="#000000" font-family="sans-serif" font-size="14" lengthAdjust="spacing" textLength="118.8595" x="228.5" y="217.9754">GetID() uuid.UUID</text></g><!--class MetaData--><g id="elem_MetaData"><rect codeLine="46" fill="#F1F1F1" height="162.4075" id="MetaData" rx="2.5" ry="2.5" style="stroke:#181818;stroke-width:0.5;" width="151.8736" x="22.06" y="54.142"/><ellipse cx="61.9854" cy="70.142" fill="#7FFFD4" rx="11" ry="11" style="stroke:#181818;stroke-width:1;"/><path d="M61.1104,76.8139 Q60.1104,76.8139 59.1573,76.6264 Q58.2042,76.4389 57.4229,76.0639 L57.4229,73.892 Q58.5167,74.3764 59.376,74.5951 Q60.251,74.8139 61.1417,74.8139 Q61.9385,74.8139 62.4385,74.6107 Q62.9385,74.4076 63.1729,74.0326 Q63.4073,73.642 63.4073,73.0326 Q63.4073,72.5639 63.2198,72.3139 Q63.0479,72.0482 62.4854,71.7514 Q61.9229,71.4545 60.8448,70.9857 Q60.1104,70.6576 59.3917,70.2357 Q58.6729,69.8139 58.1885,69.0951 Q57.7042,68.3764 57.7042,67.2201 Q57.7042,66.0639 58.2198,65.267 Q58.751,64.4545 59.6885,64.0482 Q60.6417,63.642 61.9229,63.642 Q62.8917,63.642 63.7354,63.8451 Q64.5792,64.0482 65.5167,64.5014 L64.7823,66.4076 Q63.9073,66.0014 63.2198,65.8451 Q62.5479,65.6889 61.8917,65.6889 Q61.2823,65.6889 60.8448,65.8451 Q60.4073,66.0014 60.1729,66.3451 Q59.9542,66.6732 59.9542,67.2514 Q59.9542,67.7357 60.1417,68.0326 Q60.3448,68.3295 60.8292,68.5951 Q61.3292,68.8451 62.1885,69.2201 Q63.1729,69.6264 63.9385,70.0639 Q64.7198,70.5014 65.1885,71.2045 Q65.6729,71.892 65.6729,73.0482 Q65.6729,73.9232 65.376,74.642 Q65.0792,75.3451 64.4854,75.8451 Q63.8917,76.3295 63.0479,76.5795 Q62.2042,76.8139 61.1104,76.8139 Z " fill="#000000"/><text fill="#000000" font-family="sans-serif" font-size="14" lengthAdjust="spacing" textLength="64.4838" x="81.5244" y="75.574">MetaData</text><line style="stroke:#181818;stroke-width:0.5;" x1="23.06" x2="172.9336" y1="86.142" y2="86.142"/><ellipse cx="33.06" cy="101.1759" fill="transparent" rx="3" ry="3" style="stroke:#038048;stroke-width:1;"/><text fill="#000000" font-family="sans-serif" font-size="14" lengthAdjust="spacing" textLength="70.0137" x="42.06" y="105.1079">Title string</text><ellipse cx="33.06" cy="120.2439" fill="transparent" rx="3" ry="3" style="stroke:#038048;stroke-width:1;"/><text fill="#000000" font-family="sans-serif" font-size="14" lengthAdjust="spacing" textLength="87.6117" x="42.06" y="124.1758">Author string</text><ellipse cx="33.06" cy="139.3118" fill="transparent" rx="3" ry="3" style="stroke:#038048;stroke-width:1;"/><text fill="#000000" font-family="sans-serif" font-size="14" lengthAdjust="spacing" textLength="121.3935" x="42.06" y="143.2438">PublishDate string</text><ellipse cx="33.06" cy="158.3797" fill="transparent" rx="3" ry="3" style="stroke:#038048;stroke-width:1;"/><text fill="#000000" font-family="sans-serif" font-size="14" lengthAdjust="spacing" textLength="125.8736" x="42.06" y="162.3117">LastUpdated string</text><ellipse cx="33.06" cy="177.4476" fill="transparent" rx="3" ry="3" style="stroke:#038048;stroke-width:1;"/><text fill="#000000" font-family="sans-serif" font-size="14" lengthAdjust="spacing" textLength="95.8716" x="42.06" y="181.3796">FileType string</text><ellipse cx="33.06" cy="196.5155" fill="transparent" rx="3" ry="3" style="stroke:#038048;stroke-width:1;"/><text fill="#000000" font-family="sans-serif" font-size="14" lengthAdjust="spacing" textLength="103.4596" x="42.06" y="200.4475">Uuid uuid.UUID</text><line style="stroke:#181818;stroke-width:0.5;" x1="23.06" x2="172.9336" y1="208.5495" y2="208.5495"/></g><!--class Notes--><g id="elem_Notes"><rect codeLine="55" fill="#F1F1F1" height="238.6792" id="Notes" rx="2.5" ry="2.5" style="stroke:#181818;stroke-width:0.5;" width="258.8891" x="124.56" y="286.082"/><ellipse cx="230.3716" cy="302.082" fill="#7FFFD4" rx="11" ry="11" style="stroke:#181818;stroke-width:1;"/><path d="M229.4966,308.7539 Q228.4966,308.7539 227.5435,308.5664 Q226.5904,308.3789 225.8091,308.0039 L225.8091,305.832 Q226.9029,306.3164 227.7623,306.5351 Q228.6373,306.7539 229.5279,306.7539 Q230.3248,306.7539 230.8248,306.5507 Q231.3248,306.3476 231.5591,305.9726 Q231.7935,305.582 231.7935,304.9726 Q231.7935,304.5039 231.606,304.2539 Q231.4341,303.9882 230.8716,303.6914 Q230.3091,303.3945 229.231,302.9257 Q228.4966,302.5976 227.7779,302.1757 Q227.0591,301.7539 226.5748,301.0351 Q226.0904,300.3164 226.0904,299.1601 Q226.0904,298.0039 226.606,297.207 Q227.1373,296.3945 228.0748,295.9882 Q229.0279,295.582 230.3091,295.582 Q231.2779,295.582 232.1216,295.7851 Q232.9654,295.9882 233.9029,296.4414 L233.1685,298.3476 Q232.2935,297.9414 231.606,297.7851 Q230.9341,297.6289 230.2779,297.6289 Q229.6685,297.6289 229.231,297.7851 Q228.7935,297.9414 228.5591,298.2851 Q228.3404,298.6132 228.3404,299.1914 Q228.3404,299.6757 228.5279,299.9726 Q228.731,300.2695 229.2154,300.5351 Q229.7154,300.7851 230.5748,301.1601 Q231.5591,301.5664 232.3248,302.0039 Q233.106,302.4414 233.5748,303.1445 Q234.0591,303.832 234.0591,304.9882 Q234.0591,305.8632 233.7623,306.582 Q233.4654,307.2851 232.8716,307.7851 Q232.2779,308.2695 231.4341,308.5195 Q230.5904,308.7539 229.4966,308.7539 Z " fill="#000000"/><text fill="#000000" font-family="sans-serif" font-size="14" lengthAdjust="spacing" textLength="38.7659" x="250.8716" y="307.514">Notes</text><line style="stroke:#181818;stroke-width:0.5;" x1="125.56" x2="382.4491" y1="318.082" y2="318.082"/><ellipse cx="135.56" cy="333.1159" fill="transparent" rx="3" ry="3" style="stroke:#038048;stroke-width:1;"/><text fill="#000000" font-family="sans-serif" font-size="14" lengthAdjust="spacing" textLength="70.0137" x="144.56" y="337.0479">Title string</text><ellipse cx="135.56" cy="352.1839" fill="transparent" rx="3" ry="3" style="stroke:#038048;stroke-width:1;"/><text fill="#000000" font-family="sans-serif" font-size="14" lengthAdjust="spacing" textLength="130.9975" x="144.56" y="356.1158">Metadata MetaData</text><ellipse cx="135.56" cy="371.2518" fill="transparent" rx="3" ry="3" style="stroke:#038048;stroke-width:1;"/><text fill="#000000" font-family="sans-serif" font-size="14" lengthAdjust="spacing" textLength="94.6816" x="144.56" y="375.1838">Content string</text><line style="stroke:#181818;stroke-width:0.5;" x1="125.56" x2="382.4491" y1="383.2857" y2="383.2857"/><ellipse cx="135.56" cy="398.3197" fill="#84BE84" rx="3" ry="3" style="stroke:#038048;stroke-width:1;"/><text fill="#000000" font-family="sans-serif" font-size="14" lengthAdjust="spacing" textLength="101.5556" x="144.56" y="402.2517">GetTitle() string</text><ellipse cx="135.56" cy="417.3876" fill="#84BE84" rx="3" ry="3" style="stroke:#038048;stroke-width:1;"/><text fill="#000000" font-family="sans-serif" font-size="14" lengthAdjust="spacing" textLength="161.6294" x="144.56" y="421.3196">SetTitle(title string) error</text><ellipse cx="135.56" cy="436.4555" fill="#84BE84" rx="3" ry="3" style="stroke:#038048;stroke-width:1;"/><text fill="#000000" font-family="sans-serif" font-size="14" lengthAdjust="spacing" textLength="164.1494" x="144.56" y="440.3875">GetMetaData() MetaData</text><ellipse cx="135.56" cy="455.5234" fill="#84BE84" rx="3" ry="3" style="stroke:#038048;stroke-width:1;"/><text fill="#000000" font-family="sans-serif" font-size="14" lengthAdjust="spacing" textLength="232.8891" x="144.56" y="459.4554">SetMetaData(meta MetaData) error</text><ellipse cx="135.56" cy="474.5914" fill="#84BE84" rx="3" ry="3" style="stroke:#038048;stroke-width:1;"/><text fill="#000000" font-family="sans-serif" font-size="14" lengthAdjust="spacing" textLength="111.4536" x="144.56" y="478.5233">GetContent() any</text><ellipse cx="135.56" cy="493.6593" fill="#84BE84" rx="3" ry="3" style="stroke:#038048;stroke-width:1;"/><text fill="#000000" font-family="sans-serif" font-size="14" lengthAdjust="spacing" textLength="196.7972" x="144.56" y="497.5913">SetContent(content any) error</text><ellipse cx="135.56" cy="512.7272" fill="#84BE84" rx="3" ry="3" style="stroke:#038048;stroke-width:1;"/><text fill="#000000" font-family="sans-serif" font-size="14" lengthAdjust="spacing" textLength="118.8595" x="144.56" y="516.6592">GetID() uuid.UUID</text></g><!--class APIHandler--><g id="elem_APIHandler"><rect codeLine="76" fill="#F1F1F1" height="200.5433" id="APIHandler" rx="2.5" ry="2.5" style="stroke:#181818;stroke-width:0.5;" width="394.2406" x="1431.88" y="584.762"/><ellipse cx="1587.2794" cy="600.762" fill="#7FFFD4" rx="11" ry="11" style="stroke:#181818;stroke-width:1;"/><path d="M1586.4044,607.4339 Q1585.4044,607.4339 1584.4513,607.2464 Q1583.4982,607.0589 1582.7169,606.6839 L1582.7169,604.512 Q1583.8107,604.9964 1584.6701,605.2151 Q1585.5451,605.4339 1586.4357,605.4339 Q1587.2326,605.4339 1587.7326,605.2307 Q1588.2326,605.0276 1588.4669,604.6526 Q1588.7013,604.262 1588.7013,603.6526 Q1588.7013,603.1839 1588.5138,602.9339 Q1588.3419,602.6682 1587.7794,602.3714 Q1587.2169,602.0745 1586.1388,601.6057 Q1585.4044,601.2776 1584.6857,600.8557 Q1583.9669,600.4339 1583.4826,599.7151 Q1582.9982,598.9964 1582.9982,597.8401 Q1582.9982,596.6839 1583.5138,595.887 Q1584.0451,595.0745 1584.9826,594.6682 Q1585.9357,594.262 1587.2169,594.262 Q1588.1857,594.262 1589.0294,594.4651 Q1589.8732,594.6682 1590.8107,595.1214 L1590.0763,597.0276 Q1589.2013,596.6214 1588.5138,596.4651 Q1587.8419,596.3089 1587.1857,596.3089 Q1586.5763,596.3089 1586.1388,596.4651 Q1585.7013,596.6214 1585.4669,596.9651 Q1585.2482,597.2932 1585.2482,597.8714 Q1585.2482,598.3557 1585.4357,598.6526 Q1585.6388,598.9495 1586.1232,599.2151 Q1586.6232,599.4651 1587.4826,599.8401 Q1588.4669,600.2464 1589.2326,600.6839 Q1590.0138,601.1214 1590.4826,601.8245 Q1590.9669,602.512 1590.9669,603.6682 Q1590.9669,604.5432 1590.6701,605.262 Q1590.3732,605.9651 1589.7794,606.4651 Q1589.1857,606.9495 1588.3419,607.1995 Q1587.4982,607.4339 1586.4044,607.4339 Z " fill="#000000"/><text fill="#000000" font-family="sans-serif" font-size="14" lengthAdjust="spacing" textLength="74.9417" x="1607.7794" y="606.194">APIHandler</text><line style="stroke:#181818;stroke-width:0.5;" x1="1432.88" x2="1825.1206" y1="616.762" y2="616.762"/><ellipse cx="1442.88" cy="631.7959" fill="transparent" rx="3" ry="3" style="stroke:#038048;stroke-width:1;"/><text fill="#000000" font-family="sans-serif" font-size="14" lengthAdjust="spacing" textLength="150.1354" x="1451.88" y="635.7279">DaoService DaoService</text><line style="stroke:#181818;stroke-width:0.5;" x1="1432.88" x2="1825.1206" y1="643.8299" y2="643.8299"/><ellipse cx="1442.88" cy="658.8639" fill="#84BE84" rx="3" ry="3" style="stroke:#038048;stroke-width:1;"/><text fill="#000000" font-family="sans-serif" font-size="14" lengthAdjust="spacing" textLength="105.5316" x="1451.88" y="662.7958">GetService() any</text><ellipse cx="1442.88" cy="677.9318" fill="#84BE84" rx="3" ry="3" style="stroke:#038048;stroke-width:1;"/><text fill="#000000" font-family="sans-serif" font-size="14" lengthAdjust="spacing" textLength="223.4251" x="1451.88" y="681.8638">SearchByKeyValue(c *gin.Context)</text><ellipse cx="1442.88" cy="696.9997" fill="#84BE84" rx="3" ry="3" style="stroke:#038048;stroke-width:1;"/><text fill="#000000" font-family="sans-serif" font-size="14" lengthAdjust="spacing" textLength="145.8094" x="1451.88" y="700.9317">Create(c *gin.Context)</text><ellipse cx="1442.88" cy="716.0676" fill="#84BE84" rx="3" ry="3" style="stroke:#038048;stroke-width:1;"/><text fill="#000000" font-family="sans-serif" font-size="14" lengthAdjust="spacing" textLength="135.5475" x="1451.88" y="719.9996">Read(c *gin.Context)</text><ellipse cx="1442.88" cy="735.1355" fill="#84BE84" rx="3" ry="3" style="stroke:#038048;stroke-width:1;"/><text fill="#000000" font-family="sans-serif" font-size="14" lengthAdjust="spacing" textLength="150.7374" x="1451.88" y="739.0675">Update(c *gin.Context)</text><ellipse cx="1442.88" cy="754.2034" fill="#84BE84" rx="3" ry="3" style="stroke:#038048;stroke-width:1;"/><text fill="#000000" font-family="sans-serif" font-size="14" lengthAdjust="spacing" textLength="145.0534" x="1451.88" y="758.1354">Delete(c *gin.Context)</text><ellipse cx="1442.88" cy="773.2714" fill="#84BE84" rx="3" ry="3" style="stroke:#038048;stroke-width:1;"/><text fill="#000000" font-family="sans-serif" font-size="14" lengthAdjust="spacing" textLength="174.5233" x="1451.88" y="777.2033">GetRouterGroups() (string,</text><text fill="#0000FF" font-family="sans-serif" font-size="14" lengthAdjust="spacing" textLength="29.5539" x="1630.0433" y="777.2033">map</text><text fill="#000000" font-family="sans-serif" font-size="14" lengthAdjust="spacing" textLength="160.5234" x="1659.5972" y="777.2033">[string]gin.HandlerFunc)</text></g><!--class DaoService--><g id="elem_DaoService"><rect codeLine="88" fill="#F1F1F1" height="219.6113" id="DaoService" rx="2.5" ry="2.5" style="stroke:#181818;stroke-width:0.5;" width="460.0123" x="1860.99" y="295.612"/><ellipse cx="2050.1223" cy="311.612" fill="#7FFFD4" rx="11" ry="11" style="stroke:#181818;stroke-width:1;"/><path d="M2049.2473,318.2839 Q2048.2473,318.2839 2047.2942,318.0964 Q2046.341,317.9089 2045.5598,317.5339 L2045.5598,315.362 Q2046.6535,315.8464 2047.5129,316.0651 Q2048.3879,316.2839 2049.2785,316.2839 Q2050.0754,316.2839 2050.5754,316.0807 Q2051.0754,315.8776 2051.3098,315.5026 Q2051.5442,315.112 2051.5442,314.5026 Q2051.5442,314.0339 2051.3567,313.7839 Q2051.1848,313.5182 2050.6223,313.2214 Q2050.0598,312.9245 2048.9817,312.4557 Q2048.2473,312.1276 2047.5285,311.7057 Q2046.8098,311.2839 2046.3254,310.5651 Q2045.841,309.8464 2045.841,308.6901 Q2045.841,307.5339 2046.3567,306.737 Q2046.8879,305.9245 2047.8254,305.5182 Q2048.7785,305.112 2050.0598,305.112 Q2051.0285,305.112 2051.8723,305.3151 Q2052.716,305.5182 2053.6535,305.9714 L2052.9192,307.8776 Q2052.0442,307.4714 2051.3567,307.3151 Q2050.6848,307.1589 2050.0285,307.1589 Q2049.4192,307.1589 2048.9817,307.3151 Q2048.5442,307.4714 2048.3098,307.8151 Q2048.091,308.1432 2048.091,308.7214 Q2048.091,309.2057 2048.2785,309.5026 Q2048.4817,309.7995 2048.966,310.0651 Q2049.466,310.3151 2050.3254,310.6901 Q2051.3098,311.0964 2052.0754,311.5339 Q2052.8567,311.9714 2053.3254,312.6745 Q2053.8098,313.362 2053.8098,314.5182 Q2053.8098,315.3932 2053.5129,316.112 Q2053.216,316.8151 2052.6223,317.3151 Q2052.0285,317.7995 2051.1848,318.0495 Q2050.341,318.2839 2049.2473,318.2839 Z " fill="#000000"/><text fill="#000000" font-family="sans-serif" font-size="14" lengthAdjust="spacing" textLength="73.2477" x="2070.6223" y="317.044">DaoService</text><line style="stroke:#181818;stroke-width:0.5;" x1="1861.99" x2="2320.0023" y1="327.612" y2="327.612"/><rect fill="transparent" height="6" style="stroke:#C82930;stroke-width:1;" width="6" x="1868.99" y="339.6459"/><text fill="#000000" font-family="sans-serif" font-size="14" lengthAdjust="spacing" textLength="87.3597" x="1880.99" y="346.5779">dao dao.DAO</text><line style="stroke:#181818;stroke-width:0.5;" x1="1861.99" x2="2320.0023" y1="354.6799" y2="354.6799"/><ellipse cx="1871.99" cy="369.7139" fill="#84BE84" rx="3" ry="3" style="stroke:#038048;stroke-width:1;"/><text fill="#000000" font-family="sans-serif" font-size="14" lengthAdjust="spacing" textLength="152.5854" x="1880.99" y="373.6458">New(dao dao.DAO) any</text><ellipse cx="1871.99" cy="388.7818" fill="#84BE84" rx="3" ry="3" style="stroke:#038048;stroke-width:1;"/><text fill="#000000" font-family="sans-serif" font-size="14" lengthAdjust="spacing" textLength="434.0123" x="1880.99" y="392.7138">SearchByKeyValue(key string, value string) ([]dao.MetaData, error)</text><ellipse cx="1871.99" cy="407.8497" fill="#84BE84" rx="3" ry="3" style="stroke:#038048;stroke-width:1;"/><text fill="#000000" font-family="sans-serif" font-size="14" lengthAdjust="spacing" textLength="286.3129" x="1880.99" y="411.7817">Connect(params dao.ConnectParams) error</text><ellipse cx="1871.99" cy="426.9176" fill="#84BE84" rx="3" ry="3" style="stroke:#038048;stroke-width:1;"/><text fill="#000000" font-family="sans-serif" font-size="14" lengthAdjust="spacing" textLength="118.4535" x="1880.99" y="430.8496">Disconnect() error</text><ellipse cx="1871.99" cy="445.9855" fill="#84BE84" rx="3" ry="3" style="stroke:#038048;stroke-width:1;"/><text fill="#000000" font-family="sans-serif" font-size="14" lengthAdjust="spacing" textLength="213.9612" x="1880.99" y="449.9175">Create(doc dao.Document) error</text><ellipse cx="1871.99" cy="465.0534" fill="#84BE84" rx="3" ry="3" style="stroke:#038048;stroke-width:1;"/><text fill="#000000" font-family="sans-serif" font-size="14" lengthAdjust="spacing" textLength="433.9143" x="1880.99" y="468.9854">Read(doc *dao.Document, uuid uuid.UUID) (dao.Document, error)</text><ellipse cx="1871.99" cy="484.1214" fill="#84BE84" rx="3" ry="3" style="stroke:#038048;stroke-width:1;"/><text fill="#000000" font-family="sans-serif" font-size="14" lengthAdjust="spacing" textLength="218.8892" x="1880.99" y="488.0533">Update(doc dao.Document) error</text><ellipse cx="1871.99" cy="503.1893" fill="#84BE84" rx="3" ry="3" style="stroke:#038048;stroke-width:1;"/><text fill="#000000" font-family="sans-serif" font-size="14" lengthAdjust="spacing" textLength="172.8993" x="1880.99" y="507.1213">Delete(id uuid.UUID) error</text></g><!--class Handler--><g id="elem_Handler"><rect codeLine="101" fill="#F1F1F1" height="86.1358" id="Handler" rx="2.5" ry="2.5" style="stroke:#181818;stroke-width:0.5;" width="394.2406" x="1431.88" y="362.352"/><ellipse cx="1599.8234" cy="378.352" fill="#B4A7E5" rx="11" ry="11" style="stroke:#181818;stroke-width:1;"/><path d="M1596.1984,384.852 L1596.1984,383.1489 L1598.6359,382.9145 L1598.6359,373.9614 L1596.1984,373.7426 L1596.1984,372.0239 L1603.339,372.0239 L1603.339,373.7426 L1600.8546,373.9614 L1600.8546,382.9145 L1603.339,383.1489 L1603.339,384.852 L1596.1984,384.852 Z " fill="#000000"/><text fill="#000000" font-family="sans-serif" font-size="14" font-style="italic" lengthAdjust="spacing" textLength="49.8538" x="1620.3234" y="383.784">Handler</text><line style="stroke:#181818;stroke-width:0.5;" x1="1432.88" x2="1825.1206" y1="394.352" y2="394.352"/><line style="stroke:#181818;stroke-width:0.5;" x1="1432.88" x2="1825.1206" y1="402.352" y2="402.352"/><ellipse cx="1442.88" cy="417.3859" fill="#84BE84" rx="3" ry="3" style="stroke:#038048;stroke-width:1;"/><text fill="#000000" font-family="sans-serif" font-size="14" lengthAdjust="spacing" textLength="174.5233" x="1451.88" y="421.3179">GetRouterGroups() (string,</text><text fill="#0000FF" font-family="sans-serif" font-size="14" lengthAdjust="spacing" textLength="29.5539" x="1630.0433" y="421.3179">map</text><text fill="#000000" font-family="sans-serif" font-size="14" lengthAdjust="spacing" textLength="160.5234" x="1659.5972" y="421.3179">[string]gin.HandlerFunc)</text><ellipse cx="1442.88" cy="436.4539" fill="#84BE84" rx="3" ry="3" style="stroke:#038048;stroke-width:1;"/><text fill="#000000" font-family="sans-serif" font-size="14" lengthAdjust="spacing" textLength="105.5316" x="1451.88" y="440.3858">GetService() any</text></g><!--class RequestBody--><g id="elem_RequestBody"><rect codeLine="106" fill="#F1F1F1" height="67.0679" id="RequestBody" rx="2.5" ry="2.5" style="stroke:#181818;stroke-width:0.5;" width="118.8417" x="1277.58" y="371.882"/><ellipse cx="1292.58" cy="387.882" fill="#7FFFD4" rx="11" ry="11" style="stroke:#181818;stroke-width:1;"/><path d="M1291.705,394.5539 Q1290.705,394.5539 1289.7519,394.3664 Q1288.7988,394.1789 1288.0175,393.8039 L1288.0175,391.632 Q1289.1113,392.1164 1289.9706,392.3351 Q1290.8456,392.5539 1291.7363,392.5539 Q1292.5331,392.5539 1293.0331,392.3507 Q1293.5331,392.1476 1293.7675,391.7726 Q1294.0019,391.382 1294.0019,390.7726 Q1294.0019,390.3039 1293.8144,390.0539 Q1293.6425,389.7882 1293.08,389.4914 Q1292.5175,389.1945 1291.4394,388.7257 Q1290.705,388.3976 1289.9863,387.9757 Q1289.2675,387.5539 1288.7831,386.8351 Q1288.2988,386.1164 1288.2988,384.9601 Q1288.2988,383.8039 1288.8144,383.007 Q1289.3456,382.1945 1290.2831,381.7882 Q1291.2363,381.382 1292.5175,381.382 Q1293.4863,381.382 1294.33,381.5851 Q1295.1738,381.7882 1296.1113,382.2414 L1295.3769,384.1476 Q1294.5019,383.7414 1293.8144,383.5851 Q1293.1425,383.4289 1292.4863,383.4289 Q1291.8769,383.4289 1291.4394,383.5851 Q1291.0019,383.7414 1290.7675,384.0851 Q1290.5488,384.4132 1290.5488,384.9914 Q1290.5488,385.4757 1290.7363,385.7726 Q1290.9394,386.0695 1291.4238,386.3351 Q1291.9238,386.5851 1292.7831,386.9601 Q1293.7675,387.3664 1294.5331,387.8039 Q1295.3144,388.2414 1295.7831,388.9445 Q1296.2675,389.632 1296.2675,390.7882 Q1296.2675,391.6632 1295.9706,392.382 Q1295.6738,393.0851 1295.08,393.5851 Q1294.4863,394.0695 1293.6425,394.3195 Q1292.7988,394.5539 1291.705,394.5539 Z " fill="#000000"/><text fill="#000000" font-family="sans-serif" font-size="14" lengthAdjust="spacing" textLength="86.8417" x="1306.58" y="393.314">RequestBody</text><line style="stroke:#181818;stroke-width:0.5;" x1="1278.58" x2="1395.4217" y1="403.882" y2="403.882"/><ellipse cx="1288.58" cy="418.9159" fill="transparent" rx="3" ry="3" style="stroke:#038048;stroke-width:1;"/><text fill="#000000" font-family="sans-serif" font-size="14" lengthAdjust="spacing" textLength="73.1217" x="1297.58" y="422.8479">Udid string</text><line style="stroke:#181818;stroke-width:0.5;" x1="1278.58" x2="1395.4217" y1="430.9499" y2="430.9499"/></g><!--class Service--><g id="elem_Service"><rect codeLine="110" fill="#F1F1F1" height="67.0679" id="Service" rx="2.5" ry="2.5" style="stroke:#181818;stroke-width:0.5;" width="118.5116" x="1123.74" y="371.882"/><ellipse cx="1158.2726" cy="387.882" fill="#B4A7E5" rx="11" ry="11" style="stroke:#181818;stroke-width:1;"/><path d="M1154.6476,394.382 L1154.6476,392.6789 L1157.0851,392.4445 L1157.0851,383.4914 L1154.6476,383.2726 L1154.6476,381.5539 L1161.7882,381.5539 L1161.7882,383.2726 L1159.3038,383.4914 L1159.3038,392.4445 L1161.7882,392.6789 L1161.7882,394.382 L1154.6476,394.382 Z " fill="#000000"/><text fill="#000000" font-family="sans-serif" font-size="14" font-style="italic" lengthAdjust="spacing" textLength="43.1059" x="1176.6132" y="393.314">Service</text><line style="stroke:#181818;stroke-width:0.5;" x1="1124.74" x2="1241.2516" y1="403.882" y2="403.882"/><line style="stroke:#181818;stroke-width:0.5;" x1="1124.74" x2="1241.2516" y1="411.882" y2="411.882"/><ellipse cx="1134.74" cy="426.9159" fill="#84BE84" rx="3" ry="3" style="stroke:#038048;stroke-width:1;"/><text fill="#000000" font-family="sans-serif" font-size="14" lengthAdjust="spacing" textLength="92.5116" x="1143.74" y="430.8479">New( any) any</text></g><!--reverse link ConnectParams to BoltConnectionParams--><g id="link_ConnectParams_BoltConnectionParams"><path codeLine="71" d="M530.2595,187.1343 C526.2395,230.2643 520.77,288.892 515.73,342.932 " fill="transparent" id="ConnectParams-backto-BoltConnectionParams" style="stroke:#181818;stroke-width:1;"/><polygon fill="transparent" points="531.93,169.212,524.2854,186.5775,536.2336,187.6911,531.93,169.212" style="stroke:#181818;stroke-width:1;"/></g><!--reverse link DAO to BoltDao--><g id="link_DAO_BoltDao"><path codeLine="72" d="M852,244.352 C852,269.602 852,279.202 852,304.962 " fill="transparent" id="DAO-backto-BoltDao" style="stroke:#181818;stroke-width:1;"/><polygon fill="transparent" points="852,226.352,846,244.352,858,244.352,852,226.352" style="stroke:#181818;stroke-width:1;"/></g><!--reverse link Document to Notes--><g id="link_Document_Notes"><path codeLine="73" d="M294.1365,243.8151 C289.3865,262.8251 288.67,265.712 283.7,285.602 " fill="transparent" id="Document-backto-Notes" style="stroke:#181818;stroke-width:1;"/><polygon fill="transparent" points="298.5,226.352,288.3155,242.3606,299.9576,245.2696,298.5,226.352" style="stroke:#181818;stroke-width:1;"/></g><!--reverse link Handler to APIHandler--><g id="link_Handler_APIHandler"><path codeLine="116" d="M1629,466.882 C1629,502.882 1629,537.942 1629,584.542 " fill="transparent" id="Handler-backto-APIHandler" style="stroke:#181818;stroke-width:1;"/><polygon fill="transparent" points="1629,448.882,1623,466.882,1635,466.882,1629,448.882" style="stroke:#181818;stroke-width:1;"/></g><!--reverse link DAO to DaoService--><g id="link_DAO_DaoService"><path codeLine="117" d="M1085.9759,151.0519 C1333.6659,168.4319 1705.4,201.092 1844,249.612 C1876.6,261.022 1909.37,277.362 1939.91,295.172 " fill="transparent" id="DAO-backto-DaoService" style="stroke:#181818;stroke-width:1;"/><polygon fill="transparent" points="1068.02,149.792,1085.5559,157.0372,1086.3958,145.0666,1068.02,149.792" style="stroke:#181818;stroke-width:1;"/></g><!--SRC=[hLPHKzim37xFh_3rAMLjzmUwthNaODm6z2ZbXUF1ZKMRMng7s67hRVptoOcTEd4k6MLz8LYI9NsIFZcXUn0f3O4moiblZ-0lZAaGPC5ZUSwJ148PyMH9CxeNP3eb_ceqVydfdcPH0aCocsahzVj4bbJkY90esrgdrvm1UHQJYoW6zMs9RbCfoDa6dKtm4pq9hvAEoHPawTaV4feSIj5R8ye08-y9R4pOHdi95fxbNcVeXwdvBFqD2MGPpopD81AXLdQ5vnbG2JxZ8GbucEyXaQxI7L1Mg9mPdH696CdpY4tMwwjWIFoZe30UMjRhbFMx2206LAhVsbHQ0St2tUBm3GuFDCx1_m47NRCHULKd-ZyCwF7f6YGDgAHLI5ODeaH2zgowfmOUgI7VKSEZVJ2_9RL6qeZsmMbZ-Qz8VZ1_foJzzUYgXkd04_gl7KaTJ1tEIv3taOm1RPtfN1bPbNRJDreR6F02yrc_ebAevAttO9OIezEzKBl1Y9IarVOgGBCAIfSCZED-cYhoTP6OvtB7C_TycM_YIEpmxXQZxrJ8iXEOArICTtz8MypMkJsbRZ8tN88uEHC51LDGj1HBusoCtjibqlBumLRPWnNXgUqIwdJUrpLldZV0bJUfJTs0JF-CnwGGjEs_GMc3PDNKn1raX7h-R8sYbWFFIwfjAo1xZV2llN7dowklD64nPFrbHtyhVSNnir5AVTg2NOF_S2DjesHI0FeBMSobuGwDWeOxv9eaEpGqINPeO39tF4U6kynudgf5uXk-dZwZFWbvpBCl6qncjgVfzBCwd3sMEa_gLWtiHPw4GtVMB3Jx7nBusj1DOEDz0pzzIzIBUUVEKPTqx1spCj9ospfjVFhZnMxWhWUChJSgXgksVElYhgTCjyEEvqphxZFZqrnz_xDvEaRCwQixUCb1o0LdX_wHNhE8rJYvcPrfqPgLwhkI-gm85BbfXZ716peonqUoSKdDw1p7Ok3z1G00]--></g></svg>