<svg xmlns="http://www.w3.org/2000/svg" xmlns:xlink="http://www.w3.org/1999/xlink" contentStyleType="text/css" data-diagram-type="CLASS" height="547px" preserveAspectRatio="none" style="width:1091px;height:547px;background:#FFFFFF;" version="1.1" viewBox="0 0 1091 547" width="1091px" zoomAndPan="magnify"><defs/><g><!--cluster dao--><g id="cluster_dao"><path d="M8.5,6.602 L34.4339,6.602 A3.75,3.75 0 0 1 36.9339,9.102 L43.9339,31.6699 L1081.5,31.6699 A2.5,2.5 0 0 1 1084,34.1699 L1084,538.252 A2.5,2.5 0 0 1 1081.5,540.752 L8.5,540.752 A2.5,2.5 0 0 1 6,538.252 L6,9.102 A2.5,2.5 0 0 1 8.5,6.602 " fill="transparent" style="stroke:#000000;stroke-width:1.5;"/><line style="stroke:#000000;stroke-width:1.5;" x1="6" x2="43.9339" y1="31.6699" y2="31.6699"/><text fill="#000000" font-family="sans-serif" font-size="14" font-weight="bold" lengthAdjust="spacing" textLength="24.9339" x="10" y="23.5679">dao</text></g><!--class BoltConnectionParams--><g id="elem_BoltConnectionParams"><rect codeLine="2" fill="#F1F1F1" height="124.2717" id="BoltConnectionParams" rx="2.5" ry="2.5" style="stroke:#181818;stroke-width:0.5;" width="183.0174" x="884.49" y="343.272"/><ellipse cx="899.49" cy="359.272" fill="#7FFFD4" rx="11" ry="11" style="stroke:#181818;stroke-width:1;"/><path d="M898.615,365.9439 Q897.615,365.9439 896.6619,365.7564 Q895.7088,365.5689 894.9275,365.1939 L894.9275,363.022 Q896.0213,363.5064 896.8806,363.7251 Q897.7556,363.9439 898.6463,363.9439 Q899.4431,363.9439 899.9431,363.7407 Q900.4431,363.5376 900.6775,363.1626 Q900.9119,362.772 900.9119,362.1626 Q900.9119,361.6939 900.7244,361.4439 Q900.5525,361.1782 899.99,360.8814 Q899.4275,360.5845 898.3494,360.1157 Q897.615,359.7876 896.8963,359.3657 Q896.1775,358.9439 895.6931,358.2251 Q895.2088,357.5064 895.2088,356.3501 Q895.2088,355.1939 895.7244,354.397 Q896.2556,353.5845 897.1931,353.1782 Q898.1463,352.772 899.4275,352.772 Q900.3963,352.772 901.24,352.9751 Q902.0838,353.1782 903.0213,353.6314 L902.2869,355.5376 Q901.4119,355.1314 900.7244,354.9751 Q900.0525,354.8189 899.3963,354.8189 Q898.7869,354.8189 898.3494,354.9751 Q897.9119,355.1314 897.6775,355.4751 Q897.4588,355.8032 897.4588,356.3814 Q897.4588,356.8657 897.6463,357.1626 Q897.8494,357.4595 898.3338,357.7251 Q898.8338,357.9751 899.6931,358.3501 Q900.6775,358.7564 901.4431,359.1939 Q902.2244,359.6314 902.6931,360.3345 Q903.1775,361.022 903.1775,362.1782 Q903.1775,363.0532 902.8806,363.772 Q902.5838,364.4751 901.99,364.9751 Q901.3963,365.4595 900.5525,365.7095 Q899.7088,365.9439 898.615,365.9439 Z " fill="#000000"/><text fill="#000000" font-family="sans-serif" font-size="14" lengthAdjust="spacing" textLength="151.0174" x="913.49" y="364.704">BoltConnectionParams</text><line style="stroke:#181818;stroke-width:0.5;" x1="885.49" x2="1066.5074" y1="375.272" y2="375.272"/><rect fill="transparent" height="6" style="stroke:#C82930;stroke-width:1;" width="6" x="892.49" y="387.3059"/><text fill="#000000" font-family="sans-serif" font-size="14" lengthAdjust="spacing" textLength="72.2257" x="904.49" y="394.2379">path string</text><rect fill="transparent" height="6" style="stroke:#C82930;stroke-width:1;" width="6" x="892.49" y="406.3739"/><text fill="#000000" font-family="sans-serif" font-size="14" lengthAdjust="spacing" textLength="117.0396" x="904.49" y="413.3058">mode fs.FileMode</text><rect fill="transparent" height="6" style="stroke:#C82930;stroke-width:1;" width="6" x="892.49" y="425.4418"/><text fill="#000000" font-family="sans-serif" font-size="14" lengthAdjust="spacing" textLength="121.7296" x="904.49" y="432.3738">opts *bolt.Options</text><line style="stroke:#181818;stroke-width:0.5;" x1="885.49" x2="1066.5074" y1="440.4757" y2="440.4757"/><rect fill="#F24D5C" height="6" style="stroke:#C82930;stroke-width:1;" width="6" x="892.49" y="452.5097"/><text fill="#000000" font-family="sans-serif" font-size="14" lengthAdjust="spacing" textLength="107.0016" x="904.49" y="459.4417">getParams() any</text></g><!--class BoltDao--><g id="elem_BoltDao"><rect codeLine="10" fill="#F1F1F1" height="200.5433" id="BoltDao" rx="2.5" ry="2.5" style="stroke:#181818;stroke-width:0.5;" width="431.3264" x="418.34" y="305.142"/><ellipse cx="603.3633" cy="321.142" fill="#7FFFD4" rx="11" ry="11" style="stroke:#181818;stroke-width:1;"/><path d="M602.4883,327.8139 Q601.4883,327.8139 600.5352,327.6264 Q599.5821,327.4389 598.8008,327.0639 L598.8008,324.892 Q599.8946,325.3764 600.7539,325.5951 Q601.6289,325.8139 602.5196,325.8139 Q603.3164,325.8139 603.8164,325.6107 Q604.3164,325.4076 604.5508,325.0326 Q604.7852,324.642 604.7852,324.0326 Q604.7852,323.5639 604.5977,323.3139 Q604.4258,323.0482 603.8633,322.7514 Q603.3008,322.4545 602.2227,321.9857 Q601.4883,321.6576 600.7696,321.2357 Q600.0508,320.8139 599.5664,320.0951 Q599.0821,319.3764 599.0821,318.2201 Q599.0821,317.0639 599.5977,316.267 Q600.1289,315.4545 601.0664,315.0482 Q602.0196,314.642 603.3008,314.642 Q604.2696,314.642 605.1133,314.8451 Q605.9571,315.0482 606.8946,315.5014 L606.1602,317.4076 Q605.2852,317.0014 604.5977,316.8451 Q603.9258,316.6889 603.2696,316.6889 Q602.6602,316.6889 602.2227,316.8451 Q601.7852,317.0014 601.5508,317.3451 Q601.3321,317.6732 601.3321,318.2514 Q601.3321,318.7357 601.5196,319.0326 Q601.7227,319.3295 602.2071,319.5951 Q602.7071,319.8451 603.5664,320.2201 Q604.5508,320.6264 605.3164,321.0639 Q606.0977,321.5014 606.5664,322.2045 Q607.0508,322.892 607.0508,324.0482 Q607.0508,324.9232 606.7539,325.642 Q606.4571,326.3451 605.8633,326.8451 Q605.2696,327.3295 604.4258,327.5795 Q603.5821,327.8139 602.4883,327.8139 Z " fill="#000000"/><text fill="#000000" font-family="sans-serif" font-size="14" lengthAdjust="spacing" textLength="52.7798" x="623.8633" y="326.574">BoltDao</text><line style="stroke:#181818;stroke-width:0.5;" x1="419.34" x2="848.6664" y1="337.142" y2="337.142"/><rect fill="transparent" height="6" style="stroke:#C82930;stroke-width:1;" width="6" x="426.34" y="349.1759"/><text fill="#000000" font-family="sans-serif" font-size="14" lengthAdjust="spacing" textLength="77.3917" x="438.34" y="356.1079">db *bolt.DB</text><line style="stroke:#181818;stroke-width:0.5;" x1="419.34" x2="848.6664" y1="364.2099" y2="364.2099"/><ellipse cx="429.34" cy="379.2439" fill="#84BE84" rx="3" ry="3" style="stroke:#038048;stroke-width:1;"/><text fill="#000000" font-family="sans-serif" font-size="14" lengthAdjust="spacing" textLength="185.2753" x="438.34" y="383.1758">Create(doc Document) error</text><ellipse cx="429.34" cy="398.3118" fill="#84BE84" rx="3" ry="3" style="stroke:#038048;stroke-width:1;"/><text fill="#000000" font-family="sans-serif" font-size="14" lengthAdjust="spacing" textLength="405.3264" x="438.34" y="402.2438">SearchByKeyValue(key string, value string) ([]MetaData, error)</text><ellipse cx="429.34" cy="417.3797" fill="#84BE84" rx="3" ry="3" style="stroke:#038048;stroke-width:1;"/><text fill="#000000" font-family="sans-serif" font-size="14" lengthAdjust="spacing" textLength="359.2386" x="438.34" y="421.3117">Read(doc *Document, id uuid.UUID) (Document, error)</text><ellipse cx="429.34" cy="436.4476" fill="#84BE84" rx="3" ry="3" style="stroke:#038048;stroke-width:1;"/><text fill="#000000" font-family="sans-serif" font-size="14" lengthAdjust="spacing" textLength="190.2033" x="438.34" y="440.3796">Update(doc Document) error</text><ellipse cx="429.34" cy="455.5155" fill="#84BE84" rx="3" ry="3" style="stroke:#038048;stroke-width:1;"/><text fill="#000000" font-family="sans-serif" font-size="14" lengthAdjust="spacing" textLength="172.8993" x="438.34" y="459.4475">Delete(id uuid.UUID) error</text><ellipse cx="429.34" cy="474.5834" fill="#84BE84" rx="3" ry="3" style="stroke:#038048;stroke-width:1;"/><text fill="#000000" font-family="sans-serif" font-size="14" lengthAdjust="spacing" textLength="223.0611" x="438.34" y="478.5154">Connect(cp ConnectParams) error</text><ellipse cx="429.34" cy="493.6514" fill="#84BE84" rx="3" ry="3" style="stroke:#038048;stroke-width:1;"/><text fill="#000000" font-family="sans-serif" font-size="14" lengthAdjust="spacing" textLength="118.4535" x="438.34" y="497.5833">Disconnect() error</text></g><!--class ConnectParams--><g id="elem_ConnectParams"><rect codeLine="22" fill="#F1F1F1" height="67.0679" id="ConnectParams" rx="2.5" ry="2.5" style="stroke:#181818;stroke-width:0.5;" width="133.0016" x="934.5" y="101.802"/><ellipse cx="950.8509" cy="117.802" fill="#B4A7E5" rx="11" ry="11" style="stroke:#181818;stroke-width:1;"/><path d="M947.2259,124.302 L947.2259,122.5989 L949.6634,122.3645 L949.6634,113.4114 L947.2259,113.1926 L947.2259,111.4739 L954.3665,111.4739 L954.3665,113.1926 L951.8821,113.4114 L951.8821,122.3645 L954.3665,122.5989 L954.3665,124.302 L947.2259,124.302 Z " fill="#000000"/><text fill="#000000" font-family="sans-serif" font-size="14" font-style="italic" lengthAdjust="spacing" textLength="97.9996" x="965.1511" y="123.234">ConnectParams</text><line style="stroke:#181818;stroke-width:0.5;" x1="935.5" x2="1066.5016" y1="133.802" y2="133.802"/><line style="stroke:#181818;stroke-width:0.5;" x1="935.5" x2="1066.5016" y1="141.802" y2="141.802"/><rect fill="#F24D5C" height="6" style="stroke:#C82930;stroke-width:1;" width="6" x="942.5" y="153.8359"/><text fill="#000000" font-family="sans-serif" font-size="14" lengthAdjust="spacing" textLength="107.0016" x="954.5" y="160.7679">getParams() any</text></g><!--class DAO--><g id="elem_DAO"><rect codeLine="26" fill="#F1F1F1" height="181.4754" id="DAO" rx="2.5" ry="2.5" style="stroke:#181818;stroke-width:0.5;" width="431.3264" x="468.34" y="44.602"/><ellipse cx="666.1033" cy="60.602" fill="#B4A7E5" rx="11" ry="11" style="stroke:#181818;stroke-width:1;"/><path d="M662.4783,67.102 L662.4783,65.3989 L664.9158,65.1645 L664.9158,56.2114 L662.4783,55.9926 L662.4783,54.2739 L669.6189,54.2739 L669.6189,55.9926 L667.1345,56.2114 L667.1345,65.1645 L669.6189,65.3989 L669.6189,67.102 L662.4783,67.102 Z " fill="#000000"/><text fill="#000000" font-family="sans-serif" font-size="14" font-style="italic" lengthAdjust="spacing" textLength="27.2999" x="686.6033" y="66.034">DAO</text><line style="stroke:#181818;stroke-width:0.5;" x1="469.34" x2="898.6664" y1="76.602" y2="76.602"/><line style="stroke:#181818;stroke-width:0.5;" x1="469.34" x2="898.6664" y1="84.602" y2="84.602"/><ellipse cx="479.34" cy="99.6359" fill="#84BE84" rx="3" ry="3" style="stroke:#038048;stroke-width:1;"/><text fill="#000000" font-family="sans-serif" font-size="14" lengthAdjust="spacing" textLength="161.4754" x="488.34" y="103.5679">Create( Document) error</text><ellipse cx="479.34" cy="118.7039" fill="#84BE84" rx="3" ry="3" style="stroke:#038048;stroke-width:1;"/><text fill="#000000" font-family="sans-serif" font-size="14" lengthAdjust="spacing" textLength="323.2167" x="488.34" y="122.6358">Read( *Document,  uuid.UUID) (Document, error)</text><ellipse cx="479.34" cy="137.7718" fill="#84BE84" rx="3" ry="3" style="stroke:#038048;stroke-width:1;"/><text fill="#000000" font-family="sans-serif" font-size="14" lengthAdjust="spacing" textLength="405.3264" x="488.34" y="141.7038">SearchByKeyValue(key string, value string) ([]MetaData, error)</text><ellipse cx="479.34" cy="156.8397" fill="#84BE84" rx="3" ry="3" style="stroke:#038048;stroke-width:1;"/><text fill="#000000" font-family="sans-serif" font-size="14" lengthAdjust="spacing" textLength="166.4034" x="488.34" y="160.7717">Update( Document) error</text><ellipse cx="479.34" cy="175.9076" fill="#84BE84" rx="3" ry="3" style="stroke:#038048;stroke-width:1;"/><text fill="#000000" font-family="sans-serif" font-size="14" lengthAdjust="spacing" textLength="160.6774" x="488.34" y="179.8396">Delete( uuid.UUID) error</text><ellipse cx="479.34" cy="194.9755" fill="#84BE84" rx="3" ry="3" style="stroke:#038048;stroke-width:1;"/><text fill="#000000" font-family="sans-serif" font-size="14" lengthAdjust="spacing" textLength="207.7312" x="488.34" y="198.9075">Connect( ConnectParams) error</text><ellipse cx="479.34" cy="214.0434" fill="#84BE84" rx="3" ry="3" style="stroke:#038048;stroke-width:1;"/><text fill="#000000" font-family="sans-serif" font-size="14" lengthAdjust="spacing" textLength="118.4535" x="488.34" y="217.9754">Disconnect() error</text></g><!--class Document--><g id="elem_Document"><rect codeLine="36" fill="#F1F1F1" height="181.4754" id="Document" rx="2.5" ry="2.5" style="stroke:#181818;stroke-width:0.5;" width="224.9953" x="208.5" y="44.602"/><ellipse cx="284.9187" cy="60.602" fill="#B4A7E5" rx="11" ry="11" style="stroke:#181818;stroke-width:1;"/><path d="M281.2937,67.102 L281.2937,65.3989 L283.7312,65.1645 L283.7312,56.2114 L281.2937,55.9926 L281.2937,54.2739 L288.4344,54.2739 L288.4344,55.9926 L285.95,56.2114 L285.95,65.1645 L288.4344,65.3989 L288.4344,67.102 L281.2937,67.102 Z " fill="#000000"/><text fill="#000000" font-family="sans-serif" font-size="14" font-style="italic" lengthAdjust="spacing" textLength="63.6578" x="305.4187" y="66.034">Document</text><line style="stroke:#181818;stroke-width:0.5;" x1="209.5" x2="432.4953" y1="76.602" y2="76.602"/><line style="stroke:#181818;stroke-width:0.5;" x1="209.5" x2="432.4953" y1="84.602" y2="84.602"/><ellipse cx="219.5" cy="99.6359" fill="#84BE84" rx="3" ry="3" style="stroke:#038048;stroke-width:1;"/><text fill="#000000" font-family="sans-serif" font-size="14" lengthAdjust="spacing" textLength="101.5556" x="228.5" y="103.5679">GetTitle() string</text><ellipse cx="219.5" cy="118.7039" fill="#84BE84" rx="3" ry="3" style="stroke:#038048;stroke-width:1;"/><text fill="#000000" font-family="sans-serif" font-size="14" lengthAdjust="spacing" textLength="136.4015" x="228.5" y="122.6358">SetTitle( string) error</text><ellipse cx="219.5" cy="137.7718" fill="#84BE84" rx="3" ry="3" style="stroke:#038048;stroke-width:1;"/><text fill="#000000" font-family="sans-serif" font-size="14" lengthAdjust="spacing" textLength="164.1494" x="228.5" y="141.7038">GetMetaData() MetaData</text><ellipse cx="219.5" cy="156.8397" fill="#84BE84" rx="3" ry="3" style="stroke:#038048;stroke-width:1;"/><text fill="#000000" font-family="sans-serif" font-size="14" lengthAdjust="spacing" textLength="198.9953" x="228.5" y="160.7717">SetMetaData( MetaData) error</text><ellipse cx="219.5" cy="175.9076" fill="#84BE84" rx="3" ry="3" style="stroke:#038048;stroke-width:1;"/><text fill="#000000" font-family="sans-serif" font-size="14" lengthAdjust="spacing" textLength="111.4536" x="228.5" y="179.8396">GetContent() any</text><ellipse cx="219.5" cy="194.9755" fill="#84BE84" rx="3" ry="3" style="stroke:#038048;stroke-width:1;"/><text fill="#000000" font-family="sans-serif" font-size="14" lengthAdjust="spacing" textLength="146.2994" x="228.5" y="198.9075">SetContent( any) error</text><ellipse cx="219.5" cy="214.0434" fill="#84BE84" rx="3" ry="3" style="stroke:#038048;stroke-width:1;"/><text fill="#000000" font-family="sans-serif" font-size="14" lengthAdjust="spacing" textLength="118.8595" x="228.5" y="217.9754">GetID() uuid.UUID</text></g><!--class MetaData--><g id="elem_MetaData"><rect codeLine="46" fill="#F1F1F1" height="162.4075" id="MetaData" rx="2.5" ry="2.5" style="stroke:#181818;stroke-width:0.5;" width="151.8736" x="22.06" y="54.132"/><ellipse cx="61.9854" cy="70.132" fill="#7FFFD4" rx="11" ry="11" style="stroke:#181818;stroke-width:1;"/><path d="M61.1104,76.8039 Q60.1104,76.8039 59.1573,76.6164 Q58.2042,76.4289 57.4229,76.0539 L57.4229,73.882 Q58.5167,74.3664 59.376,74.5851 Q60.251,74.8039 61.1417,74.8039 Q61.9385,74.8039 62.4385,74.6007 Q62.9385,74.3976 63.1729,74.0226 Q63.4073,73.632 63.4073,73.0226 Q63.4073,72.5539 63.2198,72.3039 Q63.0479,72.0382 62.4854,71.7414 Q61.9229,71.4445 60.8448,70.9757 Q60.1104,70.6476 59.3917,70.2257 Q58.6729,69.8039 58.1885,69.0851 Q57.7042,68.3664 57.7042,67.2101 Q57.7042,66.0539 58.2198,65.257 Q58.751,64.4445 59.6885,64.0382 Q60.6417,63.632 61.9229,63.632 Q62.8917,63.632 63.7354,63.8351 Q64.5792,64.0382 65.5167,64.4914 L64.7823,66.3976 Q63.9073,65.9914 63.2198,65.8351 Q62.5479,65.6789 61.8917,65.6789 Q61.2823,65.6789 60.8448,65.8351 Q60.4073,65.9914 60.1729,66.3351 Q59.9542,66.6632 59.9542,67.2414 Q59.9542,67.7257 60.1417,68.0226 Q60.3448,68.3195 60.8292,68.5851 Q61.3292,68.8351 62.1885,69.2101 Q63.1729,69.6164 63.9385,70.0539 Q64.7198,70.4914 65.1885,71.1945 Q65.6729,71.882 65.6729,73.0382 Q65.6729,73.9132 65.376,74.632 Q65.0792,75.3351 64.4854,75.8351 Q63.8917,76.3195 63.0479,76.5695 Q62.2042,76.8039 61.1104,76.8039 Z " fill="#000000"/><text fill="#000000" font-family="sans-serif" font-size="14" lengthAdjust="spacing" textLength="64.4838" x="81.5244" y="75.564">MetaData</text><line style="stroke:#181818;stroke-width:0.5;" x1="23.06" x2="172.9336" y1="86.132" y2="86.132"/><ellipse cx="33.06" cy="101.1659" fill="transparent" rx="3" ry="3" style="stroke:#038048;stroke-width:1;"/><text fill="#000000" font-family="sans-serif" font-size="14" lengthAdjust="spacing" textLength="70.0137" x="42.06" y="105.0979">Title string</text><ellipse cx="33.06" cy="120.2339" fill="transparent" rx="3" ry="3" style="stroke:#038048;stroke-width:1;"/><text fill="#000000" font-family="sans-serif" font-size="14" lengthAdjust="spacing" textLength="87.6117" x="42.06" y="124.1658">Author string</text><ellipse cx="33.06" cy="139.3018" fill="transparent" rx="3" ry="3" style="stroke:#038048;stroke-width:1;"/><text fill="#000000" font-family="sans-serif" font-size="14" lengthAdjust="spacing" textLength="121.3935" x="42.06" y="143.2338">PublishDate string</text><ellipse cx="33.06" cy="158.3697" fill="transparent" rx="3" ry="3" style="stroke:#038048;stroke-width:1;"/><text fill="#000000" font-family="sans-serif" font-size="14" lengthAdjust="spacing" textLength="125.8736" x="42.06" y="162.3017">LastUpdated string</text><ellipse cx="33.06" cy="177.4376" fill="transparent" rx="3" ry="3" style="stroke:#038048;stroke-width:1;"/><text fill="#000000" font-family="sans-serif" font-size="14" lengthAdjust="spacing" textLength="95.8716" x="42.06" y="181.3696">FileType string</text><ellipse cx="33.06" cy="196.5055" fill="transparent" rx="3" ry="3" style="stroke:#038048;stroke-width:1;"/><text fill="#000000" font-family="sans-serif" font-size="14" lengthAdjust="spacing" textLength="103.4596" x="42.06" y="200.4375">Uuid uuid.UUID</text><line style="stroke:#181818;stroke-width:0.5;" x1="23.06" x2="172.9336" y1="208.5395" y2="208.5395"/></g><!--class Notes--><g id="elem_Notes"><rect codeLine="55" fill="#F1F1F1" height="238.6792" id="Notes" rx="2.5" ry="2.5" style="stroke:#181818;stroke-width:0.5;" width="258.8891" x="124.56" y="286.072"/><ellipse cx="230.3716" cy="302.072" fill="#7FFFD4" rx="11" ry="11" style="stroke:#181818;stroke-width:1;"/><path d="M229.4966,308.7439 Q228.4966,308.7439 227.5435,308.5564 Q226.5904,308.3689 225.8091,307.9939 L225.8091,305.822 Q226.9029,306.3064 227.7623,306.5251 Q228.6373,306.7439 229.5279,306.7439 Q230.3248,306.7439 230.8248,306.5407 Q231.3248,306.3376 231.5591,305.9626 Q231.7935,305.572 231.7935,304.9626 Q231.7935,304.4939 231.606,304.2439 Q231.4341,303.9782 230.8716,303.6814 Q230.3091,303.3845 229.231,302.9157 Q228.4966,302.5876 227.7779,302.1657 Q227.0591,301.7439 226.5748,301.0251 Q226.0904,300.3064 226.0904,299.1501 Q226.0904,297.9939 226.606,297.197 Q227.1373,296.3845 228.0748,295.9782 Q229.0279,295.572 230.3091,295.572 Q231.2779,295.572 232.1216,295.7751 Q232.9654,295.9782 233.9029,296.4314 L233.1685,298.3376 Q232.2935,297.9314 231.606,297.7751 Q230.9341,297.6189 230.2779,297.6189 Q229.6685,297.6189 229.231,297.7751 Q228.7935,297.9314 228.5591,298.2751 Q228.3404,298.6032 228.3404,299.1814 Q228.3404,299.6657 228.5279,299.9626 Q228.731,300.2595 229.2154,300.5251 Q229.7154,300.7751 230.5748,301.1501 Q231.5591,301.5564 232.3248,301.9939 Q233.106,302.4314 233.5748,303.1345 Q234.0591,303.822 234.0591,304.9782 Q234.0591,305.8532 233.7623,306.572 Q233.4654,307.2751 232.8716,307.7751 Q232.2779,308.2595 231.4341,308.5095 Q230.5904,308.7439 229.4966,308.7439 Z " fill="#000000"/><text fill="#000000" font-family="sans-serif" font-size="14" lengthAdjust="spacing" textLength="38.7659" x="250.8716" y="307.504">Notes</text><line style="stroke:#181818;stroke-width:0.5;" x1="125.56" x2="382.4491" y1="318.072" y2="318.072"/><ellipse cx="135.56" cy="333.1059" fill="transparent" rx="3" ry="3" style="stroke:#038048;stroke-width:1;"/><text fill="#000000" font-family="sans-serif" font-size="14" lengthAdjust="spacing" textLength="70.0137" x="144.56" y="337.0379">Title string</text><ellipse cx="135.56" cy="352.1739" fill="transparent" rx="3" ry="3" style="stroke:#038048;stroke-width:1;"/><text fill="#000000" font-family="sans-serif" font-size="14" lengthAdjust="spacing" textLength="130.9975" x="144.56" y="356.1058">Metadata MetaData</text><ellipse cx="135.56" cy="371.2418" fill="transparent" rx="3" ry="3" style="stroke:#038048;stroke-width:1;"/><text fill="#000000" font-family="sans-serif" font-size="14" lengthAdjust="spacing" textLength="94.6816" x="144.56" y="375.1738">Content string</text><line style="stroke:#181818;stroke-width:0.5;" x1="125.56" x2="382.4491" y1="383.2757" y2="383.2757"/><ellipse cx="135.56" cy="398.3097" fill="#84BE84" rx="3" ry="3" style="stroke:#038048;stroke-width:1;"/><text fill="#000000" font-family="sans-serif" font-size="14" lengthAdjust="spacing" textLength="101.5556" x="144.56" y="402.2417">GetTitle() string</text><ellipse cx="135.56" cy="417.3776" fill="#84BE84" rx="3" ry="3" style="stroke:#038048;stroke-width:1;"/><text fill="#000000" font-family="sans-serif" font-size="14" lengthAdjust="spacing" textLength="161.6294" x="144.56" y="421.3096">SetTitle(title string) error</text><ellipse cx="135.56" cy="436.4455" fill="#84BE84" rx="3" ry="3" style="stroke:#038048;stroke-width:1;"/><text fill="#000000" font-family="sans-serif" font-size="14" lengthAdjust="spacing" textLength="164.1494" x="144.56" y="440.3775">GetMetaData() MetaData</text><ellipse cx="135.56" cy="455.5134" fill="#84BE84" rx="3" ry="3" style="stroke:#038048;stroke-width:1;"/><text fill="#000000" font-family="sans-serif" font-size="14" lengthAdjust="spacing" textLength="232.8891" x="144.56" y="459.4454">SetMetaData(meta MetaData) error</text><ellipse cx="135.56" cy="474.5814" fill="#84BE84" rx="3" ry="3" style="stroke:#038048;stroke-width:1;"/><text fill="#000000" font-family="sans-serif" font-size="14" lengthAdjust="spacing" textLength="111.4536" x="144.56" y="478.5133">GetContent() any</text><ellipse cx="135.56" cy="493.6493" fill="#84BE84" rx="3" ry="3" style="stroke:#038048;stroke-width:1;"/><text fill="#000000" font-family="sans-serif" font-size="14" lengthAdjust="spacing" textLength="196.7972" x="144.56" y="497.5813">SetContent(content any) error</text><ellipse cx="135.56" cy="512.7172" fill="#84BE84" rx="3" ry="3" style="stroke:#038048;stroke-width:1;"/><text fill="#000000" font-family="sans-serif" font-size="14" lengthAdjust="spacing" textLength="118.8595" x="144.56" y="516.6492">GetID() uuid.UUID</text></g><!--reverse link ConnectParams to BoltConnectionParams--><g id="link_ConnectParams_BoltConnectionParams"><path codeLine="71" d="M996.2599,187.1243 C992.2399,230.2643 986.77,288.882 981.73,342.922 " fill="transparent" id="ConnectParams-backto-BoltConnectionParams" style="stroke:#181818;stroke-width:1;"/><polygon fill="transparent" points="997.93,169.202,990.2858,186.5676,1002.234,187.681,997.93,169.202" style="stroke:#181818;stroke-width:1;"/></g><!--reverse link DAO to BoltDao--><g id="link_DAO_BoltDao"><path codeLine="72" d="M663.9093,244.0368 C659.1993,269.2868 657.36,279.192 652.55,304.952 " fill="transparent" id="DAO-backto-BoltDao" style="stroke:#181818;stroke-width:1;"/><polygon fill="transparent" points="667.21,226.342,658.011,242.9365,669.8076,245.137,667.21,226.342" style="stroke:#181818;stroke-width:1;"/></g><!--reverse link Document to Notes--><g id="link_Document_Notes"><path codeLine="73" d="M294.1387,243.8056 C289.3887,262.8256 288.67,265.702 283.7,285.592 " fill="transparent" id="Document-backto-Notes" style="stroke:#181818;stroke-width:1;"/><polygon fill="transparent" points="298.5,226.342,288.3175,242.3519,299.9599,245.2594,298.5,226.342" style="stroke:#181818;stroke-width:1;"/></g><!--SRC=[hLN9Rjim4BthAmO-IOdjBp02s15Q1Cs69kwbw84c9p5HILH8Ae3GvjzBIgHCBOYJD3fHVFDcUJCa2vAZAWb5O4J0dmZCHpEY56n4fiz5KI3LN1ItH99SmMe5yTry_LIHd4XUO09dPuvblmMKHEz1QOCz1hkvO0WFQlc5PtXbrW4aIgtWP6U2BMzA6qb50Vg8keqS9q2AkeLU1bcc9lEZYR6TYv9k3W5EuLmYqHWpGI4LjCgnq0cWb486HdT89DrlwczO_o1PXV5lh5sHStYsE-ulWVZdholK92MQp5i_IU3eEnBMn3hnmUR06LGLPyljzY8r_0CmOczBTZpN53CqHdslGoFNrvYMVjcgFE6EA-gCFHZqW1SQvOETdfuRw2d_IWyF_7Hz4xAwnhnIQIDcgEHRTVoqThg67E_6MthnMPtmoVJb_8hwdkiC3NTmEgqU3klA7iOsR2-3SU2NVHUTGOTF-Z5LQfETcuMU1mzPP99xaHfQ9-NuCl21Zzq6fz3KErPYNUczaEFzssgNSRKtlYT8bqJfTXBO6BGttdrTJj2sLNX6nyLS2utgmvLOAPYLOg9PJcTFUk-Kw23YVuvAZa667nqNwifvtzIyHD7CF7dBtgcRmUhlOW4DCFN-pLgEkQo6bkODyg0xVw55qyjPz0y0]--></g></svg>