<svg xmlns="http://www.w3.org/2000/svg" xmlns:xlink="http://www.w3.org/1999/xlink" contentStyleType="text/css" data-diagram-type="CLASS" height="566px" preserveAspectRatio="none" style="width:2740px;height:566px;background:#FFFFFF;" version="1.1" viewBox="0 0 2740 566" width="2740px" zoomAndPan="magnify"><defs/><g><!--cluster dao--><g id="cluster_dao"><path d="M8.5,6.602 L34.4339,6.602 A3.75,3.75 0 0 1 36.9339,9.102 L43.9339,31.6699 L1785.5,31.6699 A2.5,2.5 0 0 1 1788,34.1699 L1788,557.322 A2.5,2.5 0 0 1 1785.5,559.822 L8.5,559.822 A2.5,2.5 0 0 1 6,557.322 L6,9.102 A2.5,2.5 0 0 1 8.5,6.602 " fill="transparent" style="stroke:#000000;stroke-width:1.5;"/><line style="stroke:#000000;stroke-width:1.5;" x1="6" x2="43.9339" y1="31.6699" y2="31.6699"/><text fill="#000000" font-family="sans-serif" font-size="14" font-weight="bold" lengthAdjust="spacing" textLength="24.9339" x="10" y="23.5679">dao</text></g><!--cluster service--><g id="cluster_service"><path d="M1814.5,63.802 L1861.2238,63.802 A3.75,3.75 0 0 1 1863.7238,66.302 L1870.7238,88.8699 L2730.5,88.8699 A2.5,2.5 0 0 1 2733,91.3699 L2733,557.322 A2.5,2.5 0 0 1 2730.5,559.822 L1814.5,559.822 A2.5,2.5 0 0 1 1812,557.322 L1812,66.302 A2.5,2.5 0 0 1 1814.5,63.802 " fill="transparent" style="stroke:#000000;stroke-width:1.5;"/><line style="stroke:#000000;stroke-width:1.5;" x1="1812" x2="1870.7238" y1="88.8699" y2="88.8699"/><text fill="#000000" font-family="sans-serif" font-size="14" font-weight="bold" lengthAdjust="spacing" textLength="45.7238" x="1816" y="80.7679">service</text></g><!--class BoltConnectionParams--><g id="elem_BoltConnectionParams"><rect codeLine="2" fill="#F1F1F1" height="124.2717" id="BoltConnectionParams" rx="2.5" ry="2.5" style="stroke:#181818;stroke-width:0.5;" width="183.0174" x="1122.49" y="362.342"/><ellipse cx="1137.49" cy="378.342" fill="#7FFFD4" rx="11" ry="11" style="stroke:#181818;stroke-width:1;"/><path d="M1136.615,385.0139 Q1135.615,385.0139 1134.6619,384.8264 Q1133.7088,384.6389 1132.9275,384.2639 L1132.9275,382.092 Q1134.0213,382.5764 1134.8806,382.7951 Q1135.7556,383.0139 1136.6463,383.0139 Q1137.4431,383.0139 1137.9431,382.8107 Q1138.4431,382.6076 1138.6775,382.2326 Q1138.9119,381.842 1138.9119,381.2326 Q1138.9119,380.7639 1138.7244,380.5139 Q1138.5525,380.2482 1137.99,379.9514 Q1137.4275,379.6545 1136.3494,379.1857 Q1135.615,378.8576 1134.8963,378.4357 Q1134.1775,378.0139 1133.6931,377.2951 Q1133.2088,376.5764 1133.2088,375.4201 Q1133.2088,374.2639 1133.7244,373.467 Q1134.2556,372.6545 1135.1931,372.2482 Q1136.1463,371.842 1137.4275,371.842 Q1138.3963,371.842 1139.24,372.0451 Q1140.0838,372.2482 1141.0213,372.7014 L1140.2869,374.6076 Q1139.4119,374.2014 1138.7244,374.0451 Q1138.0525,373.8889 1137.3963,373.8889 Q1136.7869,373.8889 1136.3494,374.0451 Q1135.9119,374.2014 1135.6775,374.5451 Q1135.4588,374.8732 1135.4588,375.4514 Q1135.4588,375.9357 1135.6463,376.2326 Q1135.8494,376.5295 1136.3338,376.7951 Q1136.8338,377.0451 1137.6931,377.4201 Q1138.6775,377.8264 1139.4431,378.2639 Q1140.2244,378.7014 1140.6931,379.4045 Q1141.1775,380.092 1141.1775,381.2482 Q1141.1775,382.1232 1140.8806,382.842 Q1140.5838,383.5451 1139.99,384.0451 Q1139.3963,384.5295 1138.5525,384.7795 Q1137.7088,385.0139 1136.615,385.0139 Z " fill="#000000"/><text fill="#000000" font-family="sans-serif" font-size="14" lengthAdjust="spacing" textLength="151.0174" x="1151.49" y="383.774">BoltConnectionParams</text><line style="stroke:#181818;stroke-width:0.5;" x1="1123.49" x2="1304.5074" y1="394.342" y2="394.342"/><ellipse cx="1133.49" cy="409.3759" fill="transparent" rx="3" ry="3" style="stroke:#038048;stroke-width:1;"/><text fill="#000000" font-family="sans-serif" font-size="14" lengthAdjust="spacing" textLength="72.0857" x="1142.49" y="413.3079">Path string</text><ellipse cx="1133.49" cy="428.4439" fill="transparent" rx="3" ry="3" style="stroke:#038048;stroke-width:1;"/><text fill="#000000" font-family="sans-serif" font-size="14" lengthAdjust="spacing" textLength="116.6476" x="1142.49" y="432.3758">Mode fs.FileMode</text><ellipse cx="1133.49" cy="447.5118" fill="transparent" rx="3" ry="3" style="stroke:#038048;stroke-width:1;"/><text fill="#000000" font-family="sans-serif" font-size="14" lengthAdjust="spacing" textLength="124.1936" x="1142.49" y="451.4438">Opts *bolt.Options</text><line style="stroke:#181818;stroke-width:0.5;" x1="1123.49" x2="1304.5074" y1="459.5457" y2="459.5457"/><rect fill="#F24D5C" height="6" style="stroke:#C82930;stroke-width:1;" width="6" x="1130.49" y="471.5797"/><text fill="#000000" font-family="sans-serif" font-size="14" lengthAdjust="spacing" textLength="107.0016" x="1142.49" y="478.5117">getParams() any</text></g><!--class BoltDao--><g id="elem_BoltDao"><rect codeLine="10" fill="#F1F1F1" height="219.6113" id="BoltDao" rx="2.5" ry="2.5" style="stroke:#181818;stroke-width:0.5;" width="431.3264" x="1340.34" y="314.672"/><ellipse cx="1525.3633" cy="330.672" fill="#7FFFD4" rx="11" ry="11" style="stroke:#181818;stroke-width:1;"/><path d="M1524.4883,337.3439 Q1523.4883,337.3439 1522.5352,337.1564 Q1521.5821,336.9689 1520.8008,336.5939 L1520.8008,334.422 Q1521.8946,334.9064 1522.7539,335.1251 Q1523.6289,335.3439 1524.5196,335.3439 Q1525.3164,335.3439 1525.8164,335.1407 Q1526.3164,334.9376 1526.5508,334.5626 Q1526.7852,334.172 1526.7852,333.5626 Q1526.7852,333.0939 1526.5977,332.8439 Q1526.4258,332.5782 1525.8633,332.2814 Q1525.3008,331.9845 1524.2227,331.5157 Q1523.4883,331.1876 1522.7696,330.7657 Q1522.0508,330.3439 1521.5664,329.6251 Q1521.0821,328.9064 1521.0821,327.7501 Q1521.0821,326.5939 1521.5977,325.797 Q1522.1289,324.9845 1523.0664,324.5782 Q1524.0196,324.172 1525.3008,324.172 Q1526.2696,324.172 1527.1133,324.3751 Q1527.9571,324.5782 1528.8946,325.0314 L1528.1602,326.9376 Q1527.2852,326.5314 1526.5977,326.3751 Q1525.9258,326.2189 1525.2696,326.2189 Q1524.6602,326.2189 1524.2227,326.3751 Q1523.7852,326.5314 1523.5508,326.8751 Q1523.3321,327.2032 1523.3321,327.7814 Q1523.3321,328.2657 1523.5196,328.5626 Q1523.7227,328.8595 1524.2071,329.1251 Q1524.7071,329.3751 1525.5664,329.7501 Q1526.5508,330.1564 1527.3164,330.5939 Q1528.0977,331.0314 1528.5664,331.7345 Q1529.0508,332.422 1529.0508,333.5782 Q1529.0508,334.4532 1528.7539,335.172 Q1528.4571,335.8751 1527.8633,336.3751 Q1527.2696,336.8595 1526.4258,337.1095 Q1525.5821,337.3439 1524.4883,337.3439 Z " fill="#000000"/><text fill="#000000" font-family="sans-serif" font-size="14" lengthAdjust="spacing" textLength="52.7798" x="1545.8633" y="336.104">BoltDao</text><line style="stroke:#181818;stroke-width:0.5;" x1="1341.34" x2="1770.6664" y1="346.672" y2="346.672"/><rect fill="transparent" height="6" style="stroke:#C82930;stroke-width:1;" width="6" x="1348.34" y="358.7059"/><text fill="#000000" font-family="sans-serif" font-size="14" lengthAdjust="spacing" textLength="77.3917" x="1360.34" y="365.6379">db *bolt.DB</text><line style="stroke:#181818;stroke-width:0.5;" x1="1341.34" x2="1770.6664" y1="373.7399" y2="373.7399"/><ellipse cx="1351.34" cy="388.7739" fill="#84BE84" rx="3" ry="3" style="stroke:#038048;stroke-width:1;"/><text fill="#000000" font-family="sans-serif" font-size="14" lengthAdjust="spacing" textLength="223.0611" x="1360.34" y="392.7058">Connect(cp ConnectParams) error</text><ellipse cx="1351.34" cy="407.8418" fill="#84BE84" rx="3" ry="3" style="stroke:#038048;stroke-width:1;"/><text fill="#000000" font-family="sans-serif" font-size="14" lengthAdjust="spacing" textLength="118.4535" x="1360.34" y="411.7738">Disconnect() error</text><ellipse cx="1351.34" cy="426.9097" fill="#84BE84" rx="3" ry="3" style="stroke:#038048;stroke-width:1;"/><text fill="#000000" font-family="sans-serif" font-size="14" lengthAdjust="spacing" textLength="185.2753" x="1360.34" y="430.8417">Create(doc Document) error</text><ellipse cx="1351.34" cy="445.9776" fill="#84BE84" rx="3" ry="3" style="stroke:#038048;stroke-width:1;"/><text fill="#000000" font-family="sans-serif" font-size="14" lengthAdjust="spacing" textLength="244.6631" x="1360.34" y="449.9096">ReadRaw(id uuid.UUID) ([]byte, error)</text><ellipse cx="1351.34" cy="465.0455" fill="#84BE84" rx="3" ry="3" style="stroke:#038048;stroke-width:1;"/><text fill="#000000" font-family="sans-serif" font-size="14" lengthAdjust="spacing" textLength="359.2386" x="1360.34" y="468.9775">Read(doc *Document, id uuid.UUID) (Document, error)</text><ellipse cx="1351.34" cy="484.1134" fill="#84BE84" rx="3" ry="3" style="stroke:#038048;stroke-width:1;"/><text fill="#000000" font-family="sans-serif" font-size="14" lengthAdjust="spacing" textLength="190.2033" x="1360.34" y="488.0454">Update(doc Document) error</text><ellipse cx="1351.34" cy="503.1814" fill="#84BE84" rx="3" ry="3" style="stroke:#038048;stroke-width:1;"/><text fill="#000000" font-family="sans-serif" font-size="14" lengthAdjust="spacing" textLength="172.8993" x="1360.34" y="507.1133">Delete(id uuid.UUID) error</text><ellipse cx="1351.34" cy="522.2493" fill="#84BE84" rx="3" ry="3" style="stroke:#038048;stroke-width:1;"/><text fill="#000000" font-family="sans-serif" font-size="14" lengthAdjust="spacing" textLength="405.3264" x="1360.34" y="526.1813">SearchByKeyValue(key string, value string) ([]MetaData, error)</text></g><!--class ConnectParams--><g id="elem_ConnectParams"><rect codeLine="23" fill="#F1F1F1" height="67.0679" id="ConnectParams" rx="2.5" ry="2.5" style="stroke:#181818;stroke-width:0.5;" width="133.0016" x="1172.5" y="111.342"/><ellipse cx="1188.8509" cy="127.342" fill="#B4A7E5" rx="11" ry="11" style="stroke:#181818;stroke-width:1;"/><path d="M1185.2259,133.842 L1185.2259,132.1389 L1187.6634,131.9045 L1187.6634,122.9514 L1185.2259,122.7326 L1185.2259,121.0139 L1192.3665,121.0139 L1192.3665,122.7326 L1189.8821,122.9514 L1189.8821,131.9045 L1192.3665,132.1389 L1192.3665,133.842 L1185.2259,133.842 Z " fill="#000000"/><text fill="#000000" font-family="sans-serif" font-size="14" font-style="italic" lengthAdjust="spacing" textLength="97.9996" x="1203.1511" y="132.774">ConnectParams</text><line style="stroke:#181818;stroke-width:0.5;" x1="1173.5" x2="1304.5016" y1="143.342" y2="143.342"/><line style="stroke:#181818;stroke-width:0.5;" x1="1173.5" x2="1304.5016" y1="151.342" y2="151.342"/><rect fill="#F24D5C" height="6" style="stroke:#C82930;stroke-width:1;" width="6" x="1180.5" y="163.3759"/><text fill="#000000" font-family="sans-serif" font-size="14" lengthAdjust="spacing" textLength="107.0016" x="1192.5" y="170.3079">getParams() any</text></g><!--class DAO--><g id="elem_DAO"><rect codeLine="27" fill="#F1F1F1" height="200.5433" id="DAO" rx="2.5" ry="2.5" style="stroke:#181818;stroke-width:0.5;" width="431.3264" x="1340.34" y="44.602"/><ellipse cx="1538.1033" cy="60.602" fill="#B4A7E5" rx="11" ry="11" style="stroke:#181818;stroke-width:1;"/><path d="M1534.4783,67.102 L1534.4783,65.3989 L1536.9158,65.1645 L1536.9158,56.2114 L1534.4783,55.9926 L1534.4783,54.2739 L1541.6189,54.2739 L1541.6189,55.9926 L1539.1345,56.2114 L1539.1345,65.1645 L1541.6189,65.3989 L1541.6189,67.102 L1534.4783,67.102 Z " fill="#000000"/><text fill="#000000" font-family="sans-serif" font-size="14" font-style="italic" lengthAdjust="spacing" textLength="27.2999" x="1558.6033" y="66.034">DAO</text><line style="stroke:#181818;stroke-width:0.5;" x1="1341.34" x2="1770.6664" y1="76.602" y2="76.602"/><line style="stroke:#181818;stroke-width:0.5;" x1="1341.34" x2="1770.6664" y1="84.602" y2="84.602"/><ellipse cx="1351.34" cy="99.6359" fill="#84BE84" rx="3" ry="3" style="stroke:#038048;stroke-width:1;"/><text fill="#000000" font-family="sans-serif" font-size="14" lengthAdjust="spacing" textLength="161.4754" x="1360.34" y="103.5679">Create( Document) error</text><ellipse cx="1351.34" cy="118.7039" fill="#84BE84" rx="3" ry="3" style="stroke:#038048;stroke-width:1;"/><text fill="#000000" font-family="sans-serif" font-size="14" lengthAdjust="spacing" textLength="323.2167" x="1360.34" y="122.6358">Read( *Document,  uuid.UUID) (Document, error)</text><ellipse cx="1351.34" cy="137.7718" fill="#84BE84" rx="3" ry="3" style="stroke:#038048;stroke-width:1;"/><text fill="#000000" font-family="sans-serif" font-size="14" lengthAdjust="spacing" textLength="232.4411" x="1360.34" y="141.7038">ReadRaw( uuid.UUID) ([]byte, error)</text><ellipse cx="1351.34" cy="156.8397" fill="#84BE84" rx="3" ry="3" style="stroke:#038048;stroke-width:1;"/><text fill="#000000" font-family="sans-serif" font-size="14" lengthAdjust="spacing" textLength="405.3264" x="1360.34" y="160.7717">SearchByKeyValue(key string, value string) ([]MetaData, error)</text><ellipse cx="1351.34" cy="175.9076" fill="#84BE84" rx="3" ry="3" style="stroke:#038048;stroke-width:1;"/><text fill="#000000" font-family="sans-serif" font-size="14" lengthAdjust="spacing" textLength="166.4034" x="1360.34" y="179.8396">Update( Document) error</text><ellipse cx="1351.34" cy="194.9755" fill="#84BE84" rx="3" ry="3" style="stroke:#038048;stroke-width:1;"/><text fill="#000000" font-family="sans-serif" font-size="14" lengthAdjust="spacing" textLength="160.6774" x="1360.34" y="198.9075">Delete( uuid.UUID) error</text><ellipse cx="1351.34" cy="214.0434" fill="#84BE84" rx="3" ry="3" style="stroke:#038048;stroke-width:1;"/><text fill="#000000" font-family="sans-serif" font-size="14" lengthAdjust="spacing" textLength="207.7312" x="1360.34" y="217.9754">Connect( ConnectParams) error</text><ellipse cx="1351.34" cy="233.1114" fill="#84BE84" rx="3" ry="3" style="stroke:#038048;stroke-width:1;"/><text fill="#000000" font-family="sans-serif" font-size="14" lengthAdjust="spacing" textLength="118.4535" x="1360.34" y="237.0433">Disconnect() error</text></g><!--class Document--><g id="elem_Document"><rect codeLine="38" fill="#F1F1F1" height="143.3396" id="Document" rx="2.5" ry="2.5" style="stroke:#181818;stroke-width:0.5;" width="224.9953" x="912.5" y="73.202"/><ellipse cx="988.9187" cy="89.202" fill="#B4A7E5" rx="11" ry="11" style="stroke:#181818;stroke-width:1;"/><path d="M985.2937,95.702 L985.2937,93.9989 L987.7312,93.7645 L987.7312,84.8114 L985.2937,84.5926 L985.2937,82.8739 L992.4344,82.8739 L992.4344,84.5926 L989.95,84.8114 L989.95,93.7645 L992.4344,93.9989 L992.4344,95.702 L985.2937,95.702 Z " fill="#000000"/><text fill="#000000" font-family="sans-serif" font-size="14" font-style="italic" lengthAdjust="spacing" textLength="63.6578" x="1009.4187" y="94.634">Document</text><line style="stroke:#181818;stroke-width:0.5;" x1="913.5" x2="1136.4953" y1="105.202" y2="105.202"/><line style="stroke:#181818;stroke-width:0.5;" x1="913.5" x2="1136.4953" y1="113.202" y2="113.202"/><ellipse cx="923.5" cy="128.2359" fill="#84BE84" rx="3" ry="3" style="stroke:#038048;stroke-width:1;"/><text fill="#000000" font-family="sans-serif" font-size="14" lengthAdjust="spacing" textLength="101.5556" x="932.5" y="132.1679">GetTitle() string</text><ellipse cx="923.5" cy="147.3039" fill="#84BE84" rx="3" ry="3" style="stroke:#038048;stroke-width:1;"/><text fill="#000000" font-family="sans-serif" font-size="14" lengthAdjust="spacing" textLength="136.4015" x="932.5" y="151.2358">SetTitle( string) error</text><ellipse cx="923.5" cy="166.3718" fill="#84BE84" rx="3" ry="3" style="stroke:#038048;stroke-width:1;"/><text fill="#000000" font-family="sans-serif" font-size="14" lengthAdjust="spacing" textLength="164.1494" x="932.5" y="170.3038">GetMetaData() MetaData</text><ellipse cx="923.5" cy="185.4397" fill="#84BE84" rx="3" ry="3" style="stroke:#038048;stroke-width:1;"/><text fill="#000000" font-family="sans-serif" font-size="14" lengthAdjust="spacing" textLength="198.9953" x="932.5" y="189.3717">SetMetaData( MetaData) error</text><ellipse cx="923.5" cy="204.5076" fill="#84BE84" rx="3" ry="3" style="stroke:#038048;stroke-width:1;"/><text fill="#000000" font-family="sans-serif" font-size="14" lengthAdjust="spacing" textLength="88.5637" x="932.5" y="208.4396">GetID() string</text></g><!--class DocumentFactory--><g id="elem_DocumentFactory"><rect codeLine="46" fill="#F1F1F1" height="105.2038" id="DocumentFactory" rx="2.5" ry="2.5" style="stroke:#181818;stroke-width:0.5;" width="491.3302" x="386.33" y="92.272"/><ellipse cx="569.2253" cy="108.272" fill="#7FFFD4" rx="11" ry="11" style="stroke:#181818;stroke-width:1;"/><path d="M568.3503,114.9439 Q567.3503,114.9439 566.3972,114.7564 Q565.4441,114.5689 564.6628,114.1939 L564.6628,112.022 Q565.7566,112.5064 566.616,112.7251 Q567.491,112.9439 568.3816,112.9439 Q569.1785,112.9439 569.6785,112.7407 Q570.1785,112.5376 570.4128,112.1626 Q570.6472,111.772 570.6472,111.1626 Q570.6472,110.6939 570.4597,110.4439 Q570.2878,110.1782 569.7253,109.8814 Q569.1628,109.5845 568.0847,109.1157 Q567.3503,108.7876 566.6316,108.3657 Q565.9128,107.9439 565.4285,107.2251 Q564.9441,106.5064 564.9441,105.3501 Q564.9441,104.1939 565.4597,103.397 Q565.991,102.5845 566.9285,102.1782 Q567.8816,101.772 569.1628,101.772 Q570.1316,101.772 570.9753,101.9751 Q571.8191,102.1782 572.7566,102.6314 L572.0222,104.5376 Q571.1472,104.1314 570.4597,103.9751 Q569.7878,103.8189 569.1316,103.8189 Q568.5222,103.8189 568.0847,103.9751 Q567.6472,104.1314 567.4128,104.4751 Q567.1941,104.8032 567.1941,105.3814 Q567.1941,105.8657 567.3816,106.1626 Q567.5847,106.4595 568.0691,106.7251 Q568.5691,106.9751 569.4285,107.3501 Q570.4128,107.7564 571.1785,108.1939 Q571.9597,108.6314 572.4285,109.3345 Q572.9128,110.022 572.9128,111.1782 Q572.9128,112.0532 572.616,112.772 Q572.3191,113.4751 571.7253,113.9751 Q571.1316,114.4595 570.2878,114.7095 Q569.4441,114.9439 568.3503,114.9439 Z " fill="#000000"/><text fill="#000000" font-family="sans-serif" font-size="14" lengthAdjust="spacing" textLength="117.0396" x="589.7253" y="113.704">DocumentFactory</text><line style="stroke:#181818;stroke-width:0.5;" x1="387.33" x2="876.6602" y1="124.272" y2="124.272"/><rect fill="transparent" height="6" style="stroke:#C82930;stroke-width:1;" width="6" x="394.33" y="136.3059"/><text fill="#000000" font-family="sans-serif" font-size="14" lengthAdjust="spacing" textLength="50.5818" x="406.33" y="143.2379">registry</text><text fill="#0000FF" font-family="sans-serif" font-size="14" lengthAdjust="spacing" textLength="29.5539" x="460.5518" y="143.2379">map</text><text fill="#000000" font-family="sans-serif" font-size="14" lengthAdjust="spacing" textLength="195.9573" x="490.1057" y="143.2379">[string]DocumentFactoryFunc</text><line style="stroke:#181818;stroke-width:0.5;" x1="387.33" x2="876.6602" y1="151.3399" y2="151.3399"/><ellipse cx="397.33" cy="166.3739" fill="#84BE84" rx="3" ry="3" style="stroke:#038048;stroke-width:1;"/><text fill="#000000" font-family="sans-serif" font-size="14" lengthAdjust="spacing" textLength="465.3302" x="406.33" y="170.3058">RegisterDocumentType(docType string, factory DocumentFactoryFunc)</text><ellipse cx="397.33" cy="185.4418" fill="#84BE84" rx="3" ry="3" style="stroke:#038048;stroke-width:1;"/><text fill="#000000" font-family="sans-serif" font-size="14" lengthAdjust="spacing" textLength="325.8767" x="406.33" y="189.3738">NewDocument(docType string) (Document, error)</text></g><!--class MetaData--><g id="elem_MetaData"><rect codeLine="53" fill="#F1F1F1" height="200.5433" id="MetaData" rx="2.5" ry="2.5" style="stroke:#181818;stroke-width:0.5;" width="151.8736" x="199.06" y="44.602"/><ellipse cx="238.9854" cy="60.602" fill="#7FFFD4" rx="11" ry="11" style="stroke:#181818;stroke-width:1;"/><path d="M238.1104,67.2739 Q237.1104,67.2739 236.1573,67.0864 Q235.2042,66.8989 234.4229,66.5239 L234.4229,64.352 Q235.5167,64.8364 236.376,65.0551 Q237.251,65.2739 238.1417,65.2739 Q238.9385,65.2739 239.4385,65.0707 Q239.9385,64.8676 240.1729,64.4926 Q240.4073,64.102 240.4073,63.4926 Q240.4073,63.0239 240.2198,62.7739 Q240.0479,62.5082 239.4854,62.2114 Q238.9229,61.9145 237.8448,61.4457 Q237.1104,61.1176 236.3917,60.6957 Q235.6729,60.2739 235.1885,59.5551 Q234.7042,58.8364 234.7042,57.6801 Q234.7042,56.5239 235.2198,55.727 Q235.751,54.9145 236.6885,54.5082 Q237.6417,54.102 238.9229,54.102 Q239.8917,54.102 240.7354,54.3051 Q241.5792,54.5082 242.5167,54.9614 L241.7823,56.8676 Q240.9073,56.4614 240.2198,56.3051 Q239.5479,56.1489 238.8917,56.1489 Q238.2823,56.1489 237.8448,56.3051 Q237.4073,56.4614 237.1729,56.8051 Q236.9542,57.1332 236.9542,57.7114 Q236.9542,58.1957 237.1417,58.4926 Q237.3448,58.7895 237.8292,59.0551 Q238.3292,59.3051 239.1885,59.6801 Q240.1729,60.0864 240.9385,60.5239 Q241.7198,60.9614 242.1885,61.6645 Q242.6729,62.352 242.6729,63.5082 Q242.6729,64.3832 242.376,65.102 Q242.0792,65.8051 241.4854,66.3051 Q240.8917,66.7895 240.0479,67.0395 Q239.2042,67.2739 238.1104,67.2739 Z " fill="#000000"/><text fill="#000000" font-family="sans-serif" font-size="14" lengthAdjust="spacing" textLength="64.4838" x="258.5244" y="66.034">MetaData</text><line style="stroke:#181818;stroke-width:0.5;" x1="200.06" x2="349.9336" y1="76.602" y2="76.602"/><ellipse cx="210.06" cy="91.6359" fill="transparent" rx="3" ry="3" style="stroke:#038048;stroke-width:1;"/><text fill="#000000" font-family="sans-serif" font-size="14" lengthAdjust="spacing" textLength="70.0137" x="219.06" y="95.5679">Title string</text><ellipse cx="210.06" cy="110.7039" fill="transparent" rx="3" ry="3" style="stroke:#038048;stroke-width:1;"/><text fill="#000000" font-family="sans-serif" font-size="14" lengthAdjust="spacing" textLength="87.6117" x="219.06" y="114.6358">Author string</text><ellipse cx="210.06" cy="129.7718" fill="transparent" rx="3" ry="3" style="stroke:#038048;stroke-width:1;"/><text fill="#000000" font-family="sans-serif" font-size="14" lengthAdjust="spacing" textLength="121.3935" x="219.06" y="133.7038">PublishDate string</text><ellipse cx="210.06" cy="148.8397" fill="transparent" rx="3" ry="3" style="stroke:#038048;stroke-width:1;"/><text fill="#000000" font-family="sans-serif" font-size="14" lengthAdjust="spacing" textLength="125.8736" x="219.06" y="152.7717">LastUpdated string</text><ellipse cx="210.06" cy="167.9076" fill="transparent" rx="3" ry="3" style="stroke:#038048;stroke-width:1;"/><text fill="#000000" font-family="sans-serif" font-size="14" lengthAdjust="spacing" textLength="95.8716" x="219.06" y="171.8396">FileType string</text><ellipse cx="210.06" cy="186.9755" fill="transparent" rx="3" ry="3" style="stroke:#038048;stroke-width:1;"/><text fill="#000000" font-family="sans-serif" font-size="14" lengthAdjust="spacing" textLength="98.8956" x="219.06" y="190.9075">DocType string</text><ellipse cx="210.06" cy="206.0434" fill="transparent" rx="3" ry="3" style="stroke:#038048;stroke-width:1;"/><text fill="#000000" font-family="sans-serif" font-size="14" lengthAdjust="spacing" textLength="72.0857" x="219.06" y="209.9754">Path string</text><ellipse cx="210.06" cy="225.1114" fill="transparent" rx="3" ry="3" style="stroke:#038048;stroke-width:1;"/><text fill="#000000" font-family="sans-serif" font-size="14" lengthAdjust="spacing" textLength="73.1637" x="219.06" y="229.0433">Uuid string</text><line style="stroke:#181818;stroke-width:0.5;" x1="200.06" x2="349.9336" y1="237.1453" y2="237.1453"/></g><!--class Notes--><g id="elem_Notes"><rect codeLine="64" fill="#F1F1F1" height="238.6792" id="Notes" rx="2.5" ry="2.5" style="stroke:#181818;stroke-width:0.5;" width="258.8891" x="828.56" y="305.142"/><ellipse cx="934.3716" cy="321.142" fill="#7FFFD4" rx="11" ry="11" style="stroke:#181818;stroke-width:1;"/><path d="M933.4966,327.8139 Q932.4966,327.8139 931.5435,327.6264 Q930.5904,327.4389 929.8091,327.0639 L929.8091,324.892 Q930.9029,325.3764 931.7623,325.5951 Q932.6373,325.8139 933.5279,325.8139 Q934.3248,325.8139 934.8248,325.6107 Q935.3248,325.4076 935.5591,325.0326 Q935.7935,324.642 935.7935,324.0326 Q935.7935,323.5639 935.606,323.3139 Q935.4341,323.0482 934.8716,322.7514 Q934.3091,322.4545 933.231,321.9857 Q932.4966,321.6576 931.7779,321.2357 Q931.0591,320.8139 930.5748,320.0951 Q930.0904,319.3764 930.0904,318.2201 Q930.0904,317.0639 930.606,316.267 Q931.1373,315.4545 932.0748,315.0482 Q933.0279,314.642 934.3091,314.642 Q935.2779,314.642 936.1216,314.8451 Q936.9654,315.0482 937.9029,315.5014 L937.1685,317.4076 Q936.2935,317.0014 935.606,316.8451 Q934.9341,316.6889 934.2779,316.6889 Q933.6685,316.6889 933.231,316.8451 Q932.7935,317.0014 932.5591,317.3451 Q932.3404,317.6732 932.3404,318.2514 Q932.3404,318.7357 932.5279,319.0326 Q932.731,319.3295 933.2154,319.5951 Q933.7154,319.8451 934.5748,320.2201 Q935.5591,320.6264 936.3248,321.0639 Q937.106,321.5014 937.5748,322.2045 Q938.0591,322.892 938.0591,324.0482 Q938.0591,324.9232 937.7623,325.642 Q937.4654,326.3451 936.8716,326.8451 Q936.2779,327.3295 935.4341,327.5795 Q934.5904,327.8139 933.4966,327.8139 Z " fill="#000000"/><text fill="#000000" font-family="sans-serif" font-size="14" lengthAdjust="spacing" textLength="38.7659" x="954.8716" y="326.574">Notes</text><line style="stroke:#181818;stroke-width:0.5;" x1="829.56" x2="1086.4491" y1="337.142" y2="337.142"/><ellipse cx="839.56" cy="352.1759" fill="transparent" rx="3" ry="3" style="stroke:#038048;stroke-width:1;"/><text fill="#000000" font-family="sans-serif" font-size="14" lengthAdjust="spacing" textLength="70.0137" x="848.56" y="356.1079">Title string</text><ellipse cx="839.56" cy="371.2439" fill="transparent" rx="3" ry="3" style="stroke:#038048;stroke-width:1;"/><text fill="#000000" font-family="sans-serif" font-size="14" lengthAdjust="spacing" textLength="130.9975" x="848.56" y="375.1758">Metadata MetaData</text><ellipse cx="839.56" cy="390.3118" fill="transparent" rx="3" ry="3" style="stroke:#038048;stroke-width:1;"/><text fill="#000000" font-family="sans-serif" font-size="14" lengthAdjust="spacing" textLength="94.6816" x="848.56" y="394.2438">Content string</text><line style="stroke:#181818;stroke-width:0.5;" x1="829.56" x2="1086.4491" y1="402.3457" y2="402.3457"/><ellipse cx="839.56" cy="417.3797" fill="#84BE84" rx="3" ry="3" style="stroke:#038048;stroke-width:1;"/><text fill="#000000" font-family="sans-serif" font-size="14" lengthAdjust="spacing" textLength="101.5556" x="848.56" y="421.3117">GetTitle() string</text><ellipse cx="839.56" cy="436.4476" fill="#84BE84" rx="3" ry="3" style="stroke:#038048;stroke-width:1;"/><text fill="#000000" font-family="sans-serif" font-size="14" lengthAdjust="spacing" textLength="161.6294" x="848.56" y="440.3796">SetTitle(title string) error</text><ellipse cx="839.56" cy="455.5155" fill="#84BE84" rx="3" ry="3" style="stroke:#038048;stroke-width:1;"/><text fill="#000000" font-family="sans-serif" font-size="14" lengthAdjust="spacing" textLength="164.1494" x="848.56" y="459.4475">GetMetaData() MetaData</text><ellipse cx="839.56" cy="474.5834" fill="#84BE84" rx="3" ry="3" style="stroke:#038048;stroke-width:1;"/><text fill="#000000" font-family="sans-serif" font-size="14" lengthAdjust="spacing" textLength="232.8891" x="848.56" y="478.5154">SetMetaData(meta MetaData) error</text><ellipse cx="839.56" cy="493.6514" fill="#84BE84" rx="3" ry="3" style="stroke:#038048;stroke-width:1;"/><text fill="#000000" font-family="sans-serif" font-size="14" lengthAdjust="spacing" textLength="111.4536" x="848.56" y="497.5833">GetContent() any</text><ellipse cx="839.56" cy="512.7193" fill="#84BE84" rx="3" ry="3" style="stroke:#038048;stroke-width:1;"/><text fill="#000000" font-family="sans-serif" font-size="14" lengthAdjust="spacing" textLength="196.7972" x="848.56" y="516.6513">SetContent(content any) error</text><ellipse cx="839.56" cy="531.7872" fill="#84BE84" rx="3" ry="3" style="stroke:#038048;stroke-width:1;"/><text fill="#000000" font-family="sans-serif" font-size="14" lengthAdjust="spacing" textLength="88.5637" x="848.56" y="535.7192">GetID() string</text></g><!--class DocumentFactoryFunc--><g id="elem_DocumentFactoryFunc"><rect codeLine="78" fill="#F1F1F1" height="48" id="DocumentFactoryFunc" rx="2.5" ry="2.5" style="stroke:#181818;stroke-width:0.5;" width="180.3294" x="21.84" y="400.482"/><ellipse cx="36.84" cy="416.482" fill="#FF7700" rx="11" ry="11" style="stroke:#181818;stroke-width:1;"/><path d="M35.6681,423.482 L35.6681,412.7007 L32.1056,412.7007 L32.1056,410.6539 L41.465,410.6539 L41.465,412.7007 L37.8869,412.7007 L37.8869,423.482 L35.6681,423.482 Z " fill="#000000"/><text fill="#000000" font-family="sans-serif" font-size="14" lengthAdjust="spacing" textLength="148.3294" x="50.84" y="421.914">DocumentFactoryFunc</text><line style="stroke:#181818;stroke-width:0.5;" x1="22.84" x2="201.1694" y1="432.482" y2="432.482"/><line style="stroke:#181818;stroke-width:0.5;" x1="22.84" x2="201.1694" y1="440.482" y2="440.482"/></g><!--class <font color=blue>func</font>() Document--><g id="elem_&lt;font color=blue&gt;func&lt;/font&gt;() Document"><rect fill="#F1F1F1" height="48" id="&lt;font color=blue&gt;func&lt;/font&gt;() Document" rx="2.5" ry="2.5" style="stroke:#181818;stroke-width:0.5;" width="141.6335" x="22.18" y="120.872"/><ellipse cx="37.18" cy="136.872" fill="#ADD1B2" rx="11" ry="11" style="stroke:#181818;stroke-width:1;"/><path d="M36.7269,143.5439 Q34.8363,143.5439 33.6175,142.6845 Q32.4144,141.8251 31.8519,140.3407 Q31.305,138.8564 31.305,136.9657 Q31.305,135.4657 31.6488,134.2626 Q32.0081,133.0595 32.7113,132.1845 Q33.43,131.3095 34.4456,130.8407 Q35.4769,130.372 36.7894,130.372 Q37.7269,130.372 38.5394,130.5751 Q39.3519,130.7626 40.3206,131.2782 L39.4456,133.1532 Q38.6488,132.7157 38.0081,132.5751 Q37.3831,132.4189 36.7894,132.4189 Q36.0081,132.4189 35.4144,132.7157 Q34.8206,132.997 34.3988,133.5595 Q33.9925,134.122 33.7738,134.9814 Q33.555,135.8407 33.555,136.9657 Q33.555,138.3876 33.8988,139.4032 Q34.2425,140.4189 34.93,140.9345 Q35.6175,141.4501 36.7581,141.4501 Q37.305,141.4501 37.9456,141.3251 Q38.5863,141.2001 39.6956,140.7626 L39.6956,142.9345 Q38.7581,143.2939 38.1019,143.4189 Q37.4613,143.5439 36.7269,143.5439 Z " fill="#000000"/><text fill="#0000FF" font-family="sans-serif" font-size="14" lengthAdjust="spacing" textLength="28.8399" x="51.18" y="142.304">func</text><text fill="#000000" font-family="sans-serif" font-size="14" lengthAdjust="spacing" textLength="80.7937" x="80.0199" y="142.304">() Document</text><line style="stroke:#181818;stroke-width:0.5;" x1="23.18" x2="162.8135" y1="152.872" y2="152.872"/><line style="stroke:#181818;stroke-width:0.5;" x1="23.18" x2="162.8135" y1="160.872" y2="160.872"/></g><!--class APIHandler--><g id="elem_APIHandler"><rect codeLine="87" fill="#F1F1F1" height="219.6113" id="APIHandler" rx="2.5" ry="2.5" style="stroke:#181818;stroke-width:0.5;" width="394.2406" x="2322.88" y="314.672"/><ellipse cx="2478.2794" cy="330.672" fill="#7FFFD4" rx="11" ry="11" style="stroke:#181818;stroke-width:1;"/><path d="M2477.4044,337.3439 Q2476.4044,337.3439 2475.4513,337.1564 Q2474.4982,336.9689 2473.7169,336.5939 L2473.7169,334.422 Q2474.8107,334.9064 2475.6701,335.1251 Q2476.5451,335.3439 2477.4357,335.3439 Q2478.2326,335.3439 2478.7326,335.1407 Q2479.2326,334.9376 2479.4669,334.5626 Q2479.7013,334.172 2479.7013,333.5626 Q2479.7013,333.0939 2479.5138,332.8439 Q2479.3419,332.5782 2478.7794,332.2814 Q2478.2169,331.9845 2477.1388,331.5157 Q2476.4044,331.1876 2475.6857,330.7657 Q2474.9669,330.3439 2474.4826,329.6251 Q2473.9982,328.9064 2473.9982,327.7501 Q2473.9982,326.5939 2474.5138,325.797 Q2475.0451,324.9845 2475.9826,324.5782 Q2476.9357,324.172 2478.2169,324.172 Q2479.1857,324.172 2480.0294,324.3751 Q2480.8732,324.5782 2481.8107,325.0314 L2481.0763,326.9376 Q2480.2013,326.5314 2479.5138,326.3751 Q2478.8419,326.2189 2478.1857,326.2189 Q2477.5763,326.2189 2477.1388,326.3751 Q2476.7013,326.5314 2476.4669,326.8751 Q2476.2482,327.2032 2476.2482,327.7814 Q2476.2482,328.2657 2476.4357,328.5626 Q2476.6388,328.8595 2477.1232,329.1251 Q2477.6232,329.3751 2478.4826,329.7501 Q2479.4669,330.1564 2480.2326,330.5939 Q2481.0138,331.0314 2481.4826,331.7345 Q2481.9669,332.422 2481.9669,333.5782 Q2481.9669,334.4532 2481.6701,335.172 Q2481.3732,335.8751 2480.7794,336.3751 Q2480.1857,336.8595 2479.3419,337.1095 Q2478.4982,337.3439 2477.4044,337.3439 Z " fill="#000000"/><text fill="#000000" font-family="sans-serif" font-size="14" lengthAdjust="spacing" textLength="74.9417" x="2498.7794" y="336.104">APIHandler</text><line style="stroke:#181818;stroke-width:0.5;" x1="2323.88" x2="2716.1206" y1="346.672" y2="346.672"/><ellipse cx="2333.88" cy="361.7059" fill="transparent" rx="3" ry="3" style="stroke:#038048;stroke-width:1;"/><text fill="#000000" font-family="sans-serif" font-size="14" lengthAdjust="spacing" textLength="150.1354" x="2342.88" y="365.6379">DaoService DaoService</text><ellipse cx="2333.88" cy="380.7739" fill="transparent" rx="3" ry="3" style="stroke:#038048;stroke-width:1;"/><text fill="#000000" font-family="sans-serif" font-size="14" lengthAdjust="spacing" textLength="274.119" x="2342.88" y="384.7058">DocumentFactory *dao.DocumentFactory</text><line style="stroke:#181818;stroke-width:0.5;" x1="2323.88" x2="2716.1206" y1="392.8078" y2="392.8078"/><ellipse cx="2333.88" cy="407.8418" fill="#84BE84" rx="3" ry="3" style="stroke:#038048;stroke-width:1;"/><text fill="#000000" font-family="sans-serif" font-size="14" lengthAdjust="spacing" textLength="105.5316" x="2342.88" y="411.7738">GetService() any</text><ellipse cx="2333.88" cy="426.9097" fill="#84BE84" rx="3" ry="3" style="stroke:#038048;stroke-width:1;"/><text fill="#000000" font-family="sans-serif" font-size="14" lengthAdjust="spacing" textLength="223.4251" x="2342.88" y="430.8417">SearchByKeyValue(c *gin.Context)</text><ellipse cx="2333.88" cy="445.9776" fill="#84BE84" rx="3" ry="3" style="stroke:#038048;stroke-width:1;"/><text fill="#000000" font-family="sans-serif" font-size="14" lengthAdjust="spacing" textLength="145.8094" x="2342.88" y="449.9096">Create(c *gin.Context)</text><ellipse cx="2333.88" cy="465.0455" fill="#84BE84" rx="3" ry="3" style="stroke:#038048;stroke-width:1;"/><text fill="#000000" font-family="sans-serif" font-size="14" lengthAdjust="spacing" textLength="135.5475" x="2342.88" y="468.9775">Read(c *gin.Context)</text><ellipse cx="2333.88" cy="484.1134" fill="#84BE84" rx="3" ry="3" style="stroke:#038048;stroke-width:1;"/><text fill="#000000" font-family="sans-serif" font-size="14" lengthAdjust="spacing" textLength="150.7374" x="2342.88" y="488.0454">Update(c *gin.Context)</text><ellipse cx="2333.88" cy="503.1814" fill="#84BE84" rx="3" ry="3" style="stroke:#038048;stroke-width:1;"/><text fill="#000000" font-family="sans-serif" font-size="14" lengthAdjust="spacing" textLength="145.0534" x="2342.88" y="507.1133">Delete(c *gin.Context)</text><ellipse cx="2333.88" cy="522.2493" fill="#84BE84" rx="3" ry="3" style="stroke:#038048;stroke-width:1;"/><text fill="#000000" font-family="sans-serif" font-size="14" lengthAdjust="spacing" textLength="174.5233" x="2342.88" y="526.1813">GetRouterGroups() (string,</text><text fill="#0000FF" font-family="sans-serif" font-size="14" lengthAdjust="spacing" textLength="29.5539" x="2521.0433" y="526.1813">map</text><text fill="#000000" font-family="sans-serif" font-size="14" lengthAdjust="spacing" textLength="160.5234" x="2550.5972" y="526.1813">[string]gin.HandlerFunc)</text></g><!--class DaoService--><g id="elem_DaoService"><rect codeLine="100" fill="#F1F1F1" height="238.6792" id="DaoService" rx="2.5" ry="2.5" style="stroke:#181818;stroke-width:0.5;" width="460.0123" x="1827.99" y="305.142"/><ellipse cx="2017.1223" cy="321.142" fill="#7FFFD4" rx="11" ry="11" style="stroke:#181818;stroke-width:1;"/><path d="M2016.2473,327.8139 Q2015.2473,327.8139 2014.2942,327.6264 Q2013.341,327.4389 2012.5598,327.0639 L2012.5598,324.892 Q2013.6535,325.3764 2014.5129,325.5951 Q2015.3879,325.8139 2016.2785,325.8139 Q2017.0754,325.8139 2017.5754,325.6107 Q2018.0754,325.4076 2018.3098,325.0326 Q2018.5442,324.642 2018.5442,324.0326 Q2018.5442,323.5639 2018.3567,323.3139 Q2018.1848,323.0482 2017.6223,322.7514 Q2017.0598,322.4545 2015.9817,321.9857 Q2015.2473,321.6576 2014.5285,321.2357 Q2013.8098,320.8139 2013.3254,320.0951 Q2012.841,319.3764 2012.841,318.2201 Q2012.841,317.0639 2013.3567,316.267 Q2013.8879,315.4545 2014.8254,315.0482 Q2015.7785,314.642 2017.0598,314.642 Q2018.0285,314.642 2018.8723,314.8451 Q2019.716,315.0482 2020.6535,315.5014 L2019.9192,317.4076 Q2019.0442,317.0014 2018.3567,316.8451 Q2017.6848,316.6889 2017.0285,316.6889 Q2016.4192,316.6889 2015.9817,316.8451 Q2015.5442,317.0014 2015.3098,317.3451 Q2015.091,317.6732 2015.091,318.2514 Q2015.091,318.7357 2015.2785,319.0326 Q2015.4817,319.3295 2015.966,319.5951 Q2016.466,319.8451 2017.3254,320.2201 Q2018.3098,320.6264 2019.0754,321.0639 Q2019.8567,321.5014 2020.3254,322.2045 Q2020.8098,322.892 2020.8098,324.0482 Q2020.8098,324.9232 2020.5129,325.642 Q2020.216,326.3451 2019.6223,326.8451 Q2019.0285,327.3295 2018.1848,327.5795 Q2017.341,327.8139 2016.2473,327.8139 Z " fill="#000000"/><text fill="#000000" font-family="sans-serif" font-size="14" lengthAdjust="spacing" textLength="73.2477" x="2037.6223" y="326.574">DaoService</text><line style="stroke:#181818;stroke-width:0.5;" x1="1828.99" x2="2287.0023" y1="337.142" y2="337.142"/><rect fill="transparent" height="6" style="stroke:#C82930;stroke-width:1;" width="6" x="1835.99" y="349.1759"/><text fill="#000000" font-family="sans-serif" font-size="14" lengthAdjust="spacing" textLength="87.3597" x="1847.99" y="356.1079">dao dao.DAO</text><line style="stroke:#181818;stroke-width:0.5;" x1="1828.99" x2="2287.0023" y1="364.2099" y2="364.2099"/><ellipse cx="1838.99" cy="379.2439" fill="#84BE84" rx="3" ry="3" style="stroke:#038048;stroke-width:1;"/><text fill="#000000" font-family="sans-serif" font-size="14" lengthAdjust="spacing" textLength="173.6833" x="1847.99" y="383.1758">New(d any) (Service, error)</text><ellipse cx="1838.99" cy="398.3118" fill="#84BE84" rx="3" ry="3" style="stroke:#038048;stroke-width:1;"/><text fill="#000000" font-family="sans-serif" font-size="14" lengthAdjust="spacing" textLength="434.0123" x="1847.99" y="402.2438">SearchByKeyValue(key string, value string) ([]dao.MetaData, error)</text><ellipse cx="1838.99" cy="417.3797" fill="#84BE84" rx="3" ry="3" style="stroke:#038048;stroke-width:1;"/><text fill="#000000" font-family="sans-serif" font-size="14" lengthAdjust="spacing" textLength="286.3129" x="1847.99" y="421.3117">Connect(params dao.ConnectParams) error</text><ellipse cx="1838.99" cy="436.4476" fill="#84BE84" rx="3" ry="3" style="stroke:#038048;stroke-width:1;"/><text fill="#000000" font-family="sans-serif" font-size="14" lengthAdjust="spacing" textLength="118.4535" x="1847.99" y="440.3796">Disconnect() error</text><ellipse cx="1838.99" cy="455.5155" fill="#84BE84" rx="3" ry="3" style="stroke:#038048;stroke-width:1;"/><text fill="#000000" font-family="sans-serif" font-size="14" lengthAdjust="spacing" textLength="213.9612" x="1847.99" y="459.4475">Create(doc dao.Document) error</text><ellipse cx="1838.99" cy="474.5834" fill="#84BE84" rx="3" ry="3" style="stroke:#038048;stroke-width:1;"/><text fill="#000000" font-family="sans-serif" font-size="14" lengthAdjust="spacing" textLength="433.9143" x="1847.99" y="478.5154">Read(doc *dao.Document, uuid uuid.UUID) (dao.Document, error)</text><ellipse cx="1838.99" cy="493.6514" fill="#84BE84" rx="3" ry="3" style="stroke:#038048;stroke-width:1;"/><text fill="#000000" font-family="sans-serif" font-size="14" lengthAdjust="spacing" textLength="261.967" x="1847.99" y="497.5833">ReadRaw(uuid uuid.UUID) ([]byte, error)</text><ellipse cx="1838.99" cy="512.7193" fill="#84BE84" rx="3" ry="3" style="stroke:#038048;stroke-width:1;"/><text fill="#000000" font-family="sans-serif" font-size="14" lengthAdjust="spacing" textLength="218.8892" x="1847.99" y="516.6513">Update(doc dao.Document) error</text><ellipse cx="1838.99" cy="531.7872" fill="#84BE84" rx="3" ry="3" style="stroke:#038048;stroke-width:1;"/><text fill="#000000" font-family="sans-serif" font-size="14" lengthAdjust="spacing" textLength="172.8993" x="1847.99" y="535.7192">Delete(id uuid.UUID) error</text></g><!--class Handler--><g id="elem_Handler"><rect codeLine="114" fill="#F1F1F1" height="86.1358" id="Handler" rx="2.5" ry="2.5" style="stroke:#181818;stroke-width:0.5;" width="394.2406" x="2322.88" y="101.802"/><ellipse cx="2490.8234" cy="117.802" fill="#B4A7E5" rx="11" ry="11" style="stroke:#181818;stroke-width:1;"/><path d="M2487.1984,124.302 L2487.1984,122.5989 L2489.6359,122.3645 L2489.6359,113.4114 L2487.1984,113.1926 L2487.1984,111.4739 L2494.339,111.4739 L2494.339,113.1926 L2491.8546,113.4114 L2491.8546,122.3645 L2494.339,122.5989 L2494.339,124.302 L2487.1984,124.302 Z " fill="#000000"/><text fill="#000000" font-family="sans-serif" font-size="14" font-style="italic" lengthAdjust="spacing" textLength="49.8538" x="2511.3234" y="123.234">Handler</text><line style="stroke:#181818;stroke-width:0.5;" x1="2323.88" x2="2716.1206" y1="133.802" y2="133.802"/><line style="stroke:#181818;stroke-width:0.5;" x1="2323.88" x2="2716.1206" y1="141.802" y2="141.802"/><ellipse cx="2333.88" cy="156.8359" fill="#84BE84" rx="3" ry="3" style="stroke:#038048;stroke-width:1;"/><text fill="#000000" font-family="sans-serif" font-size="14" lengthAdjust="spacing" textLength="174.5233" x="2342.88" y="160.7679">GetRouterGroups() (string,</text><text fill="#0000FF" font-family="sans-serif" font-size="14" lengthAdjust="spacing" textLength="29.5539" x="2521.0433" y="160.7679">map</text><text fill="#000000" font-family="sans-serif" font-size="14" lengthAdjust="spacing" textLength="160.5234" x="2550.5972" y="160.7679">[string]gin.HandlerFunc)</text><ellipse cx="2333.88" cy="175.9039" fill="#84BE84" rx="3" ry="3" style="stroke:#038048;stroke-width:1;"/><text fill="#000000" font-family="sans-serif" font-size="14" lengthAdjust="spacing" textLength="105.5316" x="2342.88" y="179.8358">GetService() any</text></g><!--class RequestBody--><g id="elem_RequestBody"><rect codeLine="119" fill="#F1F1F1" height="67.0679" id="RequestBody" rx="2.5" ry="2.5" style="stroke:#181818;stroke-width:0.5;" width="118.8417" x="2168.58" y="111.342"/><ellipse cx="2183.58" cy="127.342" fill="#7FFFD4" rx="11" ry="11" style="stroke:#181818;stroke-width:1;"/><path d="M2182.705,134.0139 Q2181.705,134.0139 2180.7519,133.8264 Q2179.7988,133.6389 2179.0175,133.2639 L2179.0175,131.092 Q2180.1113,131.5764 2180.9706,131.7951 Q2181.8456,132.0139 2182.7363,132.0139 Q2183.5331,132.0139 2184.0331,131.8107 Q2184.5331,131.6076 2184.7675,131.2326 Q2185.0019,130.842 2185.0019,130.2326 Q2185.0019,129.7639 2184.8144,129.5139 Q2184.6425,129.2482 2184.08,128.9514 Q2183.5175,128.6545 2182.4394,128.1857 Q2181.705,127.8576 2180.9863,127.4357 Q2180.2675,127.0139 2179.7831,126.2951 Q2179.2988,125.5764 2179.2988,124.4201 Q2179.2988,123.2639 2179.8144,122.467 Q2180.3456,121.6545 2181.2831,121.2482 Q2182.2363,120.842 2183.5175,120.842 Q2184.4863,120.842 2185.33,121.0451 Q2186.1738,121.2482 2187.1113,121.7014 L2186.3769,123.6076 Q2185.5019,123.2014 2184.8144,123.0451 Q2184.1425,122.8889 2183.4863,122.8889 Q2182.8769,122.8889 2182.4394,123.0451 Q2182.0019,123.2014 2181.7675,123.5451 Q2181.5488,123.8732 2181.5488,124.4514 Q2181.5488,124.9357 2181.7363,125.2326 Q2181.9394,125.5295 2182.4238,125.7951 Q2182.9238,126.0451 2183.7831,126.4201 Q2184.7675,126.8264 2185.5331,127.2639 Q2186.3144,127.7014 2186.7831,128.4045 Q2187.2675,129.092 2187.2675,130.2482 Q2187.2675,131.1232 2186.9706,131.842 Q2186.6738,132.5451 2186.08,133.0451 Q2185.4863,133.5295 2184.6425,133.7795 Q2183.7988,134.0139 2182.705,134.0139 Z " fill="#000000"/><text fill="#000000" font-family="sans-serif" font-size="14" lengthAdjust="spacing" textLength="86.8417" x="2197.58" y="132.774">RequestBody</text><line style="stroke:#181818;stroke-width:0.5;" x1="2169.58" x2="2286.4217" y1="143.342" y2="143.342"/><ellipse cx="2179.58" cy="158.3759" fill="transparent" rx="3" ry="3" style="stroke:#038048;stroke-width:1;"/><text fill="#000000" font-family="sans-serif" font-size="14" lengthAdjust="spacing" textLength="73.1217" x="2188.58" y="162.3079">Udid string</text><line style="stroke:#181818;stroke-width:0.5;" x1="2169.58" x2="2286.4217" y1="170.4099" y2="170.4099"/></g><!--class Service--><g id="elem_Service"><rect codeLine="123" fill="#F1F1F1" height="67.0679" id="Service" rx="2.5" ry="2.5" style="stroke:#181818;stroke-width:0.5;" width="191.0733" x="1942.46" y="111.342"/><ellipse cx="2012.1937" cy="127.342" fill="#B4A7E5" rx="11" ry="11" style="stroke:#181818;stroke-width:1;"/><path d="M2008.5687,133.842 L2008.5687,132.1389 L2011.0062,131.9045 L2011.0062,122.9514 L2008.5687,122.7326 L2008.5687,121.0139 L2015.7094,121.0139 L2015.7094,122.7326 L2013.225,122.9514 L2013.225,131.9045 L2015.7094,132.1389 L2015.7094,133.842 L2008.5687,133.842 Z " fill="#000000"/><text fill="#000000" font-family="sans-serif" font-size="14" font-style="italic" lengthAdjust="spacing" textLength="43.1059" x="2032.6937" y="132.774">Service</text><line style="stroke:#181818;stroke-width:0.5;" x1="1943.46" x2="2132.5333" y1="143.342" y2="143.342"/><line style="stroke:#181818;stroke-width:0.5;" x1="1943.46" x2="2132.5333" y1="151.342" y2="151.342"/><ellipse cx="1953.46" cy="166.3759" fill="#84BE84" rx="3" ry="3" style="stroke:#038048;stroke-width:1;"/><text fill="#000000" font-family="sans-serif" font-size="14" lengthAdjust="spacing" textLength="165.0733" x="1962.46" y="170.3079">New( any) (Service, error)</text></g><!--reverse link ConnectParams to BoltConnectionParams--><g id="link_ConnectParams_BoltConnectionParams"><path codeLine="82" d="M1234.4172,196.7396 C1230.3672,241.7596 1224.63,305.452 1219.54,361.972 " fill="transparent" id="ConnectParams-backto-BoltConnectionParams" style="stroke:#181818;stroke-width:1;"/><polygon fill="transparent" points="1236.03,178.812,1228.4414,196.202,1240.3931,197.2772,1236.03,178.812" style="stroke:#181818;stroke-width:1;"/></g><!--reverse link DAO to BoltDao--><g id="link_DAO_BoltDao"><path codeLine="83" d="M1556,263.312 C1556,285.712 1556,291.612 1556,314.382 " fill="transparent" id="DAO-backto-BoltDao" style="stroke:#181818;stroke-width:1;"/><polygon fill="transparent" points="1556,245.312,1550,263.312,1562,263.312,1556,245.312" style="stroke:#181818;stroke-width:1;"/></g><!--reverse link Document to Notes--><g id="link_Document_Notes"><path codeLine="84" d="M1003.6107,234.5005 C997.1607,261.2505 993.85,274.942 986.63,304.852 " fill="transparent" id="Document-backto-Notes" style="stroke:#181818;stroke-width:1;"/><polygon fill="transparent" points="1007.83,217.002,997.7779,233.0941,1009.4436,235.9069,1007.83,217.002" style="stroke:#181818;stroke-width:1;"/></g><!--reverse link Handler to APIHandler--><g id="link_Handler_APIHandler"><path codeLine="129" d="M2520,206.332 C2520,239.832 2520,270.082 2520,314.182 " fill="transparent" id="Handler-backto-APIHandler" style="stroke:#181818;stroke-width:1;"/><polygon fill="transparent" points="2520,188.332,2514,206.332,2526,206.332,2520,188.332" style="stroke:#181818;stroke-width:1;"/></g><!--reverse link DAO to DaoService--><g id="link_DAO_DaoService"><path codeLine="130" d="M1751.923,254.2208 C1786.653,273.4208 1807.6,285.012 1843.3,304.752 " fill="transparent" id="DAO-backto-DaoService" style="stroke:#181818;stroke-width:1;"/><polygon fill="transparent" points="1736.17,245.512,1749.02,259.4718,1754.8259,248.9698,1736.17,245.512" style="stroke:#181818;stroke-width:1;"/></g><!--reverse link Service to DaoService--><g id="link_Service_DaoService"><path codeLine="131" d="M2041.6635,196.7654 C2043.9135,227.9954 2046.14,258.902 2049.45,304.762 " fill="transparent" id="Service-backto-DaoService" style="stroke:#181818;stroke-width:1;"/><polygon fill="transparent" points="2040.37,178.812,2035.679,197.1966,2047.648,196.3343,2040.37,178.812" style="stroke:#181818;stroke-width:1;"/></g><!--reverse link <font color=blue>func</font>() Document to DocumentFactoryFunc--><g id="link_&lt;font color=blue&gt;func&lt;/font&gt;() Document_DocumentFactoryFunc"><path codeLine="133" d="M94.9308,174.0504 C98.5008,226.3104 106.82,347.782 110.4,400.162 " fill="transparent" id="&lt;font color=blue&gt;func&lt;/font&gt;() Document-backto-DocumentFactoryFunc" style="stroke:#181818;stroke-width:1;stroke-dasharray:7.0,7.0;"/><rect fill="#FFFFFF" height="10" style="stroke:#181818;stroke-width:1.5;" width="10" x="89.59" y="164.062"/></g><!--SRC=[hLPBSzem4BxxLsZ8nQH0SyibPGRY8SsqIHa8lMHo4FO2dXhBaUMadZR_lP8jOSaoTXxD1KVxtlts4UCzf0ds0GMOe3yEudz-XDCKJKd4BaaSWyz24iynnViKNLmWTpcOF6PuZsaOGn-Dnr9A_7r2SynsA6MSjjLURqW0Q9EEPc44ubiZ_KXOYaxNtDY8Vt9BgNEW3j4MM6dPxICSvoNffUQbnptlS6o8WhMquaqTpRoCqFKJzLdQwoEWb52DqmjJNpBRn4iAc84R41zvnC_s43ERQG4uME1dDmnGbeN1QBMwzlh8lNzOvmm69Nk_nb-eF5Kw1wWcMn4iwLKITBlaGGISoTHQPre2flvkcd-3_2UECd1_GIvhF41FuaN-LmHp0mnxcE63IrhDmfW1tGYq6Sb6HgLQQbx9UvCVo02Uh417-bqzbw_DfAhRwwhsmMnP1UokNblj5BxVWUxcl4jdpEHV0RiBMGHSrkhzfQ8TmgxRvj8g3Lo1-ZHL71WEz4OzrrxbWZKhbEypx3D2y-wPGM4RScMSSqDuo3w92FsovXKSxt5oyLayZkzBQmyrvRCizXq3Gq8LKCLsboT5RuhV0pesqh46NNsaARk5PyLIqz44P2iFAeFTqxmed5tIISPsXDhlysmTXUcEwsuG-evJLa8wi8bYCMXXwC0quklSD2lU2aS1S4iOfE-EMgGj46bhG2ZlBYQwGhVyXjPWciKFziSUD0yRTKbVvNGrj2YIByFX36zlCtv8Z1eGNEJzRe1EPhFpyxEp8kioxI_EY-FqX9mnfNheukzmY0f2qpNIAsNuAgXpyej04QKZEaS1WvxZn8VR9mNw5F9V_VwPpA-_uZY8W7OZXjjRIXNLfmbYO_ASDkIe1XgffA5AjVN2puDj68-AqlrcnfoGEx65ezY9BNIvWreuv0vguU31B4Z6PzyL9LaYjhgh1juhvghGAkjGpC66iLubl_iAvAUYn8nZ3bGtAD7kIbqVtkp2JCjsLuivAIyW2_plFq1rR1svWegZKkSR53U4SU2OvAD7aILtz33I3j9s5rkEqiQRHBLf_IJvdwXhwKqBa0jup21bKnBatQDZ5JGkh2ewXMr3IW3s25wrYIh7cef4pK3rN4quUv8gdggvUfK-zTB2MogqChtXoPIfvjchXlF9Q8HwHnP7xny0]--></g></svg>