<svg xmlns="http://www.w3.org/2000/svg" xmlns:xlink="http://www.w3.org/1999/xlink" contentStyleType="text/css" data-diagram-type="CLASS" height="547px" preserveAspectRatio="none" style="width:2036px;height:547px;background:#FFFFFF;" version="1.1" viewBox="0 0 2036 547" width="2036px" zoomAndPan="magnify"><defs/><g><!--cluster dao--><g id="cluster_dao"><path d="M8.5,6.602 L34.4339,6.602 A3.75,3.75 0 0 1 36.9339,9.102 L43.9339,31.6699 L1081.5,31.6699 A2.5,2.5 0 0 1 1084,34.1699 L1084,538.252 A2.5,2.5 0 0 1 1081.5,540.752 L8.5,540.752 A2.5,2.5 0 0 1 6,538.252 L6,9.102 A2.5,2.5 0 0 1 8.5,6.602 " fill="transparent" style="stroke:#000000;stroke-width:1.5;"/><line style="stroke:#000000;stroke-width:1.5;" x1="6" x2="43.9339" y1="31.6699" y2="31.6699"/><text fill="#000000" font-family="sans-serif" font-size="14" font-weight="bold" lengthAdjust="spacing" textLength="24.9339" x="10" y="23.5679">dao</text></g><!--cluster service--><g id="cluster_service"><path d="M1110.5,54.272 L1157.2238,54.272 A3.75,3.75 0 0 1 1159.7238,56.772 L1166.7238,79.3399 L2026.5,79.3399 A2.5,2.5 0 0 1 2029,81.8399 L2029,528.722 A2.5,2.5 0 0 1 2026.5,531.222 L1110.5,531.222 A2.5,2.5 0 0 1 1108,528.722 L1108,56.772 A2.5,2.5 0 0 1 1110.5,54.272 " fill="transparent" style="stroke:#000000;stroke-width:1.5;"/><line style="stroke:#000000;stroke-width:1.5;" x1="1108" x2="1166.7238" y1="79.3399" y2="79.3399"/><text fill="#000000" font-family="sans-serif" font-size="14" font-weight="bold" lengthAdjust="spacing" textLength="45.7238" x="1112" y="71.2379">service</text></g><!--class BoltConnectionParams--><g id="elem_BoltConnectionParams"><rect codeLine="2" fill="#F1F1F1" height="124.2717" id="BoltConnectionParams" rx="2.5" ry="2.5" style="stroke:#181818;stroke-width:0.5;" width="183.0174" x="418.49" y="343.272"/><ellipse cx="433.49" cy="359.272" fill="#7FFFD4" rx="11" ry="11" style="stroke:#181818;stroke-width:1;"/><path d="M432.615,365.9439 Q431.615,365.9439 430.6619,365.7564 Q429.7088,365.5689 428.9275,365.1939 L428.9275,363.022 Q430.0213,363.5064 430.8806,363.7251 Q431.7556,363.9439 432.6463,363.9439 Q433.4431,363.9439 433.9431,363.7407 Q434.4431,363.5376 434.6775,363.1626 Q434.9119,362.772 434.9119,362.1626 Q434.9119,361.6939 434.7244,361.4439 Q434.5525,361.1782 433.99,360.8814 Q433.4275,360.5845 432.3494,360.1157 Q431.615,359.7876 430.8963,359.3657 Q430.1775,358.9439 429.6931,358.2251 Q429.2088,357.5064 429.2088,356.3501 Q429.2088,355.1939 429.7244,354.397 Q430.2556,353.5845 431.1931,353.1782 Q432.1463,352.772 433.4275,352.772 Q434.3963,352.772 435.24,352.9751 Q436.0838,353.1782 437.0213,353.6314 L436.2869,355.5376 Q435.4119,355.1314 434.7244,354.9751 Q434.0525,354.8189 433.3963,354.8189 Q432.7869,354.8189 432.3494,354.9751 Q431.9119,355.1314 431.6775,355.4751 Q431.4588,355.8032 431.4588,356.3814 Q431.4588,356.8657 431.6463,357.1626 Q431.8494,357.4595 432.3338,357.7251 Q432.8338,357.9751 433.6931,358.3501 Q434.6775,358.7564 435.4431,359.1939 Q436.2244,359.6314 436.6931,360.3345 Q437.1775,361.022 437.1775,362.1782 Q437.1775,363.0532 436.8806,363.772 Q436.5838,364.4751 435.99,364.9751 Q435.3963,365.4595 434.5525,365.7095 Q433.7088,365.9439 432.615,365.9439 Z " fill="#000000"/><text fill="#000000" font-family="sans-serif" font-size="14" lengthAdjust="spacing" textLength="151.0174" x="447.49" y="364.704">BoltConnectionParams</text><line style="stroke:#181818;stroke-width:0.5;" x1="419.49" x2="600.5074" y1="375.272" y2="375.272"/><ellipse cx="429.49" cy="390.3059" fill="transparent" rx="3" ry="3" style="stroke:#038048;stroke-width:1;"/><text fill="#000000" font-family="sans-serif" font-size="14" lengthAdjust="spacing" textLength="72.0857" x="438.49" y="394.2379">Path string</text><ellipse cx="429.49" cy="409.3739" fill="transparent" rx="3" ry="3" style="stroke:#038048;stroke-width:1;"/><text fill="#000000" font-family="sans-serif" font-size="14" lengthAdjust="spacing" textLength="116.6476" x="438.49" y="413.3058">Mode fs.FileMode</text><ellipse cx="429.49" cy="428.4418" fill="transparent" rx="3" ry="3" style="stroke:#038048;stroke-width:1;"/><text fill="#000000" font-family="sans-serif" font-size="14" lengthAdjust="spacing" textLength="124.1936" x="438.49" y="432.3738">Opts *bolt.Options</text><line style="stroke:#181818;stroke-width:0.5;" x1="419.49" x2="600.5074" y1="440.4757" y2="440.4757"/><rect fill="#F24D5C" height="6" style="stroke:#C82930;stroke-width:1;" width="6" x="426.49" y="452.5097"/><text fill="#000000" font-family="sans-serif" font-size="14" lengthAdjust="spacing" textLength="107.0016" x="438.49" y="459.4417">getParams() any</text></g><!--class BoltDao--><g id="elem_BoltDao"><rect codeLine="10" fill="#F1F1F1" height="200.5433" id="BoltDao" rx="2.5" ry="2.5" style="stroke:#181818;stroke-width:0.5;" width="431.3264" x="636.34" y="305.142"/><ellipse cx="821.3633" cy="321.142" fill="#7FFFD4" rx="11" ry="11" style="stroke:#181818;stroke-width:1;"/><path d="M820.4883,327.8139 Q819.4883,327.8139 818.5352,327.6264 Q817.5821,327.4389 816.8008,327.0639 L816.8008,324.892 Q817.8946,325.3764 818.7539,325.5951 Q819.6289,325.8139 820.5196,325.8139 Q821.3164,325.8139 821.8164,325.6107 Q822.3164,325.4076 822.5508,325.0326 Q822.7852,324.642 822.7852,324.0326 Q822.7852,323.5639 822.5977,323.3139 Q822.4258,323.0482 821.8633,322.7514 Q821.3008,322.4545 820.2227,321.9857 Q819.4883,321.6576 818.7696,321.2357 Q818.0508,320.8139 817.5664,320.0951 Q817.0821,319.3764 817.0821,318.2201 Q817.0821,317.0639 817.5977,316.267 Q818.1289,315.4545 819.0664,315.0482 Q820.0196,314.642 821.3008,314.642 Q822.2696,314.642 823.1133,314.8451 Q823.9571,315.0482 824.8946,315.5014 L824.1602,317.4076 Q823.2852,317.0014 822.5977,316.8451 Q821.9258,316.6889 821.2696,316.6889 Q820.6602,316.6889 820.2227,316.8451 Q819.7852,317.0014 819.5508,317.3451 Q819.3321,317.6732 819.3321,318.2514 Q819.3321,318.7357 819.5196,319.0326 Q819.7227,319.3295 820.2071,319.5951 Q820.7071,319.8451 821.5664,320.2201 Q822.5508,320.6264 823.3164,321.0639 Q824.0977,321.5014 824.5664,322.2045 Q825.0508,322.892 825.0508,324.0482 Q825.0508,324.9232 824.7539,325.642 Q824.4571,326.3451 823.8633,326.8451 Q823.2696,327.3295 822.4258,327.5795 Q821.5821,327.8139 820.4883,327.8139 Z " fill="#000000"/><text fill="#000000" font-family="sans-serif" font-size="14" lengthAdjust="spacing" textLength="52.7798" x="841.8633" y="326.574">BoltDao</text><line style="stroke:#181818;stroke-width:0.5;" x1="637.34" x2="1066.6664" y1="337.142" y2="337.142"/><rect fill="transparent" height="6" style="stroke:#C82930;stroke-width:1;" width="6" x="644.34" y="349.1759"/><text fill="#000000" font-family="sans-serif" font-size="14" lengthAdjust="spacing" textLength="77.3917" x="656.34" y="356.1079">db *bolt.DB</text><line style="stroke:#181818;stroke-width:0.5;" x1="637.34" x2="1066.6664" y1="364.2099" y2="364.2099"/><ellipse cx="647.34" cy="379.2439" fill="#84BE84" rx="3" ry="3" style="stroke:#038048;stroke-width:1;"/><text fill="#000000" font-family="sans-serif" font-size="14" lengthAdjust="spacing" textLength="223.0611" x="656.34" y="383.1758">Connect(cp ConnectParams) error</text><ellipse cx="647.34" cy="398.3118" fill="#84BE84" rx="3" ry="3" style="stroke:#038048;stroke-width:1;"/><text fill="#000000" font-family="sans-serif" font-size="14" lengthAdjust="spacing" textLength="118.4535" x="656.34" y="402.2438">Disconnect() error</text><ellipse cx="647.34" cy="417.3797" fill="#84BE84" rx="3" ry="3" style="stroke:#038048;stroke-width:1;"/><text fill="#000000" font-family="sans-serif" font-size="14" lengthAdjust="spacing" textLength="185.2753" x="656.34" y="421.3117">Create(doc Document) error</text><ellipse cx="647.34" cy="436.4476" fill="#84BE84" rx="3" ry="3" style="stroke:#038048;stroke-width:1;"/><text fill="#000000" font-family="sans-serif" font-size="14" lengthAdjust="spacing" textLength="359.2386" x="656.34" y="440.3796">Read(doc *Document, id uuid.UUID) (Document, error)</text><ellipse cx="647.34" cy="455.5155" fill="#84BE84" rx="3" ry="3" style="stroke:#038048;stroke-width:1;"/><text fill="#000000" font-family="sans-serif" font-size="14" lengthAdjust="spacing" textLength="190.2033" x="656.34" y="459.4475">Update(doc Document) error</text><ellipse cx="647.34" cy="474.5834" fill="#84BE84" rx="3" ry="3" style="stroke:#038048;stroke-width:1;"/><text fill="#000000" font-family="sans-serif" font-size="14" lengthAdjust="spacing" textLength="172.8993" x="656.34" y="478.5154">Delete(id uuid.UUID) error</text><ellipse cx="647.34" cy="493.6514" fill="#84BE84" rx="3" ry="3" style="stroke:#038048;stroke-width:1;"/><text fill="#000000" font-family="sans-serif" font-size="14" lengthAdjust="spacing" textLength="405.3264" x="656.34" y="497.5833">SearchByKeyValue(key string, value string) ([]MetaData, error)</text></g><!--class ConnectParams--><g id="elem_ConnectParams"><rect codeLine="22" fill="#F1F1F1" height="67.0679" id="ConnectParams" rx="2.5" ry="2.5" style="stroke:#181818;stroke-width:0.5;" width="133.0016" x="468.5" y="101.802"/><ellipse cx="484.8509" cy="117.802" fill="#B4A7E5" rx="11" ry="11" style="stroke:#181818;stroke-width:1;"/><path d="M481.2259,124.302 L481.2259,122.5989 L483.6634,122.3645 L483.6634,113.4114 L481.2259,113.1926 L481.2259,111.4739 L488.3665,111.4739 L488.3665,113.1926 L485.8821,113.4114 L485.8821,122.3645 L488.3665,122.5989 L488.3665,124.302 L481.2259,124.302 Z " fill="#000000"/><text fill="#000000" font-family="sans-serif" font-size="14" font-style="italic" lengthAdjust="spacing" textLength="97.9996" x="499.1511" y="123.234">ConnectParams</text><line style="stroke:#181818;stroke-width:0.5;" x1="469.5" x2="600.5016" y1="133.802" y2="133.802"/><line style="stroke:#181818;stroke-width:0.5;" x1="469.5" x2="600.5016" y1="141.802" y2="141.802"/><rect fill="#F24D5C" height="6" style="stroke:#C82930;stroke-width:1;" width="6" x="476.5" y="153.8359"/><text fill="#000000" font-family="sans-serif" font-size="14" lengthAdjust="spacing" textLength="107.0016" x="488.5" y="160.7679">getParams() any</text></g><!--class DAO--><g id="elem_DAO"><rect codeLine="26" fill="#F1F1F1" height="181.4754" id="DAO" rx="2.5" ry="2.5" style="stroke:#181818;stroke-width:0.5;" width="431.3264" x="636.34" y="44.602"/><ellipse cx="834.1033" cy="60.602" fill="#B4A7E5" rx="11" ry="11" style="stroke:#181818;stroke-width:1;"/><path d="M830.4783,67.102 L830.4783,65.3989 L832.9158,65.1645 L832.9158,56.2114 L830.4783,55.9926 L830.4783,54.2739 L837.6189,54.2739 L837.6189,55.9926 L835.1345,56.2114 L835.1345,65.1645 L837.6189,65.3989 L837.6189,67.102 L830.4783,67.102 Z " fill="#000000"/><text fill="#000000" font-family="sans-serif" font-size="14" font-style="italic" lengthAdjust="spacing" textLength="27.2999" x="854.6033" y="66.034">DAO</text><line style="stroke:#181818;stroke-width:0.5;" x1="637.34" x2="1066.6664" y1="76.602" y2="76.602"/><line style="stroke:#181818;stroke-width:0.5;" x1="637.34" x2="1066.6664" y1="84.602" y2="84.602"/><ellipse cx="647.34" cy="99.6359" fill="#84BE84" rx="3" ry="3" style="stroke:#038048;stroke-width:1;"/><text fill="#000000" font-family="sans-serif" font-size="14" lengthAdjust="spacing" textLength="161.4754" x="656.34" y="103.5679">Create( Document) error</text><ellipse cx="647.34" cy="118.7039" fill="#84BE84" rx="3" ry="3" style="stroke:#038048;stroke-width:1;"/><text fill="#000000" font-family="sans-serif" font-size="14" lengthAdjust="spacing" textLength="323.2167" x="656.34" y="122.6358">Read( *Document,  uuid.UUID) (Document, error)</text><ellipse cx="647.34" cy="137.7718" fill="#84BE84" rx="3" ry="3" style="stroke:#038048;stroke-width:1;"/><text fill="#000000" font-family="sans-serif" font-size="14" lengthAdjust="spacing" textLength="405.3264" x="656.34" y="141.7038">SearchByKeyValue(key string, value string) ([]MetaData, error)</text><ellipse cx="647.34" cy="156.8397" fill="#84BE84" rx="3" ry="3" style="stroke:#038048;stroke-width:1;"/><text fill="#000000" font-family="sans-serif" font-size="14" lengthAdjust="spacing" textLength="166.4034" x="656.34" y="160.7717">Update( Document) error</text><ellipse cx="647.34" cy="175.9076" fill="#84BE84" rx="3" ry="3" style="stroke:#038048;stroke-width:1;"/><text fill="#000000" font-family="sans-serif" font-size="14" lengthAdjust="spacing" textLength="160.6774" x="656.34" y="179.8396">Delete( uuid.UUID) error</text><ellipse cx="647.34" cy="194.9755" fill="#84BE84" rx="3" ry="3" style="stroke:#038048;stroke-width:1;"/><text fill="#000000" font-family="sans-serif" font-size="14" lengthAdjust="spacing" textLength="207.7312" x="656.34" y="198.9075">Connect( ConnectParams) error</text><ellipse cx="647.34" cy="214.0434" fill="#84BE84" rx="3" ry="3" style="stroke:#038048;stroke-width:1;"/><text fill="#000000" font-family="sans-serif" font-size="14" lengthAdjust="spacing" textLength="118.4535" x="656.34" y="217.9754">Disconnect() error</text></g><!--class Document--><g id="elem_Document"><rect codeLine="36" fill="#F1F1F1" height="181.4754" id="Document" rx="2.5" ry="2.5" style="stroke:#181818;stroke-width:0.5;" width="224.9953" x="208.5" y="44.602"/><ellipse cx="284.9187" cy="60.602" fill="#B4A7E5" rx="11" ry="11" style="stroke:#181818;stroke-width:1;"/><path d="M281.2937,67.102 L281.2937,65.3989 L283.7312,65.1645 L283.7312,56.2114 L281.2937,55.9926 L281.2937,54.2739 L288.4344,54.2739 L288.4344,55.9926 L285.95,56.2114 L285.95,65.1645 L288.4344,65.3989 L288.4344,67.102 L281.2937,67.102 Z " fill="#000000"/><text fill="#000000" font-family="sans-serif" font-size="14" font-style="italic" lengthAdjust="spacing" textLength="63.6578" x="305.4187" y="66.034">Document</text><line style="stroke:#181818;stroke-width:0.5;" x1="209.5" x2="432.4953" y1="76.602" y2="76.602"/><line style="stroke:#181818;stroke-width:0.5;" x1="209.5" x2="432.4953" y1="84.602" y2="84.602"/><ellipse cx="219.5" cy="99.6359" fill="#84BE84" rx="3" ry="3" style="stroke:#038048;stroke-width:1;"/><text fill="#000000" font-family="sans-serif" font-size="14" lengthAdjust="spacing" textLength="101.5556" x="228.5" y="103.5679">GetTitle() string</text><ellipse cx="219.5" cy="118.7039" fill="#84BE84" rx="3" ry="3" style="stroke:#038048;stroke-width:1;"/><text fill="#000000" font-family="sans-serif" font-size="14" lengthAdjust="spacing" textLength="136.4015" x="228.5" y="122.6358">SetTitle( string) error</text><ellipse cx="219.5" cy="137.7718" fill="#84BE84" rx="3" ry="3" style="stroke:#038048;stroke-width:1;"/><text fill="#000000" font-family="sans-serif" font-size="14" lengthAdjust="spacing" textLength="164.1494" x="228.5" y="141.7038">GetMetaData() MetaData</text><ellipse cx="219.5" cy="156.8397" fill="#84BE84" rx="3" ry="3" style="stroke:#038048;stroke-width:1;"/><text fill="#000000" font-family="sans-serif" font-size="14" lengthAdjust="spacing" textLength="198.9953" x="228.5" y="160.7717">SetMetaData( MetaData) error</text><ellipse cx="219.5" cy="175.9076" fill="#84BE84" rx="3" ry="3" style="stroke:#038048;stroke-width:1;"/><text fill="#000000" font-family="sans-serif" font-size="14" lengthAdjust="spacing" textLength="111.4536" x="228.5" y="179.8396">GetContent() any</text><ellipse cx="219.5" cy="194.9755" fill="#84BE84" rx="3" ry="3" style="stroke:#038048;stroke-width:1;"/><text fill="#000000" font-family="sans-serif" font-size="14" lengthAdjust="spacing" textLength="146.2994" x="228.5" y="198.9075">SetContent( any) error</text><ellipse cx="219.5" cy="214.0434" fill="#84BE84" rx="3" ry="3" style="stroke:#038048;stroke-width:1;"/><text fill="#000000" font-family="sans-serif" font-size="14" lengthAdjust="spacing" textLength="118.8595" x="228.5" y="217.9754">GetID() uuid.UUID</text></g><!--class MetaData--><g id="elem_MetaData"><rect codeLine="46" fill="#F1F1F1" height="162.4075" id="MetaData" rx="2.5" ry="2.5" style="stroke:#181818;stroke-width:0.5;" width="151.8736" x="22.06" y="54.132"/><ellipse cx="61.9854" cy="70.132" fill="#7FFFD4" rx="11" ry="11" style="stroke:#181818;stroke-width:1;"/><path d="M61.1104,76.8039 Q60.1104,76.8039 59.1573,76.6164 Q58.2042,76.4289 57.4229,76.0539 L57.4229,73.882 Q58.5167,74.3664 59.376,74.5851 Q60.251,74.8039 61.1417,74.8039 Q61.9385,74.8039 62.4385,74.6007 Q62.9385,74.3976 63.1729,74.0226 Q63.4073,73.632 63.4073,73.0226 Q63.4073,72.5539 63.2198,72.3039 Q63.0479,72.0382 62.4854,71.7414 Q61.9229,71.4445 60.8448,70.9757 Q60.1104,70.6476 59.3917,70.2257 Q58.6729,69.8039 58.1885,69.0851 Q57.7042,68.3664 57.7042,67.2101 Q57.7042,66.0539 58.2198,65.257 Q58.751,64.4445 59.6885,64.0382 Q60.6417,63.632 61.9229,63.632 Q62.8917,63.632 63.7354,63.8351 Q64.5792,64.0382 65.5167,64.4914 L64.7823,66.3976 Q63.9073,65.9914 63.2198,65.8351 Q62.5479,65.6789 61.8917,65.6789 Q61.2823,65.6789 60.8448,65.8351 Q60.4073,65.9914 60.1729,66.3351 Q59.9542,66.6632 59.9542,67.2414 Q59.9542,67.7257 60.1417,68.0226 Q60.3448,68.3195 60.8292,68.5851 Q61.3292,68.8351 62.1885,69.2101 Q63.1729,69.6164 63.9385,70.0539 Q64.7198,70.4914 65.1885,71.1945 Q65.6729,71.882 65.6729,73.0382 Q65.6729,73.9132 65.376,74.632 Q65.0792,75.3351 64.4854,75.8351 Q63.8917,76.3195 63.0479,76.5695 Q62.2042,76.8039 61.1104,76.8039 Z " fill="#000000"/><text fill="#000000" font-family="sans-serif" font-size="14" lengthAdjust="spacing" textLength="64.4838" x="81.5244" y="75.564">MetaData</text><line style="stroke:#181818;stroke-width:0.5;" x1="23.06" x2="172.9336" y1="86.132" y2="86.132"/><ellipse cx="33.06" cy="101.1659" fill="transparent" rx="3" ry="3" style="stroke:#038048;stroke-width:1;"/><text fill="#000000" font-family="sans-serif" font-size="14" lengthAdjust="spacing" textLength="70.0137" x="42.06" y="105.0979">Title string</text><ellipse cx="33.06" cy="120.2339" fill="transparent" rx="3" ry="3" style="stroke:#038048;stroke-width:1;"/><text fill="#000000" font-family="sans-serif" font-size="14" lengthAdjust="spacing" textLength="87.6117" x="42.06" y="124.1658">Author string</text><ellipse cx="33.06" cy="139.3018" fill="transparent" rx="3" ry="3" style="stroke:#038048;stroke-width:1;"/><text fill="#000000" font-family="sans-serif" font-size="14" lengthAdjust="spacing" textLength="121.3935" x="42.06" y="143.2338">PublishDate string</text><ellipse cx="33.06" cy="158.3697" fill="transparent" rx="3" ry="3" style="stroke:#038048;stroke-width:1;"/><text fill="#000000" font-family="sans-serif" font-size="14" lengthAdjust="spacing" textLength="125.8736" x="42.06" y="162.3017">LastUpdated string</text><ellipse cx="33.06" cy="177.4376" fill="transparent" rx="3" ry="3" style="stroke:#038048;stroke-width:1;"/><text fill="#000000" font-family="sans-serif" font-size="14" lengthAdjust="spacing" textLength="95.8716" x="42.06" y="181.3696">FileType string</text><ellipse cx="33.06" cy="196.5055" fill="transparent" rx="3" ry="3" style="stroke:#038048;stroke-width:1;"/><text fill="#000000" font-family="sans-serif" font-size="14" lengthAdjust="spacing" textLength="103.4596" x="42.06" y="200.4375">Uuid uuid.UUID</text><line style="stroke:#181818;stroke-width:0.5;" x1="23.06" x2="172.9336" y1="208.5395" y2="208.5395"/></g><!--class Notes--><g id="elem_Notes"><rect codeLine="55" fill="#F1F1F1" height="238.6792" id="Notes" rx="2.5" ry="2.5" style="stroke:#181818;stroke-width:0.5;" width="258.8891" x="124.56" y="286.072"/><ellipse cx="230.3716" cy="302.072" fill="#7FFFD4" rx="11" ry="11" style="stroke:#181818;stroke-width:1;"/><path d="M229.4966,308.7439 Q228.4966,308.7439 227.5435,308.5564 Q226.5904,308.3689 225.8091,307.9939 L225.8091,305.822 Q226.9029,306.3064 227.7623,306.5251 Q228.6373,306.7439 229.5279,306.7439 Q230.3248,306.7439 230.8248,306.5407 Q231.3248,306.3376 231.5591,305.9626 Q231.7935,305.572 231.7935,304.9626 Q231.7935,304.4939 231.606,304.2439 Q231.4341,303.9782 230.8716,303.6814 Q230.3091,303.3845 229.231,302.9157 Q228.4966,302.5876 227.7779,302.1657 Q227.0591,301.7439 226.5748,301.0251 Q226.0904,300.3064 226.0904,299.1501 Q226.0904,297.9939 226.606,297.197 Q227.1373,296.3845 228.0748,295.9782 Q229.0279,295.572 230.3091,295.572 Q231.2779,295.572 232.1216,295.7751 Q232.9654,295.9782 233.9029,296.4314 L233.1685,298.3376 Q232.2935,297.9314 231.606,297.7751 Q230.9341,297.6189 230.2779,297.6189 Q229.6685,297.6189 229.231,297.7751 Q228.7935,297.9314 228.5591,298.2751 Q228.3404,298.6032 228.3404,299.1814 Q228.3404,299.6657 228.5279,299.9626 Q228.731,300.2595 229.2154,300.5251 Q229.7154,300.7751 230.5748,301.1501 Q231.5591,301.5564 232.3248,301.9939 Q233.106,302.4314 233.5748,303.1345 Q234.0591,303.822 234.0591,304.9782 Q234.0591,305.8532 233.7623,306.572 Q233.4654,307.2751 232.8716,307.7751 Q232.2779,308.2595 231.4341,308.5095 Q230.5904,308.7439 229.4966,308.7439 Z " fill="#000000"/><text fill="#000000" font-family="sans-serif" font-size="14" lengthAdjust="spacing" textLength="38.7659" x="250.8716" y="307.504">Notes</text><line style="stroke:#181818;stroke-width:0.5;" x1="125.56" x2="382.4491" y1="318.072" y2="318.072"/><ellipse cx="135.56" cy="333.1059" fill="transparent" rx="3" ry="3" style="stroke:#038048;stroke-width:1;"/><text fill="#000000" font-family="sans-serif" font-size="14" lengthAdjust="spacing" textLength="70.0137" x="144.56" y="337.0379">Title string</text><ellipse cx="135.56" cy="352.1739" fill="transparent" rx="3" ry="3" style="stroke:#038048;stroke-width:1;"/><text fill="#000000" font-family="sans-serif" font-size="14" lengthAdjust="spacing" textLength="130.9975" x="144.56" y="356.1058">Metadata MetaData</text><ellipse cx="135.56" cy="371.2418" fill="transparent" rx="3" ry="3" style="stroke:#038048;stroke-width:1;"/><text fill="#000000" font-family="sans-serif" font-size="14" lengthAdjust="spacing" textLength="94.6816" x="144.56" y="375.1738">Content string</text><line style="stroke:#181818;stroke-width:0.5;" x1="125.56" x2="382.4491" y1="383.2757" y2="383.2757"/><ellipse cx="135.56" cy="398.3097" fill="#84BE84" rx="3" ry="3" style="stroke:#038048;stroke-width:1;"/><text fill="#000000" font-family="sans-serif" font-size="14" lengthAdjust="spacing" textLength="101.5556" x="144.56" y="402.2417">GetTitle() string</text><ellipse cx="135.56" cy="417.3776" fill="#84BE84" rx="3" ry="3" style="stroke:#038048;stroke-width:1;"/><text fill="#000000" font-family="sans-serif" font-size="14" lengthAdjust="spacing" textLength="161.6294" x="144.56" y="421.3096">SetTitle(title string) error</text><ellipse cx="135.56" cy="436.4455" fill="#84BE84" rx="3" ry="3" style="stroke:#038048;stroke-width:1;"/><text fill="#000000" font-family="sans-serif" font-size="14" lengthAdjust="spacing" textLength="164.1494" x="144.56" y="440.3775">GetMetaData() MetaData</text><ellipse cx="135.56" cy="455.5134" fill="#84BE84" rx="3" ry="3" style="stroke:#038048;stroke-width:1;"/><text fill="#000000" font-family="sans-serif" font-size="14" lengthAdjust="spacing" textLength="232.8891" x="144.56" y="459.4454">SetMetaData(meta MetaData) error</text><ellipse cx="135.56" cy="474.5814" fill="#84BE84" rx="3" ry="3" style="stroke:#038048;stroke-width:1;"/><text fill="#000000" font-family="sans-serif" font-size="14" lengthAdjust="spacing" textLength="111.4536" x="144.56" y="478.5133">GetContent() any</text><ellipse cx="135.56" cy="493.6493" fill="#84BE84" rx="3" ry="3" style="stroke:#038048;stroke-width:1;"/><text fill="#000000" font-family="sans-serif" font-size="14" lengthAdjust="spacing" textLength="196.7972" x="144.56" y="497.5813">SetContent(content any) error</text><ellipse cx="135.56" cy="512.7172" fill="#84BE84" rx="3" ry="3" style="stroke:#038048;stroke-width:1;"/><text fill="#000000" font-family="sans-serif" font-size="14" lengthAdjust="spacing" textLength="118.8595" x="144.56" y="516.6492">GetID() uuid.UUID</text></g><!--class APIHandler--><g id="elem_APIHandler"><rect codeLine="76" fill="#F1F1F1" height="200.5433" id="APIHandler" rx="2.5" ry="2.5" style="stroke:#181818;stroke-width:0.5;" width="394.2406" x="1618.88" y="305.142"/><ellipse cx="1774.2794" cy="321.142" fill="#7FFFD4" rx="11" ry="11" style="stroke:#181818;stroke-width:1;"/><path d="M1773.4044,327.8139 Q1772.4044,327.8139 1771.4513,327.6264 Q1770.4982,327.4389 1769.7169,327.0639 L1769.7169,324.892 Q1770.8107,325.3764 1771.6701,325.5951 Q1772.5451,325.8139 1773.4357,325.8139 Q1774.2326,325.8139 1774.7326,325.6107 Q1775.2326,325.4076 1775.4669,325.0326 Q1775.7013,324.642 1775.7013,324.0326 Q1775.7013,323.5639 1775.5138,323.3139 Q1775.3419,323.0482 1774.7794,322.7514 Q1774.2169,322.4545 1773.1388,321.9857 Q1772.4044,321.6576 1771.6857,321.2357 Q1770.9669,320.8139 1770.4826,320.0951 Q1769.9982,319.3764 1769.9982,318.2201 Q1769.9982,317.0639 1770.5138,316.267 Q1771.0451,315.4545 1771.9826,315.0482 Q1772.9357,314.642 1774.2169,314.642 Q1775.1857,314.642 1776.0294,314.8451 Q1776.8732,315.0482 1777.8107,315.5014 L1777.0763,317.4076 Q1776.2013,317.0014 1775.5138,316.8451 Q1774.8419,316.6889 1774.1857,316.6889 Q1773.5763,316.6889 1773.1388,316.8451 Q1772.7013,317.0014 1772.4669,317.3451 Q1772.2482,317.6732 1772.2482,318.2514 Q1772.2482,318.7357 1772.4357,319.0326 Q1772.6388,319.3295 1773.1232,319.5951 Q1773.6232,319.8451 1774.4826,320.2201 Q1775.4669,320.6264 1776.2326,321.0639 Q1777.0138,321.5014 1777.4826,322.2045 Q1777.9669,322.892 1777.9669,324.0482 Q1777.9669,324.9232 1777.6701,325.642 Q1777.3732,326.3451 1776.7794,326.8451 Q1776.1857,327.3295 1775.3419,327.5795 Q1774.4982,327.8139 1773.4044,327.8139 Z " fill="#000000"/><text fill="#000000" font-family="sans-serif" font-size="14" lengthAdjust="spacing" textLength="74.9417" x="1794.7794" y="326.574">APIHandler</text><line style="stroke:#181818;stroke-width:0.5;" x1="1619.88" x2="2012.1206" y1="337.142" y2="337.142"/><ellipse cx="1629.88" cy="352.1759" fill="transparent" rx="3" ry="3" style="stroke:#038048;stroke-width:1;"/><text fill="#000000" font-family="sans-serif" font-size="14" lengthAdjust="spacing" textLength="150.1354" x="1638.88" y="356.1079">DaoService DaoService</text><line style="stroke:#181818;stroke-width:0.5;" x1="1619.88" x2="2012.1206" y1="364.2099" y2="364.2099"/><ellipse cx="1629.88" cy="379.2439" fill="#84BE84" rx="3" ry="3" style="stroke:#038048;stroke-width:1;"/><text fill="#000000" font-family="sans-serif" font-size="14" lengthAdjust="spacing" textLength="105.5316" x="1638.88" y="383.1758">GetService() any</text><ellipse cx="1629.88" cy="398.3118" fill="#84BE84" rx="3" ry="3" style="stroke:#038048;stroke-width:1;"/><text fill="#000000" font-family="sans-serif" font-size="14" lengthAdjust="spacing" textLength="223.4251" x="1638.88" y="402.2438">SearchByKeyValue(c *gin.Context)</text><ellipse cx="1629.88" cy="417.3797" fill="#84BE84" rx="3" ry="3" style="stroke:#038048;stroke-width:1;"/><text fill="#000000" font-family="sans-serif" font-size="14" lengthAdjust="spacing" textLength="145.8094" x="1638.88" y="421.3117">Create(c *gin.Context)</text><ellipse cx="1629.88" cy="436.4476" fill="#84BE84" rx="3" ry="3" style="stroke:#038048;stroke-width:1;"/><text fill="#000000" font-family="sans-serif" font-size="14" lengthAdjust="spacing" textLength="135.5475" x="1638.88" y="440.3796">Read(c *gin.Context)</text><ellipse cx="1629.88" cy="455.5155" fill="#84BE84" rx="3" ry="3" style="stroke:#038048;stroke-width:1;"/><text fill="#000000" font-family="sans-serif" font-size="14" lengthAdjust="spacing" textLength="150.7374" x="1638.88" y="459.4475">Update(c *gin.Context)</text><ellipse cx="1629.88" cy="474.5834" fill="#84BE84" rx="3" ry="3" style="stroke:#038048;stroke-width:1;"/><text fill="#000000" font-family="sans-serif" font-size="14" lengthAdjust="spacing" textLength="145.0534" x="1638.88" y="478.5154">Delete(c *gin.Context)</text><ellipse cx="1629.88" cy="493.6514" fill="#84BE84" rx="3" ry="3" style="stroke:#038048;stroke-width:1;"/><text fill="#000000" font-family="sans-serif" font-size="14" lengthAdjust="spacing" textLength="174.5233" x="1638.88" y="497.5833">GetRouterGroups() (string,</text><text fill="#0000FF" font-family="sans-serif" font-size="14" lengthAdjust="spacing" textLength="29.5539" x="1817.0433" y="497.5833">map</text><text fill="#000000" font-family="sans-serif" font-size="14" lengthAdjust="spacing" textLength="160.5234" x="1846.5972" y="497.5833">[string]gin.HandlerFunc)</text></g><!--class DaoService--><g id="elem_DaoService"><rect codeLine="88" fill="#F1F1F1" height="219.6113" id="DaoService" rx="2.5" ry="2.5" style="stroke:#181818;stroke-width:0.5;" width="460.0123" x="1123.99" y="295.602"/><ellipse cx="1313.1223" cy="311.602" fill="#7FFFD4" rx="11" ry="11" style="stroke:#181818;stroke-width:1;"/><path d="M1312.2473,318.2739 Q1311.2473,318.2739 1310.2942,318.0864 Q1309.341,317.8989 1308.5598,317.5239 L1308.5598,315.352 Q1309.6535,315.8364 1310.5129,316.0551 Q1311.3879,316.2739 1312.2785,316.2739 Q1313.0754,316.2739 1313.5754,316.0707 Q1314.0754,315.8676 1314.3098,315.4926 Q1314.5442,315.102 1314.5442,314.4926 Q1314.5442,314.0239 1314.3567,313.7739 Q1314.1848,313.5082 1313.6223,313.2114 Q1313.0598,312.9145 1311.9817,312.4457 Q1311.2473,312.1176 1310.5285,311.6957 Q1309.8098,311.2739 1309.3254,310.5551 Q1308.841,309.8364 1308.841,308.6801 Q1308.841,307.5239 1309.3567,306.727 Q1309.8879,305.9145 1310.8254,305.5082 Q1311.7785,305.102 1313.0598,305.102 Q1314.0285,305.102 1314.8723,305.3051 Q1315.716,305.5082 1316.6535,305.9614 L1315.9192,307.8676 Q1315.0442,307.4614 1314.3567,307.3051 Q1313.6848,307.1489 1313.0285,307.1489 Q1312.4192,307.1489 1311.9817,307.3051 Q1311.5442,307.4614 1311.3098,307.8051 Q1311.091,308.1332 1311.091,308.7114 Q1311.091,309.1957 1311.2785,309.4926 Q1311.4817,309.7895 1311.966,310.0551 Q1312.466,310.3051 1313.3254,310.6801 Q1314.3098,311.0864 1315.0754,311.5239 Q1315.8567,311.9614 1316.3254,312.6645 Q1316.8098,313.352 1316.8098,314.5082 Q1316.8098,315.3832 1316.5129,316.102 Q1316.216,316.8051 1315.6223,317.3051 Q1315.0285,317.7895 1314.1848,318.0395 Q1313.341,318.2739 1312.2473,318.2739 Z " fill="#000000"/><text fill="#000000" font-family="sans-serif" font-size="14" lengthAdjust="spacing" textLength="73.2477" x="1333.6223" y="317.034">DaoService</text><line style="stroke:#181818;stroke-width:0.5;" x1="1124.99" x2="1583.0023" y1="327.602" y2="327.602"/><rect fill="transparent" height="6" style="stroke:#C82930;stroke-width:1;" width="6" x="1131.99" y="339.6359"/><text fill="#000000" font-family="sans-serif" font-size="14" lengthAdjust="spacing" textLength="87.3597" x="1143.99" y="346.5679">dao dao.DAO</text><line style="stroke:#181818;stroke-width:0.5;" x1="1124.99" x2="1583.0023" y1="354.6699" y2="354.6699"/><ellipse cx="1134.99" cy="369.7039" fill="#84BE84" rx="3" ry="3" style="stroke:#038048;stroke-width:1;"/><text fill="#000000" font-family="sans-serif" font-size="14" lengthAdjust="spacing" textLength="101.1216" x="1143.99" y="373.6358">New(d any) any</text><ellipse cx="1134.99" cy="388.7718" fill="#84BE84" rx="3" ry="3" style="stroke:#038048;stroke-width:1;"/><text fill="#000000" font-family="sans-serif" font-size="14" lengthAdjust="spacing" textLength="434.0123" x="1143.99" y="392.7038">SearchByKeyValue(key string, value string) ([]dao.MetaData, error)</text><ellipse cx="1134.99" cy="407.8397" fill="#84BE84" rx="3" ry="3" style="stroke:#038048;stroke-width:1;"/><text fill="#000000" font-family="sans-serif" font-size="14" lengthAdjust="spacing" textLength="286.3129" x="1143.99" y="411.7717">Connect(params dao.ConnectParams) error</text><ellipse cx="1134.99" cy="426.9076" fill="#84BE84" rx="3" ry="3" style="stroke:#038048;stroke-width:1;"/><text fill="#000000" font-family="sans-serif" font-size="14" lengthAdjust="spacing" textLength="118.4535" x="1143.99" y="430.8396">Disconnect() error</text><ellipse cx="1134.99" cy="445.9755" fill="#84BE84" rx="3" ry="3" style="stroke:#038048;stroke-width:1;"/><text fill="#000000" font-family="sans-serif" font-size="14" lengthAdjust="spacing" textLength="213.9612" x="1143.99" y="449.9075">Create(doc dao.Document) error</text><ellipse cx="1134.99" cy="465.0434" fill="#84BE84" rx="3" ry="3" style="stroke:#038048;stroke-width:1;"/><text fill="#000000" font-family="sans-serif" font-size="14" lengthAdjust="spacing" textLength="433.9143" x="1143.99" y="468.9754">Read(doc *dao.Document, uuid uuid.UUID) (dao.Document, error)</text><ellipse cx="1134.99" cy="484.1114" fill="#84BE84" rx="3" ry="3" style="stroke:#038048;stroke-width:1;"/><text fill="#000000" font-family="sans-serif" font-size="14" lengthAdjust="spacing" textLength="218.8892" x="1143.99" y="488.0433">Update(doc dao.Document) error</text><ellipse cx="1134.99" cy="503.1793" fill="#84BE84" rx="3" ry="3" style="stroke:#038048;stroke-width:1;"/><text fill="#000000" font-family="sans-serif" font-size="14" lengthAdjust="spacing" textLength="172.8993" x="1143.99" y="507.1113">Delete(id uuid.UUID) error</text></g><!--class Handler--><g id="elem_Handler"><rect codeLine="101" fill="#F1F1F1" height="86.1358" id="Handler" rx="2.5" ry="2.5" style="stroke:#181818;stroke-width:0.5;" width="394.2406" x="1618.88" y="92.272"/><ellipse cx="1786.8234" cy="108.272" fill="#B4A7E5" rx="11" ry="11" style="stroke:#181818;stroke-width:1;"/><path d="M1783.1984,114.772 L1783.1984,113.0689 L1785.6359,112.8345 L1785.6359,103.8814 L1783.1984,103.6626 L1783.1984,101.9439 L1790.339,101.9439 L1790.339,103.6626 L1787.8546,103.8814 L1787.8546,112.8345 L1790.339,113.0689 L1790.339,114.772 L1783.1984,114.772 Z " fill="#000000"/><text fill="#000000" font-family="sans-serif" font-size="14" font-style="italic" lengthAdjust="spacing" textLength="49.8538" x="1807.3234" y="113.704">Handler</text><line style="stroke:#181818;stroke-width:0.5;" x1="1619.88" x2="2012.1206" y1="124.272" y2="124.272"/><line style="stroke:#181818;stroke-width:0.5;" x1="1619.88" x2="2012.1206" y1="132.272" y2="132.272"/><ellipse cx="1629.88" cy="147.3059" fill="#84BE84" rx="3" ry="3" style="stroke:#038048;stroke-width:1;"/><text fill="#000000" font-family="sans-serif" font-size="14" lengthAdjust="spacing" textLength="174.5233" x="1638.88" y="151.2379">GetRouterGroups() (string,</text><text fill="#0000FF" font-family="sans-serif" font-size="14" lengthAdjust="spacing" textLength="29.5539" x="1817.0433" y="151.2379">map</text><text fill="#000000" font-family="sans-serif" font-size="14" lengthAdjust="spacing" textLength="160.5234" x="1846.5972" y="151.2379">[string]gin.HandlerFunc)</text><ellipse cx="1629.88" cy="166.3739" fill="#84BE84" rx="3" ry="3" style="stroke:#038048;stroke-width:1;"/><text fill="#000000" font-family="sans-serif" font-size="14" lengthAdjust="spacing" textLength="105.5316" x="1638.88" y="170.3058">GetService() any</text></g><!--class RequestBody--><g id="elem_RequestBody"><rect codeLine="106" fill="#F1F1F1" height="67.0679" id="RequestBody" rx="2.5" ry="2.5" style="stroke:#181818;stroke-width:0.5;" width="118.8417" x="1456.58" y="101.802"/><ellipse cx="1471.58" cy="117.802" fill="#7FFFD4" rx="11" ry="11" style="stroke:#181818;stroke-width:1;"/><path d="M1470.705,124.4739 Q1469.705,124.4739 1468.7519,124.2864 Q1467.7988,124.0989 1467.0175,123.7239 L1467.0175,121.552 Q1468.1113,122.0364 1468.9706,122.2551 Q1469.8456,122.4739 1470.7363,122.4739 Q1471.5331,122.4739 1472.0331,122.2707 Q1472.5331,122.0676 1472.7675,121.6926 Q1473.0019,121.302 1473.0019,120.6926 Q1473.0019,120.2239 1472.8144,119.9739 Q1472.6425,119.7082 1472.08,119.4114 Q1471.5175,119.1145 1470.4394,118.6457 Q1469.705,118.3176 1468.9863,117.8957 Q1468.2675,117.4739 1467.7831,116.7551 Q1467.2988,116.0364 1467.2988,114.8801 Q1467.2988,113.7239 1467.8144,112.927 Q1468.3456,112.1145 1469.2831,111.7082 Q1470.2363,111.302 1471.5175,111.302 Q1472.4863,111.302 1473.33,111.5051 Q1474.1738,111.7082 1475.1113,112.1614 L1474.3769,114.0676 Q1473.5019,113.6614 1472.8144,113.5051 Q1472.1425,113.3489 1471.4863,113.3489 Q1470.8769,113.3489 1470.4394,113.5051 Q1470.0019,113.6614 1469.7675,114.0051 Q1469.5488,114.3332 1469.5488,114.9114 Q1469.5488,115.3957 1469.7363,115.6926 Q1469.9394,115.9895 1470.4238,116.2551 Q1470.9238,116.5051 1471.7831,116.8801 Q1472.7675,117.2864 1473.5331,117.7239 Q1474.3144,118.1614 1474.7831,118.8645 Q1475.2675,119.552 1475.2675,120.7082 Q1475.2675,121.5832 1474.9706,122.302 Q1474.6738,123.0051 1474.08,123.5051 Q1473.4863,123.9895 1472.6425,124.2395 Q1471.7988,124.4739 1470.705,124.4739 Z " fill="#000000"/><text fill="#000000" font-family="sans-serif" font-size="14" lengthAdjust="spacing" textLength="86.8417" x="1485.58" y="123.234">RequestBody</text><line style="stroke:#181818;stroke-width:0.5;" x1="1457.58" x2="1574.4217" y1="133.802" y2="133.802"/><ellipse cx="1467.58" cy="148.8359" fill="transparent" rx="3" ry="3" style="stroke:#038048;stroke-width:1;"/><text fill="#000000" font-family="sans-serif" font-size="14" lengthAdjust="spacing" textLength="73.1217" x="1476.58" y="152.7679">Udid string</text><line style="stroke:#181818;stroke-width:0.5;" x1="1457.58" x2="1574.4217" y1="160.8699" y2="160.8699"/></g><!--class Service--><g id="elem_Service"><rect codeLine="110" fill="#F1F1F1" height="67.0679" id="Service" rx="2.5" ry="2.5" style="stroke:#181818;stroke-width:0.5;" width="118.5116" x="1294.74" y="101.802"/><ellipse cx="1329.2726" cy="117.802" fill="#B4A7E5" rx="11" ry="11" style="stroke:#181818;stroke-width:1;"/><path d="M1325.6476,124.302 L1325.6476,122.5989 L1328.0851,122.3645 L1328.0851,113.4114 L1325.6476,113.1926 L1325.6476,111.4739 L1332.7882,111.4739 L1332.7882,113.1926 L1330.3038,113.4114 L1330.3038,122.3645 L1332.7882,122.5989 L1332.7882,124.302 L1325.6476,124.302 Z " fill="#000000"/><text fill="#000000" font-family="sans-serif" font-size="14" font-style="italic" lengthAdjust="spacing" textLength="43.1059" x="1347.6132" y="123.234">Service</text><line style="stroke:#181818;stroke-width:0.5;" x1="1295.74" x2="1412.2516" y1="133.802" y2="133.802"/><line style="stroke:#181818;stroke-width:0.5;" x1="1295.74" x2="1412.2516" y1="141.802" y2="141.802"/><ellipse cx="1305.74" cy="156.8359" fill="#84BE84" rx="3" ry="3" style="stroke:#038048;stroke-width:1;"/><text fill="#000000" font-family="sans-serif" font-size="14" lengthAdjust="spacing" textLength="92.5116" x="1314.74" y="160.7679">New( any) any</text></g><!--reverse link ConnectParams to BoltConnectionParams--><g id="link_ConnectParams_BoltConnectionParams"><path codeLine="71" d="M530.2599,187.1243 C526.2399,230.2643 520.77,288.882 515.73,342.922 " fill="transparent" id="ConnectParams-backto-BoltConnectionParams" style="stroke:#181818;stroke-width:1;"/><polygon fill="transparent" points="531.93,169.202,524.2858,186.5676,536.234,187.681,531.93,169.202" style="stroke:#181818;stroke-width:1;"/></g><!--reverse link DAO to BoltDao--><g id="link_DAO_BoltDao"><path codeLine="72" d="M852,244.342 C852,269.592 852,279.192 852,304.952 " fill="transparent" id="DAO-backto-BoltDao" style="stroke:#181818;stroke-width:1;"/><polygon fill="transparent" points="852,226.342,846,244.342,858,244.342,852,226.342" style="stroke:#181818;stroke-width:1;"/></g><!--reverse link Document to Notes--><g id="link_Document_Notes"><path codeLine="73" d="M294.1387,243.8056 C289.3887,262.8256 288.67,265.702 283.7,285.592 " fill="transparent" id="Document-backto-Notes" style="stroke:#181818;stroke-width:1;"/><polygon fill="transparent" points="298.5,226.342,288.3175,242.3519,299.9599,245.2594,298.5,226.342" style="stroke:#181818;stroke-width:1;"/></g><!--reverse link Handler to APIHandler--><g id="link_Handler_APIHandler"><path codeLine="116" d="M1816,196.812 C1816,230.622 1816,261.322 1816,304.822 " fill="transparent" id="Handler-backto-APIHandler" style="stroke:#181818;stroke-width:1;"/><polygon fill="transparent" points="1816,178.812,1810,196.812,1822,196.812,1816,178.812" style="stroke:#181818;stroke-width:1;"/></g><!--reverse link DAO to DaoService--><g id="link_DAO_DaoService"><path codeLine="117" d="M1036.7778,235.0112 C1078.0678,257.0612 1106.81,272.412 1149.56,295.242 " fill="transparent" id="DAO-backto-DaoService" style="stroke:#181818;stroke-width:1;"/><polygon fill="transparent" points="1020.9,226.532,1033.9514,240.3037,1039.6042,229.7186,1020.9,226.532" style="stroke:#181818;stroke-width:1;"/></g><!--reverse link Service to DaoService--><g id="link_Service_DaoService"><path codeLine="118" d="M1354,187.202 C1354,218.662 1354,249.892 1354,295.202 " fill="transparent" id="Service-backto-DaoService" style="stroke:#181818;stroke-width:1;"/><polygon fill="transparent" points="1354,169.202,1348,187.202,1360,187.202,1354,169.202" style="stroke:#181818;stroke-width:1;"/></g><!--SRC=[hLRDKjim4BxxAJGvEJH9No3DJ887ohH0XZIzC1mKQo6UEfQnPDfCoxjtRKksR7da4feBHlkd_VRRNINq02Ab8H16EVdj4Vo5CHM2h7WiptcIG2WZdgnfHW-2pEV4tqoMppazq2nAO4mM2sLL_3wGDPLx8YJAdepJQyw0F8hPHHH3yMs8RbCfoDaEWytm4oC9hvPEoHF8Ah8_9ZGvLgBNpYq3lFd0nQQ4xLIKOEKPuLM6VfZgpohUc42MySpG328HAcLRU9u1bU0p7fA0X_a14cahtG5bfSgPrfcGY94yZzXikxqAniHl1ANnsB3UfcmuH00ne5BRQrTf0pGBzwlZ5pX-ft4E_WyugffDo4jnelx32zq_N8Ea0PMqlf9HWoYHa3qMx6c1Hrh8EshOs0VBMz8Yaa9q24uJotz5yftvMoKPheUh6fg19_2l7qbrcJQSbo2_HJ86jBMwSwDbTThTs6YjOK07-hFjebQevRr-C4k9jrDSQ7dGeaBIQtiLe5aDfJqCTE3XCLNcQoEnpEMUP_RvEj_5aTYZxnwZhrJ8YWdC5XOJxzinxJ7RvcQNsidSS0dYv4mAA5W1HK-n5CxQwAqiaKR4TrBb0CODJwLBgD9v6sjUFM-4As_MwheHcV-PJaafwDj_eye6XrLN4tUG5gh-CpNAMeuyBwcthO3i9SA_viPThgy-quJ5a0sN7UDjb8lcirDATTg3NMV-uKPwYf9P2UWld6Bs67Peb6FO8LT3qg6XXgH30vEvupbEkCkCvscnI7mzh-UFg4z27lFiqmwJMHneElzO72xkAvs7mgi2zY9Fmh7TQmQQmmy9V6qe4fXuty1FdrKS743RkMqApuwDevT5MkrPYy2dFrjCwhgUBgRUf6ohrjfjYrsF67T0nqEcT-lfnkaklVz96qTpMOowW-SSX5nnTXnkvYsBM6iQTxFJv6nP5Onh26UCDJLRzENr8DB7pPYnnvdMQHfYrFZJ9mxTlm00]--></g></svg>