<svg xmlns="http://www.w3.org/2000/svg" xmlns:xlink="http://www.w3.org/1999/xlink" contentStyleType="text/css" data-diagram-type="CLASS" height="547px" preserveAspectRatio="none" style="width:2045px;height:547px;background:#FFFFFF;" version="1.1" viewBox="0 0 2045 547" width="2045px" zoomAndPan="magnify"><defs/><g><!--cluster dao--><g id="cluster_dao"><path d="M8.5,6.602 L34.4339,6.602 A3.75,3.75 0 0 1 36.9339,9.102 L43.9339,31.6699 L1081.5,31.6699 A2.5,2.5 0 0 1 1084,34.1699 L1084,538.252 A2.5,2.5 0 0 1 1081.5,540.752 L8.5,540.752 A2.5,2.5 0 0 1 6,538.252 L6,9.102 A2.5,2.5 0 0 1 8.5,6.602 " fill="transparent" style="stroke:#000000;stroke-width:1.5;"/><line style="stroke:#000000;stroke-width:1.5;" x1="6" x2="43.9339" y1="31.6699" y2="31.6699"/><text fill="#000000" font-family="sans-serif" font-size="14" font-weight="bold" lengthAdjust="spacing" textLength="24.9339" x="10" y="23.5679">dao</text></g><!--cluster service--><g id="cluster_service"><path d="M1110.5,267.142 L1157.2238,267.142 A3.75,3.75 0 0 1 1159.7238,269.642 L1166.7238,292.2099 L2035.5,292.2099 A2.5,2.5 0 0 1 2038,294.7099 L2038,519.182 A2.5,2.5 0 0 1 2035.5,521.682 L1110.5,521.682 A2.5,2.5 0 0 1 1108,519.182 L1108,269.642 A2.5,2.5 0 0 1 1110.5,267.142 " fill="transparent" style="stroke:#000000;stroke-width:1.5;"/><line style="stroke:#000000;stroke-width:1.5;" x1="1108" x2="1166.7238" y1="292.2099" y2="292.2099"/><text fill="#000000" font-family="sans-serif" font-size="14" font-weight="bold" lengthAdjust="spacing" textLength="45.7238" x="1112" y="284.1079">service</text></g><!--class BoltConnectionParams--><g id="elem_BoltConnectionParams"><rect codeLine="2" fill="#F1F1F1" height="124.2717" id="BoltConnectionParams" rx="2.5" ry="2.5" style="stroke:#181818;stroke-width:0.5;" width="183.0174" x="418.49" y="343.272"/><ellipse cx="433.49" cy="359.272" fill="#7FFFD4" rx="11" ry="11" style="stroke:#181818;stroke-width:1;"/><path d="M432.615,365.9439 Q431.615,365.9439 430.6619,365.7564 Q429.7088,365.5689 428.9275,365.1939 L428.9275,363.022 Q430.0213,363.5064 430.8806,363.7251 Q431.7556,363.9439 432.6463,363.9439 Q433.4431,363.9439 433.9431,363.7407 Q434.4431,363.5376 434.6775,363.1626 Q434.9119,362.772 434.9119,362.1626 Q434.9119,361.6939 434.7244,361.4439 Q434.5525,361.1782 433.99,360.8814 Q433.4275,360.5845 432.3494,360.1157 Q431.615,359.7876 430.8963,359.3657 Q430.1775,358.9439 429.6931,358.2251 Q429.2088,357.5064 429.2088,356.3501 Q429.2088,355.1939 429.7244,354.397 Q430.2556,353.5845 431.1931,353.1782 Q432.1463,352.772 433.4275,352.772 Q434.3963,352.772 435.24,352.9751 Q436.0838,353.1782 437.0213,353.6314 L436.2869,355.5376 Q435.4119,355.1314 434.7244,354.9751 Q434.0525,354.8189 433.3963,354.8189 Q432.7869,354.8189 432.3494,354.9751 Q431.9119,355.1314 431.6775,355.4751 Q431.4588,355.8032 431.4588,356.3814 Q431.4588,356.8657 431.6463,357.1626 Q431.8494,357.4595 432.3338,357.7251 Q432.8338,357.9751 433.6931,358.3501 Q434.6775,358.7564 435.4431,359.1939 Q436.2244,359.6314 436.6931,360.3345 Q437.1775,361.022 437.1775,362.1782 Q437.1775,363.0532 436.8806,363.772 Q436.5838,364.4751 435.99,364.9751 Q435.3963,365.4595 434.5525,365.7095 Q433.7088,365.9439 432.615,365.9439 Z " fill="#000000"/><text fill="#000000" font-family="sans-serif" font-size="14" lengthAdjust="spacing" textLength="151.0174" x="447.49" y="364.704">BoltConnectionParams</text><line style="stroke:#181818;stroke-width:0.5;" x1="419.49" x2="600.5074" y1="375.272" y2="375.272"/><rect fill="transparent" height="6" style="stroke:#C82930;stroke-width:1;" width="6" x="426.49" y="387.3059"/><text fill="#000000" font-family="sans-serif" font-size="14" lengthAdjust="spacing" textLength="72.2257" x="438.49" y="394.2379">path string</text><rect fill="transparent" height="6" style="stroke:#C82930;stroke-width:1;" width="6" x="426.49" y="406.3739"/><text fill="#000000" font-family="sans-serif" font-size="14" lengthAdjust="spacing" textLength="117.0396" x="438.49" y="413.3058">mode fs.FileMode</text><rect fill="transparent" height="6" style="stroke:#C82930;stroke-width:1;" width="6" x="426.49" y="425.4418"/><text fill="#000000" font-family="sans-serif" font-size="14" lengthAdjust="spacing" textLength="121.7296" x="438.49" y="432.3738">opts *bolt.Options</text><line style="stroke:#181818;stroke-width:0.5;" x1="419.49" x2="600.5074" y1="440.4757" y2="440.4757"/><rect fill="#F24D5C" height="6" style="stroke:#C82930;stroke-width:1;" width="6" x="426.49" y="452.5097"/><text fill="#000000" font-family="sans-serif" font-size="14" lengthAdjust="spacing" textLength="107.0016" x="438.49" y="459.4417">getParams() any</text></g><!--class BoltDao--><g id="elem_BoltDao"><rect codeLine="10" fill="#F1F1F1" height="200.5433" id="BoltDao" rx="2.5" ry="2.5" style="stroke:#181818;stroke-width:0.5;" width="431.3264" x="636.34" y="305.142"/><ellipse cx="821.3633" cy="321.142" fill="#7FFFD4" rx="11" ry="11" style="stroke:#181818;stroke-width:1;"/><path d="M820.4883,327.8139 Q819.4883,327.8139 818.5352,327.6264 Q817.5821,327.4389 816.8008,327.0639 L816.8008,324.892 Q817.8946,325.3764 818.7539,325.5951 Q819.6289,325.8139 820.5196,325.8139 Q821.3164,325.8139 821.8164,325.6107 Q822.3164,325.4076 822.5508,325.0326 Q822.7852,324.642 822.7852,324.0326 Q822.7852,323.5639 822.5977,323.3139 Q822.4258,323.0482 821.8633,322.7514 Q821.3008,322.4545 820.2227,321.9857 Q819.4883,321.6576 818.7696,321.2357 Q818.0508,320.8139 817.5664,320.0951 Q817.0821,319.3764 817.0821,318.2201 Q817.0821,317.0639 817.5977,316.267 Q818.1289,315.4545 819.0664,315.0482 Q820.0196,314.642 821.3008,314.642 Q822.2696,314.642 823.1133,314.8451 Q823.9571,315.0482 824.8946,315.5014 L824.1602,317.4076 Q823.2852,317.0014 822.5977,316.8451 Q821.9258,316.6889 821.2696,316.6889 Q820.6602,316.6889 820.2227,316.8451 Q819.7852,317.0014 819.5508,317.3451 Q819.3321,317.6732 819.3321,318.2514 Q819.3321,318.7357 819.5196,319.0326 Q819.7227,319.3295 820.2071,319.5951 Q820.7071,319.8451 821.5664,320.2201 Q822.5508,320.6264 823.3164,321.0639 Q824.0977,321.5014 824.5664,322.2045 Q825.0508,322.892 825.0508,324.0482 Q825.0508,324.9232 824.7539,325.642 Q824.4571,326.3451 823.8633,326.8451 Q823.2696,327.3295 822.4258,327.5795 Q821.5821,327.8139 820.4883,327.8139 Z " fill="#000000"/><text fill="#000000" font-family="sans-serif" font-size="14" lengthAdjust="spacing" textLength="52.7798" x="841.8633" y="326.574">BoltDao</text><line style="stroke:#181818;stroke-width:0.5;" x1="637.34" x2="1066.6664" y1="337.142" y2="337.142"/><rect fill="transparent" height="6" style="stroke:#C82930;stroke-width:1;" width="6" x="644.34" y="349.1759"/><text fill="#000000" font-family="sans-serif" font-size="14" lengthAdjust="spacing" textLength="77.3917" x="656.34" y="356.1079">db *bolt.DB</text><line style="stroke:#181818;stroke-width:0.5;" x1="637.34" x2="1066.6664" y1="364.2099" y2="364.2099"/><ellipse cx="647.34" cy="379.2439" fill="#84BE84" rx="3" ry="3" style="stroke:#038048;stroke-width:1;"/><text fill="#000000" font-family="sans-serif" font-size="14" lengthAdjust="spacing" textLength="185.2753" x="656.34" y="383.1758">Create(doc Document) error</text><ellipse cx="647.34" cy="398.3118" fill="#84BE84" rx="3" ry="3" style="stroke:#038048;stroke-width:1;"/><text fill="#000000" font-family="sans-serif" font-size="14" lengthAdjust="spacing" textLength="405.3264" x="656.34" y="402.2438">SearchByKeyValue(key string, value string) ([]MetaData, error)</text><ellipse cx="647.34" cy="417.3797" fill="#84BE84" rx="3" ry="3" style="stroke:#038048;stroke-width:1;"/><text fill="#000000" font-family="sans-serif" font-size="14" lengthAdjust="spacing" textLength="359.2386" x="656.34" y="421.3117">Read(doc *Document, id uuid.UUID) (Document, error)</text><ellipse cx="647.34" cy="436.4476" fill="#84BE84" rx="3" ry="3" style="stroke:#038048;stroke-width:1;"/><text fill="#000000" font-family="sans-serif" font-size="14" lengthAdjust="spacing" textLength="190.2033" x="656.34" y="440.3796">Update(doc Document) error</text><ellipse cx="647.34" cy="455.5155" fill="#84BE84" rx="3" ry="3" style="stroke:#038048;stroke-width:1;"/><text fill="#000000" font-family="sans-serif" font-size="14" lengthAdjust="spacing" textLength="172.8993" x="656.34" y="459.4475">Delete(id uuid.UUID) error</text><ellipse cx="647.34" cy="474.5834" fill="#84BE84" rx="3" ry="3" style="stroke:#038048;stroke-width:1;"/><text fill="#000000" font-family="sans-serif" font-size="14" lengthAdjust="spacing" textLength="223.0611" x="656.34" y="478.5154">Connect(cp ConnectParams) error</text><ellipse cx="647.34" cy="493.6514" fill="#84BE84" rx="3" ry="3" style="stroke:#038048;stroke-width:1;"/><text fill="#000000" font-family="sans-serif" font-size="14" lengthAdjust="spacing" textLength="118.4535" x="656.34" y="497.5833">Disconnect() error</text></g><!--class ConnectParams--><g id="elem_ConnectParams"><rect codeLine="22" fill="#F1F1F1" height="67.0679" id="ConnectParams" rx="2.5" ry="2.5" style="stroke:#181818;stroke-width:0.5;" width="133.0016" x="468.5" y="101.802"/><ellipse cx="484.8509" cy="117.802" fill="#B4A7E5" rx="11" ry="11" style="stroke:#181818;stroke-width:1;"/><path d="M481.2259,124.302 L481.2259,122.5989 L483.6634,122.3645 L483.6634,113.4114 L481.2259,113.1926 L481.2259,111.4739 L488.3665,111.4739 L488.3665,113.1926 L485.8821,113.4114 L485.8821,122.3645 L488.3665,122.5989 L488.3665,124.302 L481.2259,124.302 Z " fill="#000000"/><text fill="#000000" font-family="sans-serif" font-size="14" font-style="italic" lengthAdjust="spacing" textLength="97.9996" x="499.1511" y="123.234">ConnectParams</text><line style="stroke:#181818;stroke-width:0.5;" x1="469.5" x2="600.5016" y1="133.802" y2="133.802"/><line style="stroke:#181818;stroke-width:0.5;" x1="469.5" x2="600.5016" y1="141.802" y2="141.802"/><rect fill="#F24D5C" height="6" style="stroke:#C82930;stroke-width:1;" width="6" x="476.5" y="153.8359"/><text fill="#000000" font-family="sans-serif" font-size="14" lengthAdjust="spacing" textLength="107.0016" x="488.5" y="160.7679">getParams() any</text></g><!--class DAO--><g id="elem_DAO"><rect codeLine="26" fill="#F1F1F1" height="181.4754" id="DAO" rx="2.5" ry="2.5" style="stroke:#181818;stroke-width:0.5;" width="431.3264" x="636.34" y="44.602"/><ellipse cx="834.1033" cy="60.602" fill="#B4A7E5" rx="11" ry="11" style="stroke:#181818;stroke-width:1;"/><path d="M830.4783,67.102 L830.4783,65.3989 L832.9158,65.1645 L832.9158,56.2114 L830.4783,55.9926 L830.4783,54.2739 L837.6189,54.2739 L837.6189,55.9926 L835.1345,56.2114 L835.1345,65.1645 L837.6189,65.3989 L837.6189,67.102 L830.4783,67.102 Z " fill="#000000"/><text fill="#000000" font-family="sans-serif" font-size="14" font-style="italic" lengthAdjust="spacing" textLength="27.2999" x="854.6033" y="66.034">DAO</text><line style="stroke:#181818;stroke-width:0.5;" x1="637.34" x2="1066.6664" y1="76.602" y2="76.602"/><line style="stroke:#181818;stroke-width:0.5;" x1="637.34" x2="1066.6664" y1="84.602" y2="84.602"/><ellipse cx="647.34" cy="99.6359" fill="#84BE84" rx="3" ry="3" style="stroke:#038048;stroke-width:1;"/><text fill="#000000" font-family="sans-serif" font-size="14" lengthAdjust="spacing" textLength="161.4754" x="656.34" y="103.5679">Create( Document) error</text><ellipse cx="647.34" cy="118.7039" fill="#84BE84" rx="3" ry="3" style="stroke:#038048;stroke-width:1;"/><text fill="#000000" font-family="sans-serif" font-size="14" lengthAdjust="spacing" textLength="323.2167" x="656.34" y="122.6358">Read( *Document,  uuid.UUID) (Document, error)</text><ellipse cx="647.34" cy="137.7718" fill="#84BE84" rx="3" ry="3" style="stroke:#038048;stroke-width:1;"/><text fill="#000000" font-family="sans-serif" font-size="14" lengthAdjust="spacing" textLength="405.3264" x="656.34" y="141.7038">SearchByKeyValue(key string, value string) ([]MetaData, error)</text><ellipse cx="647.34" cy="156.8397" fill="#84BE84" rx="3" ry="3" style="stroke:#038048;stroke-width:1;"/><text fill="#000000" font-family="sans-serif" font-size="14" lengthAdjust="spacing" textLength="166.4034" x="656.34" y="160.7717">Update( Document) error</text><ellipse cx="647.34" cy="175.9076" fill="#84BE84" rx="3" ry="3" style="stroke:#038048;stroke-width:1;"/><text fill="#000000" font-family="sans-serif" font-size="14" lengthAdjust="spacing" textLength="160.6774" x="656.34" y="179.8396">Delete( uuid.UUID) error</text><ellipse cx="647.34" cy="194.9755" fill="#84BE84" rx="3" ry="3" style="stroke:#038048;stroke-width:1;"/><text fill="#000000" font-family="sans-serif" font-size="14" lengthAdjust="spacing" textLength="207.7312" x="656.34" y="198.9075">Connect( ConnectParams) error</text><ellipse cx="647.34" cy="214.0434" fill="#84BE84" rx="3" ry="3" style="stroke:#038048;stroke-width:1;"/><text fill="#000000" font-family="sans-serif" font-size="14" lengthAdjust="spacing" textLength="118.4535" x="656.34" y="217.9754">Disconnect() error</text></g><!--class Document--><g id="elem_Document"><rect codeLine="36" fill="#F1F1F1" height="181.4754" id="Document" rx="2.5" ry="2.5" style="stroke:#181818;stroke-width:0.5;" width="224.9953" x="208.5" y="44.602"/><ellipse cx="284.9187" cy="60.602" fill="#B4A7E5" rx="11" ry="11" style="stroke:#181818;stroke-width:1;"/><path d="M281.2937,67.102 L281.2937,65.3989 L283.7312,65.1645 L283.7312,56.2114 L281.2937,55.9926 L281.2937,54.2739 L288.4344,54.2739 L288.4344,55.9926 L285.95,56.2114 L285.95,65.1645 L288.4344,65.3989 L288.4344,67.102 L281.2937,67.102 Z " fill="#000000"/><text fill="#000000" font-family="sans-serif" font-size="14" font-style="italic" lengthAdjust="spacing" textLength="63.6578" x="305.4187" y="66.034">Document</text><line style="stroke:#181818;stroke-width:0.5;" x1="209.5" x2="432.4953" y1="76.602" y2="76.602"/><line style="stroke:#181818;stroke-width:0.5;" x1="209.5" x2="432.4953" y1="84.602" y2="84.602"/><ellipse cx="219.5" cy="99.6359" fill="#84BE84" rx="3" ry="3" style="stroke:#038048;stroke-width:1;"/><text fill="#000000" font-family="sans-serif" font-size="14" lengthAdjust="spacing" textLength="101.5556" x="228.5" y="103.5679">GetTitle() string</text><ellipse cx="219.5" cy="118.7039" fill="#84BE84" rx="3" ry="3" style="stroke:#038048;stroke-width:1;"/><text fill="#000000" font-family="sans-serif" font-size="14" lengthAdjust="spacing" textLength="136.4015" x="228.5" y="122.6358">SetTitle( string) error</text><ellipse cx="219.5" cy="137.7718" fill="#84BE84" rx="3" ry="3" style="stroke:#038048;stroke-width:1;"/><text fill="#000000" font-family="sans-serif" font-size="14" lengthAdjust="spacing" textLength="164.1494" x="228.5" y="141.7038">GetMetaData() MetaData</text><ellipse cx="219.5" cy="156.8397" fill="#84BE84" rx="3" ry="3" style="stroke:#038048;stroke-width:1;"/><text fill="#000000" font-family="sans-serif" font-size="14" lengthAdjust="spacing" textLength="198.9953" x="228.5" y="160.7717">SetMetaData( MetaData) error</text><ellipse cx="219.5" cy="175.9076" fill="#84BE84" rx="3" ry="3" style="stroke:#038048;stroke-width:1;"/><text fill="#000000" font-family="sans-serif" font-size="14" lengthAdjust="spacing" textLength="111.4536" x="228.5" y="179.8396">GetContent() any</text><ellipse cx="219.5" cy="194.9755" fill="#84BE84" rx="3" ry="3" style="stroke:#038048;stroke-width:1;"/><text fill="#000000" font-family="sans-serif" font-size="14" lengthAdjust="spacing" textLength="146.2994" x="228.5" y="198.9075">SetContent( any) error</text><ellipse cx="219.5" cy="214.0434" fill="#84BE84" rx="3" ry="3" style="stroke:#038048;stroke-width:1;"/><text fill="#000000" font-family="sans-serif" font-size="14" lengthAdjust="spacing" textLength="118.8595" x="228.5" y="217.9754">GetID() uuid.UUID</text></g><!--class MetaData--><g id="elem_MetaData"><rect codeLine="46" fill="#F1F1F1" height="162.4075" id="MetaData" rx="2.5" ry="2.5" style="stroke:#181818;stroke-width:0.5;" width="151.8736" x="22.06" y="54.132"/><ellipse cx="61.9854" cy="70.132" fill="#7FFFD4" rx="11" ry="11" style="stroke:#181818;stroke-width:1;"/><path d="M61.1104,76.8039 Q60.1104,76.8039 59.1573,76.6164 Q58.2042,76.4289 57.4229,76.0539 L57.4229,73.882 Q58.5167,74.3664 59.376,74.5851 Q60.251,74.8039 61.1417,74.8039 Q61.9385,74.8039 62.4385,74.6007 Q62.9385,74.3976 63.1729,74.0226 Q63.4073,73.632 63.4073,73.0226 Q63.4073,72.5539 63.2198,72.3039 Q63.0479,72.0382 62.4854,71.7414 Q61.9229,71.4445 60.8448,70.9757 Q60.1104,70.6476 59.3917,70.2257 Q58.6729,69.8039 58.1885,69.0851 Q57.7042,68.3664 57.7042,67.2101 Q57.7042,66.0539 58.2198,65.257 Q58.751,64.4445 59.6885,64.0382 Q60.6417,63.632 61.9229,63.632 Q62.8917,63.632 63.7354,63.8351 Q64.5792,64.0382 65.5167,64.4914 L64.7823,66.3976 Q63.9073,65.9914 63.2198,65.8351 Q62.5479,65.6789 61.8917,65.6789 Q61.2823,65.6789 60.8448,65.8351 Q60.4073,65.9914 60.1729,66.3351 Q59.9542,66.6632 59.9542,67.2414 Q59.9542,67.7257 60.1417,68.0226 Q60.3448,68.3195 60.8292,68.5851 Q61.3292,68.8351 62.1885,69.2101 Q63.1729,69.6164 63.9385,70.0539 Q64.7198,70.4914 65.1885,71.1945 Q65.6729,71.882 65.6729,73.0382 Q65.6729,73.9132 65.376,74.632 Q65.0792,75.3351 64.4854,75.8351 Q63.8917,76.3195 63.0479,76.5695 Q62.2042,76.8039 61.1104,76.8039 Z " fill="#000000"/><text fill="#000000" font-family="sans-serif" font-size="14" lengthAdjust="spacing" textLength="64.4838" x="81.5244" y="75.564">MetaData</text><line style="stroke:#181818;stroke-width:0.5;" x1="23.06" x2="172.9336" y1="86.132" y2="86.132"/><ellipse cx="33.06" cy="101.1659" fill="transparent" rx="3" ry="3" style="stroke:#038048;stroke-width:1;"/><text fill="#000000" font-family="sans-serif" font-size="14" lengthAdjust="spacing" textLength="70.0137" x="42.06" y="105.0979">Title string</text><ellipse cx="33.06" cy="120.2339" fill="transparent" rx="3" ry="3" style="stroke:#038048;stroke-width:1;"/><text fill="#000000" font-family="sans-serif" font-size="14" lengthAdjust="spacing" textLength="87.6117" x="42.06" y="124.1658">Author string</text><ellipse cx="33.06" cy="139.3018" fill="transparent" rx="3" ry="3" style="stroke:#038048;stroke-width:1;"/><text fill="#000000" font-family="sans-serif" font-size="14" lengthAdjust="spacing" textLength="121.3935" x="42.06" y="143.2338">PublishDate string</text><ellipse cx="33.06" cy="158.3697" fill="transparent" rx="3" ry="3" style="stroke:#038048;stroke-width:1;"/><text fill="#000000" font-family="sans-serif" font-size="14" lengthAdjust="spacing" textLength="125.8736" x="42.06" y="162.3017">LastUpdated string</text><ellipse cx="33.06" cy="177.4376" fill="transparent" rx="3" ry="3" style="stroke:#038048;stroke-width:1;"/><text fill="#000000" font-family="sans-serif" font-size="14" lengthAdjust="spacing" textLength="95.8716" x="42.06" y="181.3696">FileType string</text><ellipse cx="33.06" cy="196.5055" fill="transparent" rx="3" ry="3" style="stroke:#038048;stroke-width:1;"/><text fill="#000000" font-family="sans-serif" font-size="14" lengthAdjust="spacing" textLength="103.4596" x="42.06" y="200.4375">Uuid uuid.UUID</text><line style="stroke:#181818;stroke-width:0.5;" x1="23.06" x2="172.9336" y1="208.5395" y2="208.5395"/></g><!--class Notes--><g id="elem_Notes"><rect codeLine="55" fill="#F1F1F1" height="238.6792" id="Notes" rx="2.5" ry="2.5" style="stroke:#181818;stroke-width:0.5;" width="258.8891" x="124.56" y="286.072"/><ellipse cx="230.3716" cy="302.072" fill="#7FFFD4" rx="11" ry="11" style="stroke:#181818;stroke-width:1;"/><path d="M229.4966,308.7439 Q228.4966,308.7439 227.5435,308.5564 Q226.5904,308.3689 225.8091,307.9939 L225.8091,305.822 Q226.9029,306.3064 227.7623,306.5251 Q228.6373,306.7439 229.5279,306.7439 Q230.3248,306.7439 230.8248,306.5407 Q231.3248,306.3376 231.5591,305.9626 Q231.7935,305.572 231.7935,304.9626 Q231.7935,304.4939 231.606,304.2439 Q231.4341,303.9782 230.8716,303.6814 Q230.3091,303.3845 229.231,302.9157 Q228.4966,302.5876 227.7779,302.1657 Q227.0591,301.7439 226.5748,301.0251 Q226.0904,300.3064 226.0904,299.1501 Q226.0904,297.9939 226.606,297.197 Q227.1373,296.3845 228.0748,295.9782 Q229.0279,295.572 230.3091,295.572 Q231.2779,295.572 232.1216,295.7751 Q232.9654,295.9782 233.9029,296.4314 L233.1685,298.3376 Q232.2935,297.9314 231.606,297.7751 Q230.9341,297.6189 230.2779,297.6189 Q229.6685,297.6189 229.231,297.7751 Q228.7935,297.9314 228.5591,298.2751 Q228.3404,298.6032 228.3404,299.1814 Q228.3404,299.6657 228.5279,299.9626 Q228.731,300.2595 229.2154,300.5251 Q229.7154,300.7751 230.5748,301.1501 Q231.5591,301.5564 232.3248,301.9939 Q233.106,302.4314 233.5748,303.1345 Q234.0591,303.822 234.0591,304.9782 Q234.0591,305.8532 233.7623,306.572 Q233.4654,307.2751 232.8716,307.7751 Q232.2779,308.2595 231.4341,308.5095 Q230.5904,308.7439 229.4966,308.7439 Z " fill="#000000"/><text fill="#000000" font-family="sans-serif" font-size="14" lengthAdjust="spacing" textLength="38.7659" x="250.8716" y="307.504">Notes</text><line style="stroke:#181818;stroke-width:0.5;" x1="125.56" x2="382.4491" y1="318.072" y2="318.072"/><ellipse cx="135.56" cy="333.1059" fill="transparent" rx="3" ry="3" style="stroke:#038048;stroke-width:1;"/><text fill="#000000" font-family="sans-serif" font-size="14" lengthAdjust="spacing" textLength="70.0137" x="144.56" y="337.0379">Title string</text><ellipse cx="135.56" cy="352.1739" fill="transparent" rx="3" ry="3" style="stroke:#038048;stroke-width:1;"/><text fill="#000000" font-family="sans-serif" font-size="14" lengthAdjust="spacing" textLength="130.9975" x="144.56" y="356.1058">Metadata MetaData</text><ellipse cx="135.56" cy="371.2418" fill="transparent" rx="3" ry="3" style="stroke:#038048;stroke-width:1;"/><text fill="#000000" font-family="sans-serif" font-size="14" lengthAdjust="spacing" textLength="94.6816" x="144.56" y="375.1738">Content string</text><line style="stroke:#181818;stroke-width:0.5;" x1="125.56" x2="382.4491" y1="383.2757" y2="383.2757"/><ellipse cx="135.56" cy="398.3097" fill="#84BE84" rx="3" ry="3" style="stroke:#038048;stroke-width:1;"/><text fill="#000000" font-family="sans-serif" font-size="14" lengthAdjust="spacing" textLength="101.5556" x="144.56" y="402.2417">GetTitle() string</text><ellipse cx="135.56" cy="417.3776" fill="#84BE84" rx="3" ry="3" style="stroke:#038048;stroke-width:1;"/><text fill="#000000" font-family="sans-serif" font-size="14" lengthAdjust="spacing" textLength="161.6294" x="144.56" y="421.3096">SetTitle(title string) error</text><ellipse cx="135.56" cy="436.4455" fill="#84BE84" rx="3" ry="3" style="stroke:#038048;stroke-width:1;"/><text fill="#000000" font-family="sans-serif" font-size="14" lengthAdjust="spacing" textLength="164.1494" x="144.56" y="440.3775">GetMetaData() MetaData</text><ellipse cx="135.56" cy="455.5134" fill="#84BE84" rx="3" ry="3" style="stroke:#038048;stroke-width:1;"/><text fill="#000000" font-family="sans-serif" font-size="14" lengthAdjust="spacing" textLength="232.8891" x="144.56" y="459.4454">SetMetaData(meta MetaData) error</text><ellipse cx="135.56" cy="474.5814" fill="#84BE84" rx="3" ry="3" style="stroke:#038048;stroke-width:1;"/><text fill="#000000" font-family="sans-serif" font-size="14" lengthAdjust="spacing" textLength="111.4536" x="144.56" y="478.5133">GetContent() any</text><ellipse cx="135.56" cy="493.6493" fill="#84BE84" rx="3" ry="3" style="stroke:#038048;stroke-width:1;"/><text fill="#000000" font-family="sans-serif" font-size="14" lengthAdjust="spacing" textLength="196.7972" x="144.56" y="497.5813">SetContent(content any) error</text><ellipse cx="135.56" cy="512.7172" fill="#84BE84" rx="3" ry="3" style="stroke:#038048;stroke-width:1;"/><text fill="#000000" font-family="sans-serif" font-size="14" lengthAdjust="spacing" textLength="118.8595" x="144.56" y="516.6492">GetID() uuid.UUID</text></g><!--class APIHandler--><g id="elem_APIHandler"><rect codeLine="76" fill="#F1F1F1" height="162.4075" id="APIHandler" rx="2.5" ry="2.5" style="stroke:#181818;stroke-width:0.5;" width="249.4251" x="1772.29" y="324.212"/><ellipse cx="1855.2817" cy="340.212" fill="#7FFFD4" rx="11" ry="11" style="stroke:#181818;stroke-width:1;"/><path d="M1854.4067,346.8839 Q1853.4067,346.8839 1852.4536,346.6964 Q1851.5004,346.5089 1850.7192,346.1339 L1850.7192,343.962 Q1851.8129,344.4464 1852.6723,344.6651 Q1853.5473,344.8839 1854.4379,344.8839 Q1855.2348,344.8839 1855.7348,344.6807 Q1856.2348,344.4776 1856.4692,344.1026 Q1856.7036,343.712 1856.7036,343.1026 Q1856.7036,342.6339 1856.5161,342.3839 Q1856.3442,342.1182 1855.7817,341.8214 Q1855.2192,341.5245 1854.1411,341.0557 Q1853.4067,340.7276 1852.6879,340.3057 Q1851.9692,339.8839 1851.4848,339.1651 Q1851.0004,338.4464 1851.0004,337.2901 Q1851.0004,336.1339 1851.5161,335.337 Q1852.0473,334.5245 1852.9848,334.1182 Q1853.9379,333.712 1855.2192,333.712 Q1856.1879,333.712 1857.0317,333.9151 Q1857.8754,334.1182 1858.8129,334.5714 L1858.0786,336.4776 Q1857.2036,336.0714 1856.5161,335.9151 Q1855.8442,335.7589 1855.1879,335.7589 Q1854.5786,335.7589 1854.1411,335.9151 Q1853.7036,336.0714 1853.4692,336.4151 Q1853.2504,336.7432 1853.2504,337.3214 Q1853.2504,337.8057 1853.4379,338.1026 Q1853.6411,338.3995 1854.1254,338.6651 Q1854.6254,338.9151 1855.4848,339.2901 Q1856.4692,339.6964 1857.2348,340.1339 Q1858.0161,340.5714 1858.4848,341.2745 Q1858.9692,341.962 1858.9692,343.1182 Q1858.9692,343.9932 1858.6723,344.712 Q1858.3754,345.4151 1857.7817,345.9151 Q1857.1879,346.3995 1856.3442,346.6495 Q1855.5004,346.8839 1854.4067,346.8839 Z " fill="#000000"/><text fill="#000000" font-family="sans-serif" font-size="14" lengthAdjust="spacing" textLength="74.9417" x="1875.7817" y="345.644">APIHandler</text><line style="stroke:#181818;stroke-width:0.5;" x1="1773.29" x2="2020.7151" y1="356.212" y2="356.212"/><ellipse cx="1783.29" cy="371.2459" fill="transparent" rx="3" ry="3" style="stroke:#038048;stroke-width:1;"/><text fill="#000000" font-family="sans-serif" font-size="14" lengthAdjust="spacing" textLength="150.1354" x="1792.29" y="375.1779">DaoService DaoService</text><line style="stroke:#181818;stroke-width:0.5;" x1="1773.29" x2="2020.7151" y1="383.2799" y2="383.2799"/><ellipse cx="1783.29" cy="398.3139" fill="#84BE84" rx="3" ry="3" style="stroke:#038048;stroke-width:1;"/><text fill="#000000" font-family="sans-serif" font-size="14" lengthAdjust="spacing" textLength="223.4251" x="1792.29" y="402.2458">SearchByKeyValue(c *gin.Context)</text><ellipse cx="1783.29" cy="417.3818" fill="#84BE84" rx="3" ry="3" style="stroke:#038048;stroke-width:1;"/><text fill="#000000" font-family="sans-serif" font-size="14" lengthAdjust="spacing" textLength="145.8094" x="1792.29" y="421.3138">Create(c *gin.Context)</text><ellipse cx="1783.29" cy="436.4497" fill="#84BE84" rx="3" ry="3" style="stroke:#038048;stroke-width:1;"/><text fill="#000000" font-family="sans-serif" font-size="14" lengthAdjust="spacing" textLength="135.5475" x="1792.29" y="440.3817">Read(c *gin.Context)</text><ellipse cx="1783.29" cy="455.5176" fill="#84BE84" rx="3" ry="3" style="stroke:#038048;stroke-width:1;"/><text fill="#000000" font-family="sans-serif" font-size="14" lengthAdjust="spacing" textLength="150.7374" x="1792.29" y="459.4496">Update(c *gin.Context)</text><ellipse cx="1783.29" cy="474.5855" fill="#84BE84" rx="3" ry="3" style="stroke:#038048;stroke-width:1;"/><text fill="#000000" font-family="sans-serif" font-size="14" lengthAdjust="spacing" textLength="145.0534" x="1792.29" y="478.5175">Delete(c *gin.Context)</text></g><!--class DaoService--><g id="elem_DaoService"><rect codeLine="86" fill="#F1F1F1" height="200.5433" id="DaoService" rx="2.5" ry="2.5" style="stroke:#181818;stroke-width:0.5;" width="460.0123" x="1276.99" y="305.142"/><ellipse cx="1466.1223" cy="321.142" fill="#7FFFD4" rx="11" ry="11" style="stroke:#181818;stroke-width:1;"/><path d="M1465.2473,327.8139 Q1464.2473,327.8139 1463.2942,327.6264 Q1462.341,327.4389 1461.5598,327.0639 L1461.5598,324.892 Q1462.6535,325.3764 1463.5129,325.5951 Q1464.3879,325.8139 1465.2785,325.8139 Q1466.0754,325.8139 1466.5754,325.6107 Q1467.0754,325.4076 1467.3098,325.0326 Q1467.5442,324.642 1467.5442,324.0326 Q1467.5442,323.5639 1467.3567,323.3139 Q1467.1848,323.0482 1466.6223,322.7514 Q1466.0598,322.4545 1464.9817,321.9857 Q1464.2473,321.6576 1463.5285,321.2357 Q1462.8098,320.8139 1462.3254,320.0951 Q1461.841,319.3764 1461.841,318.2201 Q1461.841,317.0639 1462.3567,316.267 Q1462.8879,315.4545 1463.8254,315.0482 Q1464.7785,314.642 1466.0598,314.642 Q1467.0285,314.642 1467.8723,314.8451 Q1468.716,315.0482 1469.6535,315.5014 L1468.9192,317.4076 Q1468.0442,317.0014 1467.3567,316.8451 Q1466.6848,316.6889 1466.0285,316.6889 Q1465.4192,316.6889 1464.9817,316.8451 Q1464.5442,317.0014 1464.3098,317.3451 Q1464.091,317.6732 1464.091,318.2514 Q1464.091,318.7357 1464.2785,319.0326 Q1464.4817,319.3295 1464.966,319.5951 Q1465.466,319.8451 1466.3254,320.2201 Q1467.3098,320.6264 1468.0754,321.0639 Q1468.8567,321.5014 1469.3254,322.2045 Q1469.8098,322.892 1469.8098,324.0482 Q1469.8098,324.9232 1469.5129,325.642 Q1469.216,326.3451 1468.6223,326.8451 Q1468.0285,327.3295 1467.1848,327.5795 Q1466.341,327.8139 1465.2473,327.8139 Z " fill="#000000"/><text fill="#000000" font-family="sans-serif" font-size="14" lengthAdjust="spacing" textLength="73.2477" x="1486.6223" y="326.574">DaoService</text><line style="stroke:#181818;stroke-width:0.5;" x1="1277.99" x2="1736.0023" y1="337.142" y2="337.142"/><rect fill="transparent" height="6" style="stroke:#C82930;stroke-width:1;" width="6" x="1284.99" y="349.1759"/><text fill="#000000" font-family="sans-serif" font-size="14" lengthAdjust="spacing" textLength="87.3597" x="1296.99" y="356.1079">dao dao.DAO</text><line style="stroke:#181818;stroke-width:0.5;" x1="1277.99" x2="1736.0023" y1="364.2099" y2="364.2099"/><ellipse cx="1287.99" cy="379.2439" fill="#84BE84" rx="3" ry="3" style="stroke:#038048;stroke-width:1;"/><text fill="#000000" font-family="sans-serif" font-size="14" lengthAdjust="spacing" textLength="434.0123" x="1296.99" y="383.1758">SearchByKeyValue(key string, value string) ([]dao.MetaData, error)</text><ellipse cx="1287.99" cy="398.3118" fill="#84BE84" rx="3" ry="3" style="stroke:#038048;stroke-width:1;"/><text fill="#000000" font-family="sans-serif" font-size="14" lengthAdjust="spacing" textLength="286.3129" x="1296.99" y="402.2438">Connect(params dao.ConnectParams) error</text><ellipse cx="1287.99" cy="417.3797" fill="#84BE84" rx="3" ry="3" style="stroke:#038048;stroke-width:1;"/><text fill="#000000" font-family="sans-serif" font-size="14" lengthAdjust="spacing" textLength="118.4535" x="1296.99" y="421.3117">Disconnect() error</text><ellipse cx="1287.99" cy="436.4476" fill="#84BE84" rx="3" ry="3" style="stroke:#038048;stroke-width:1;"/><text fill="#000000" font-family="sans-serif" font-size="14" lengthAdjust="spacing" textLength="213.9612" x="1296.99" y="440.3796">Create(doc dao.Document) error</text><ellipse cx="1287.99" cy="455.5155" fill="#84BE84" rx="3" ry="3" style="stroke:#038048;stroke-width:1;"/><text fill="#000000" font-family="sans-serif" font-size="14" lengthAdjust="spacing" textLength="433.9143" x="1296.99" y="459.4475">Read(doc *dao.Document, uuid uuid.UUID) (dao.Document, error)</text><ellipse cx="1287.99" cy="474.5834" fill="#84BE84" rx="3" ry="3" style="stroke:#038048;stroke-width:1;"/><text fill="#000000" font-family="sans-serif" font-size="14" lengthAdjust="spacing" textLength="218.8892" x="1296.99" y="478.5154">Update(doc dao.Document) error</text><ellipse cx="1287.99" cy="493.6514" fill="#84BE84" rx="3" ry="3" style="stroke:#038048;stroke-width:1;"/><text fill="#000000" font-family="sans-serif" font-size="14" lengthAdjust="spacing" textLength="172.8993" x="1296.99" y="497.5833">Delete(id uuid.UUID) error</text></g><!--class RequestBody--><g id="elem_RequestBody"><rect codeLine="98" fill="#F1F1F1" height="67.0679" id="RequestBody" rx="2.5" ry="2.5" style="stroke:#181818;stroke-width:0.5;" width="118.8417" x="1123.58" y="371.882"/><ellipse cx="1138.58" cy="387.882" fill="#7FFFD4" rx="11" ry="11" style="stroke:#181818;stroke-width:1;"/><path d="M1137.705,394.5539 Q1136.705,394.5539 1135.7519,394.3664 Q1134.7988,394.1789 1134.0175,393.8039 L1134.0175,391.632 Q1135.1113,392.1164 1135.9706,392.3351 Q1136.8456,392.5539 1137.7363,392.5539 Q1138.5331,392.5539 1139.0331,392.3507 Q1139.5331,392.1476 1139.7675,391.7726 Q1140.0019,391.382 1140.0019,390.7726 Q1140.0019,390.3039 1139.8144,390.0539 Q1139.6425,389.7882 1139.08,389.4914 Q1138.5175,389.1945 1137.4394,388.7257 Q1136.705,388.3976 1135.9863,387.9757 Q1135.2675,387.5539 1134.7831,386.8351 Q1134.2988,386.1164 1134.2988,384.9601 Q1134.2988,383.8039 1134.8144,383.007 Q1135.3456,382.1945 1136.2831,381.7882 Q1137.2363,381.382 1138.5175,381.382 Q1139.4863,381.382 1140.33,381.5851 Q1141.1738,381.7882 1142.1113,382.2414 L1141.3769,384.1476 Q1140.5019,383.7414 1139.8144,383.5851 Q1139.1425,383.4289 1138.4863,383.4289 Q1137.8769,383.4289 1137.4394,383.5851 Q1137.0019,383.7414 1136.7675,384.0851 Q1136.5488,384.4132 1136.5488,384.9914 Q1136.5488,385.4757 1136.7363,385.7726 Q1136.9394,386.0695 1137.4238,386.3351 Q1137.9238,386.5851 1138.7831,386.9601 Q1139.7675,387.3664 1140.5331,387.8039 Q1141.3144,388.2414 1141.7831,388.9445 Q1142.2675,389.632 1142.2675,390.7882 Q1142.2675,391.6632 1141.9706,392.382 Q1141.6738,393.0851 1141.08,393.5851 Q1140.4863,394.0695 1139.6425,394.3195 Q1138.7988,394.5539 1137.705,394.5539 Z " fill="#000000"/><text fill="#000000" font-family="sans-serif" font-size="14" lengthAdjust="spacing" textLength="86.8417" x="1152.58" y="393.314">RequestBody</text><line style="stroke:#181818;stroke-width:0.5;" x1="1124.58" x2="1241.4217" y1="403.882" y2="403.882"/><ellipse cx="1134.58" cy="418.9159" fill="transparent" rx="3" ry="3" style="stroke:#038048;stroke-width:1;"/><text fill="#000000" font-family="sans-serif" font-size="14" lengthAdjust="spacing" textLength="73.1217" x="1143.58" y="422.8479">Udid string</text><line style="stroke:#181818;stroke-width:0.5;" x1="1124.58" x2="1241.4217" y1="430.9499" y2="430.9499"/></g><!--reverse link ConnectParams to BoltConnectionParams--><g id="link_ConnectParams_BoltConnectionParams"><path codeLine="71" d="M530.2599,187.1243 C526.2399,230.2643 520.77,288.882 515.73,342.922 " fill="transparent" id="ConnectParams-backto-BoltConnectionParams" style="stroke:#181818;stroke-width:1;"/><polygon fill="transparent" points="531.93,169.202,524.2858,186.5676,536.234,187.681,531.93,169.202" style="stroke:#181818;stroke-width:1;"/></g><!--reverse link DAO to BoltDao--><g id="link_DAO_BoltDao"><path codeLine="72" d="M852,244.342 C852,269.592 852,279.192 852,304.952 " fill="transparent" id="DAO-backto-BoltDao" style="stroke:#181818;stroke-width:1;"/><polygon fill="transparent" points="852,226.342,846,244.342,858,244.342,852,226.342" style="stroke:#181818;stroke-width:1;"/></g><!--reverse link Document to Notes--><g id="link_Document_Notes"><path codeLine="73" d="M294.1387,243.8056 C289.3887,262.8256 288.67,265.702 283.7,285.592 " fill="transparent" id="Document-backto-Notes" style="stroke:#181818;stroke-width:1;"/><polygon fill="transparent" points="298.5,226.342,288.3175,242.3519,299.9599,245.2594,298.5,226.342" style="stroke:#181818;stroke-width:1;"/></g><!--reverse link DAO to DaoService--><g id="link_DAO_DaoService"><path codeLine="104" d="M1085.2663,196.0025 C1148.2863,214.7025 1199.25,232.592 1260,259.142 C1289.97,272.242 1320.84,288.192 1350.17,304.672 " fill="transparent" id="DAO-backto-DaoService" style="stroke:#181818;stroke-width:1;"/><polygon fill="transparent" points="1068.01,190.882,1083.5595,201.7546,1086.9732,190.2504,1068.01,190.882" style="stroke:#181818;stroke-width:1;"/></g><!--SRC=[hLRDSfim4Bxp53i-uSJc2JoPiSEqzRHfF77SIwS76MriJG4H939bshnx1GWG5WN73HVB-lP7kzzgLp69K2GaGA24msy7r1U4H0XOyL3UyZZ6G38URqXA8W6B1RZRsV8v8n59MOnJkBdHMiKtXuJ88mYfi8En6t6Ay2Iy3op4ExKs89v80LTxvSoxJmfFmZ7G0yhAipi54kSLz7foIb-TVFHWTA-z-AlMmJNSfaWakfG7uFCWYp2MKy0qvQaXj4MI1iTL_XdpRoJCqFs9kGvo1Y_5Zlut1VVxZpkKn2UIp2exKyFG0n9Q-hggdSs0KSWoHhtTRkqh_HQmj7S97J-hZo4geQxLKo7DgniazRBASeyv9W8jN8C61ooMc3uLrTCn0vtC3t3OwllBUrEh8MOWqZAPPYRFpUExqQa96MVZ72xUYudwCDrqVaJvo6I8IlVaTXRvq5WJzgblfLsdGHcebrqJZK23zzfHKKfrEbqB7GirL22zkcjVgJMfj9j1xNYi6rn36Q-TYMKcZporzpVPFcJYg6ptA7qXGbQLG6smw7YFUTAZjilCEse7yvLB51T7KgI25gde8KldkLPwQvL8m-D_bag4nWalBPT0X_Esgdbrd8aQULxdrarWyMS-XnBect-JIaSrgrD9DODgKDy_KwBaSk8uSJDj1QOlJFsQ4tUvMNyYCGqn7QTT-Tjg4-tI6MfoQkWSMEoLMVkbMfNTQmSaobuxWEjEE22XEw4bOTMz4TduK5UJNnFYNDpW2mC3JRxkpqarsgoQEQjJzpuup6hvntWhtmgctAoivCwawy93huPXXmCl1uka1tpEKCWLf_buhUueevrcqzu-uoRf6-6r_4-Slm00]--></g></svg>